<svg width="144" height="48" viewBox="0 0 144 48" fill="none" xmlns="http://www.w3.org/2000/svg">
<path d="M132.162 0H11.4416C11.0016 0 10.5668 2.32831e-10 10.1279 0.002556C9.76056 0.004956 9.39611 0.011928 9.0252 0.017796C8.21942 0.0272782 7.41553 0.0981675 6.62052 0.229848C5.82663 0.364395 5.05761 0.618055 4.33946 0.982248C3.6222 1.34952 2.96681 1.82675 2.39708 2.39664C1.82436 2.96492 1.34696 3.62177 0.98322 4.34195C0.61848 5.06068 0.365569 5.83088 0.23322 6.62593C0.0996131 7.41998 0.0277181 8.22318 0.01818 9.02833C0.007044 9.39625 0.005868 9.76539 0 10.1333V37.8705C0.005868 38.2431 0.007044 38.604 0.01818 38.9767C0.027721 39.7818 0.0996161 40.585 0.23322 41.379C0.365203 42.1745 0.61813 42.9452 0.98322 43.6642C1.34679 44.382 1.82427 45.0362 2.39708 45.6013C2.96465 46.1738 3.62046 46.6513 4.33946 47.0158C5.0576 47.3809 5.82654 47.6361 6.62052 47.7727C7.41566 47.9034 8.21947 47.9743 9.0252 47.9849C9.39611 47.9931 9.76056 47.9977 10.1279 47.9977C10.5668 48.0001 11.0016 48.0001 11.4416 48.0001H132.162C132.593 48.0001 133.031 48.0001 133.463 47.9977C133.828 47.9977 134.203 47.9931 134.569 47.9849C135.373 47.9748 136.175 47.9039 136.969 47.7727C137.765 47.6351 138.537 47.38 139.259 47.0158C139.977 46.6511 140.632 46.1736 141.199 45.6013C141.771 45.034 142.249 44.3803 142.617 43.6642C142.98 42.9446 143.23 42.1741 143.36 41.379C143.494 40.5849 143.568 39.7819 143.583 38.9767C143.588 38.604 143.588 38.2431 143.588 37.8705C143.597 37.4345 143.597 37.0009 143.597 36.5579V11.4435C143.597 11.004 143.597 10.5681 143.588 10.1333C143.588 9.76539 143.588 9.39625 143.583 9.02828C143.568 8.22306 143.494 7.42004 143.36 6.62588C143.23 5.83129 142.979 5.06116 142.617 4.3419C141.876 2.89839 140.702 1.72338 139.259 0.98214C138.537 0.618837 137.765 0.365244 136.969 0.22974C136.175 0.0974794 135.373 0.0265653 134.569 0.017628C134.203 0.011772 133.828 0.00474 133.463 0.0024C133.031 0 132.593 0 132.162 0Z" fill="url(#paint0_linear_776_17111)"/>
<path d="M10.1338 46.9503C9.76817 46.9503 9.41139 46.9456 9.04864 46.9374C8.29718 46.9276 7.54748 46.8622 6.80568 46.7417C6.11398 46.6226 5.44392 46.401 4.81759 46.0842C4.197 45.7701 3.63097 45.3582 3.14119 44.8643C2.64432 44.3762 2.23065 43.8101 1.91658 43.1885C1.59904 42.5628 1.37929 41.8921 1.26498 41.1998C1.14152 40.456 1.07473 39.7038 1.06518 38.9498C1.05757 38.6968 1.04761 37.8541 1.04761 37.8541V10.1335C1.04761 10.1335 1.05822 9.3038 1.06524 9.06005C1.07439 8.30727 1.14079 7.55627 1.26387 6.81356C1.3784 6.11939 1.59832 5.44679 1.91602 4.81904C2.22894 4.19782 2.64031 3.63132 3.13419 3.1415C3.62751 2.64703 4.19535 2.23301 4.817 1.91454C5.44189 1.5988 6.11069 1.37877 6.80098 1.26181C7.54522 1.14009 8.29753 1.07428 9.0516 1.06494L10.1344 1.05029H133.457L134.552 1.06553C135.3 1.07441 136.045 1.13963 136.782 1.26064C137.48 1.37906 138.155 1.60063 138.788 1.91806C140.033 2.55987 141.046 3.57528 141.686 4.82197C141.998 5.44538 142.215 6.1125 142.328 6.80068C142.452 7.54948 142.522 8.30637 142.536 9.06533C142.54 9.40517 142.54 9.77021 142.54 10.1335C142.549 10.5835 142.549 11.0118 142.549 11.4436V36.558C142.549 36.994 142.549 37.4194 142.54 37.8482C142.54 38.2385 142.54 38.596 142.535 38.9639C142.521 39.7093 142.453 40.4527 142.33 41.1881C142.218 41.8854 142 42.5613 141.682 43.1921C141.366 43.807 140.954 44.3682 140.463 44.8549C139.973 45.3515 139.406 45.7658 138.784 46.0819C138.154 46.4011 137.479 46.6235 136.782 46.7417C136.041 46.8628 135.291 46.9283 134.539 46.9374C134.188 46.9456 133.82 46.9503 133.463 46.9503L132.162 46.9526L10.1338 46.9503Z" fill="#090316"/>
<path d="M29.7226 24.3608C29.7488 22.325 30.8161 20.4446 32.5505 19.3783C31.4514 17.8086 29.6764 16.849 27.7611 16.7891C25.746 16.5776 23.7924 17.9949 22.7656 17.9949C21.7189 17.9949 20.1379 16.8101 18.4354 16.8451C16.1954 16.9175 14.1577 18.1602 13.0679 20.1186C10.7471 24.1367 12.4782 30.0419 14.7013 33.2899C15.8136 34.8803 17.1135 36.6568 18.8145 36.5938C20.479 36.5248 21.1006 35.5324 23.1098 35.5324C25.1003 35.5324 25.6835 36.5938 27.419 36.5538C29.205 36.5248 30.3303 34.9563 31.4036 33.3508C32.2028 32.2176 32.8177 30.9651 33.2257 29.6398C31.1044 28.7426 29.7251 26.664 29.7226 24.3608Z" fill="white"/>
<path d="M26.4447 14.6531C27.4185 13.484 27.8983 11.9814 27.7821 10.4644C26.2943 10.6206 24.92 11.3317 23.933 12.4559C22.9584 13.5651 22.4647 15.0162 22.5606 16.4896C24.0683 16.5051 25.4999 15.8282 26.4447 14.6531Z" fill="white"/>
<path d="M50.7627 32.5677H45.0827L43.7186 36.5954H41.3127L46.6928 21.6938H49.1924L54.5725 36.5954H52.1256L50.7627 32.5677ZM45.6709 30.7091H50.1733L47.9538 24.1724H47.8917L45.6709 30.7091Z" fill="white"/>
<path d="M66.1915 31.1637C66.1915 34.5399 64.3845 36.7091 61.6576 36.7091C60.248 36.7828 58.9203 36.0445 58.2392 34.8082H58.1876V40.1895H55.9575V25.7309H58.1162V27.538H58.1572C58.8685 26.3095 60.1977 25.5715 61.6165 25.6172C64.3739 25.6173 66.1915 27.7969 66.1915 31.1637ZM63.8993 31.1637C63.8993 28.9641 62.7626 27.518 61.0283 27.518C59.3243 27.518 58.1783 28.9946 58.1783 31.1637C58.1783 33.3528 59.3243 34.8188 61.0283 34.8188C62.7626 34.8188 63.8993 33.3833 63.8993 31.1637Z" fill="white"/>
<path d="M78.1495 31.1637C78.1495 34.5399 76.3425 36.709 73.6156 36.709C72.206 36.7828 70.8783 36.0445 70.1972 34.8082H70.1456V40.1895H67.9155V25.7309H70.0741V27.5379H70.1151C70.8265 26.3094 72.1556 25.5715 73.5745 25.6172C76.332 25.6172 78.1495 27.7969 78.1495 31.1637ZM75.8574 31.1637C75.8574 28.9641 74.7206 27.518 72.9863 27.518C71.2824 27.518 70.1363 28.9946 70.1363 31.1637C70.1363 33.3528 71.2824 34.8188 72.9863 34.8188C74.7206 34.8188 75.8574 33.3833 75.8574 31.1637Z" fill="white"/>
<path d="M86.0524 32.4434C86.2176 33.9212 87.6532 34.8914 89.6149 34.8914C91.4946 34.8914 92.8469 33.9211 92.8469 32.5887C92.8469 31.432 92.0313 30.7395 90.1 30.2649L88.1688 29.7996C85.4325 29.1387 84.1621 27.859 84.1621 25.7824C84.1621 23.2113 86.4028 21.4453 89.5844 21.4453C92.7332 21.4453 94.8918 23.2113 94.9645 25.7824H92.7133C92.5785 24.2953 91.3492 23.3977 89.5527 23.3977C87.7563 23.3977 86.527 24.3059 86.527 25.6277C86.527 26.6813 87.3121 27.3012 89.2328 27.7757L90.8746 28.1789C93.932 28.9019 95.2024 30.1301 95.2024 32.3097C95.2024 35.0976 92.9816 36.8437 89.4496 36.8437C86.1449 36.8437 83.9137 35.1386 83.7695 32.4433L86.0524 32.4434Z" fill="white"/>
<path d="M100.016 23.1597V25.7308H102.082V27.4968H100.016V33.4863C100.016 34.4167 100.429 34.8503 101.337 34.8503C101.583 34.846 101.828 34.8288 102.071 34.7987V36.5542C101.663 36.6305 101.248 36.665 100.832 36.6573C98.6328 36.6573 97.775 35.8311 97.775 33.7241V27.4968H96.1953V25.7308H97.775V23.1597H100.016Z" fill="white"/>
<path d="M103.278 31.1636C103.278 27.7452 105.291 25.5972 108.431 25.5972C111.581 25.5972 113.584 27.7452 113.584 31.1636C113.584 34.5913 111.591 36.73 108.431 36.73C105.271 36.73 103.278 34.5913 103.278 31.1636ZM111.312 31.1636C111.312 28.8187 110.238 27.4347 108.431 27.4347C106.624 27.4347 105.55 28.8292 105.55 31.1636C105.55 33.5179 106.624 34.8913 108.431 34.8913C110.238 34.8913 111.312 33.5179 111.312 31.1636Z" fill="white"/>
<path d="M115.423 25.7308H117.55V27.58H117.602C117.899 26.3895 118.989 25.5703 120.215 25.6171C120.472 25.6162 120.728 25.6441 120.979 25.7003V27.7862C120.655 27.6871 120.316 27.6415 119.977 27.6514C119.322 27.6249 118.687 27.8861 118.24 28.3667C117.794 28.8473 117.579 29.4991 117.653 30.151V36.5952H115.423V25.7308Z" fill="white"/>
<path d="M131.261 33.4042C130.961 35.3765 129.041 36.73 126.583 36.73C123.423 36.73 121.461 34.6124 121.461 31.2152C121.461 27.8074 123.433 25.5972 126.489 25.5972C129.495 25.5972 131.386 27.662 131.386 30.9562V31.7202H123.712V31.855C123.64 32.6638 123.92 33.4645 124.479 34.0533C125.038 34.642 125.823 34.9622 126.635 34.9323C127.717 35.0337 128.737 34.4123 129.144 33.4042H131.261ZM123.723 30.1617H129.154C129.195 29.4348 128.93 28.7241 128.424 28.2007C127.918 27.6773 127.217 27.3886 126.489 27.4042C125.756 27.3998 125.051 27.6887 124.532 28.2065C124.012 28.7242 123.721 29.4281 123.723 30.1617Z" fill="white"/>
<path d="M45.3915 10.4769C46.3382 10.409 47.2655 10.7692 47.9182 11.4584C48.5708 12.1476 48.88 13.0931 48.7606 14.0347C48.7606 16.3222 47.5243 17.6371 45.3915 17.6371H42.8052V10.4769H45.3915ZM43.9173 16.6245H45.2673C45.9439 16.665 46.6027 16.3984 47.0607 15.8988C47.5188 15.3993 47.7274 14.7199 47.6286 14.0493C47.7202 13.3816 47.5086 12.7078 47.0517 12.2123C46.5947 11.7168 45.9403 11.4514 45.2673 11.4888H43.9173V16.6245Z" fill="white"/>
<path d="M50.017 14.933C49.9243 13.9644 50.3887 13.0271 51.2155 12.5141C52.0422 12.0011 53.0883 12.0011 53.915 12.5141C54.7417 13.0271 55.2061 13.9644 55.1135 14.933C55.2079 15.9025 54.7439 16.8417 53.9164 17.3558C53.089 17.8699 52.0415 17.8699 51.214 17.3558C50.3866 16.8417 49.9226 15.9025 50.017 14.933ZM54.0166 14.933C54.0166 13.7617 53.4904 13.0767 52.567 13.0767C51.64 13.0767 51.1186 13.7617 51.1186 14.933C51.1186 16.1137 51.6401 16.7933 52.567 16.7933C53.4904 16.7933 54.0166 16.1089 54.0166 14.933Z" fill="white"/>
<path d="M61.888 17.6374H60.7817L59.6649 13.6577H59.5806L58.4685 17.6374H57.3728L55.8833 12.2339H56.9649L57.9329 16.3571H58.0126L59.1235 12.2339H60.1466L61.2575 16.3571H61.3419L62.3052 12.2339H63.3716L61.888 17.6374Z" fill="white"/>
<path d="M64.6243 12.2337H65.6508V13.0921H65.7305C66.0076 12.4601 66.6552 12.0735 67.343 12.1294C67.8756 12.0894 68.3975 12.2937 68.7613 12.6846C69.1252 13.0756 69.2915 13.6108 69.2133 14.1392V17.6372H68.1469V14.4069C68.1469 13.5386 67.7696 13.1067 66.9809 13.1067C66.6197 13.0899 66.2691 13.2317 66.0211 13.4949C65.7731 13.7581 65.6524 14.1165 65.6907 14.4761V17.6372H64.6243V12.2337Z" fill="white"/>
<path d="M70.9126 10.1245H71.979V17.6374H70.9126V10.1245Z" fill="white"/>
<path d="M73.4615 14.9331C73.3689 13.9645 73.8334 13.0272 74.6602 12.5142C75.487 12.0011 76.5331 12.0011 77.3599 12.5142C78.1867 13.0272 78.6512 13.9645 78.5586 14.9331C78.6529 15.9028 78.1888 16.8419 77.3613 17.356C76.5338 17.8701 75.4863 17.8701 74.6588 17.356C73.8313 16.8419 73.3672 15.9028 73.4615 14.9331ZM77.4611 14.9331C77.4611 13.7619 76.935 13.0769 76.0115 13.0769C75.0846 13.0769 74.5631 13.7619 74.5631 14.9332C74.5631 16.1138 75.0846 16.7935 76.0115 16.7935C76.935 16.7935 77.4611 16.1091 77.4611 14.9331Z" fill="white"/>
<path d="M79.6812 16.1091C79.6812 15.1364 80.4054 14.5757 81.6909 14.496L83.1546 14.4116V13.9452C83.1546 13.3745 82.7772 13.0523 82.0483 13.0523C81.453 13.0523 81.0405 13.2708 80.9222 13.6529H79.8897C79.9987 12.7247 80.8718 12.1294 82.0976 12.1294C83.4522 12.1294 84.2163 12.8038 84.2163 13.9452V17.6372H83.1897V16.8779H83.1054C82.7567 17.4324 82.1367 17.7565 81.4823 17.7263C81.0236 17.774 80.5661 17.6254 80.2229 17.3173C79.8798 17.0092 79.683 16.5703 79.6812 16.1091ZM83.1546 15.6474V15.1956L81.8351 15.28C81.0909 15.3298 80.7534 15.5829 80.7534 16.0593C80.7534 16.5456 81.1753 16.8286 81.7554 16.8286C82.0988 16.8634 82.4417 16.7573 82.7054 16.5346C82.9692 16.3119 83.1313 15.9918 83.1546 15.6474Z" fill="white"/>
<path d="M85.6177 14.9333C85.6177 13.2259 86.4954 12.1442 87.8606 12.1442C88.55 12.1125 89.1957 12.4819 89.5177 13.0922H89.5974V10.1245H90.6638V17.6374H89.6419V16.7837H89.5575C89.2112 17.389 88.5576 17.7521 87.8607 17.7264C86.486 17.7265 85.6177 16.6448 85.6177 14.9333ZM86.7193 14.9333C86.7193 16.0794 87.2595 16.769 88.163 16.769C89.0618 16.769 89.6173 16.0694 89.6173 14.938C89.6173 13.8118 89.056 13.1022 88.163 13.1022C87.2653 13.1022 86.7193 13.7966 86.7193 14.9333Z" fill="white"/>
<path d="M95.0761 14.933C94.9834 13.9644 95.4478 13.0271 96.2745 12.5141C97.1013 12.0011 98.1473 12.0011 98.9741 12.5141C99.8008 13.0271 100.265 13.9644 100.173 14.933C100.267 15.9025 99.803 16.8417 98.9755 17.3558C98.1481 17.8699 97.1005 17.8699 96.2731 17.3558C95.4456 16.8417 94.9816 15.9025 95.0761 14.933ZM99.0757 14.933C99.0757 13.7617 98.5495 13.0767 97.6261 13.0767C96.6991 13.0767 96.1777 13.7617 96.1777 14.933C96.1777 16.1137 96.6991 16.7933 97.6261 16.7933C98.5495 16.7933 99.0757 16.1089 99.0757 14.933Z" fill="white"/>
<path d="M101.604 12.2337H102.63V13.0921H102.71C102.987 12.4601 103.634 12.0735 104.322 12.1294C104.855 12.0894 105.377 12.2937 105.741 12.6846C106.104 13.0756 106.271 13.6108 106.193 14.1392V17.6372H105.126V14.4069C105.126 13.5386 104.749 13.1067 103.96 13.1067C103.599 13.0899 103.248 13.2317 103 13.4949C102.752 13.7581 102.632 14.1165 102.67 14.4761V17.6372H101.604V12.2337Z" fill="white"/>
<path d="M112.218 10.8882V12.2581H113.389V13.1564H112.218V15.9349C112.218 16.5009 112.452 16.7488 112.982 16.7488C113.118 16.7483 113.254 16.7401 113.389 16.7242V17.6124C113.198 17.6467 113.004 17.6649 112.809 17.6669C111.623 17.6669 111.151 17.2497 111.151 16.2079V13.1563H110.293V12.2581H111.151V10.8882H112.218Z" fill="white"/>
<path d="M114.846 10.1245H115.903V13.1022H115.987C116.278 12.4647 116.936 12.0776 117.635 12.1343C118.164 12.1054 118.679 12.3143 119.039 12.7038C119.399 13.0934 119.566 13.6231 119.496 14.1487V17.6374H118.428V14.4118C118.428 13.5487 118.026 13.1116 117.273 13.1116C116.902 13.0812 116.536 13.216 116.274 13.4802C116.012 13.7443 115.879 14.1107 115.912 14.4815V17.6374H114.846V10.1245Z" fill="white"/>
<path d="M125.714 16.1783C125.415 17.1976 124.428 17.8561 123.372 17.7416C122.652 17.7606 121.959 17.462 121.479 16.9249C120.998 16.3878 120.778 15.6665 120.876 14.9525C120.78 14.2365 121 13.5142 121.478 12.9725C121.956 12.4309 122.645 12.1233 123.367 12.1295C124.871 12.1295 125.778 13.1567 125.778 14.8535V15.2256H121.962V15.2854C121.929 15.6863 122.066 16.0829 122.34 16.3776C122.614 16.6724 122.999 16.8378 123.401 16.8334C123.923 16.896 124.431 16.6372 124.687 16.1783H125.714ZM121.962 14.4369H124.692C124.719 14.0702 124.59 13.709 124.337 13.4425C124.083 13.1759 123.729 13.0287 123.362 13.0371C122.989 13.0324 122.63 13.1784 122.367 13.442C122.103 13.7055 121.958 14.0643 121.962 14.4369Z" fill="white"/>
<defs>
<linearGradient id="paint0_linear_776_17111" x1="71.8026" y1="0" x2="71.8026" y2="47.9992" gradientUnits="userSpaceOnUse">
<stop stop-color="#FFE02E"/>
<stop offset="0.4" stop-color="#FA8AE5"/>
<stop offset="0.56" stop-color="#BDA9EC"/>
<stop offset="0.77" stop-color="#70D2F6"/>
<stop offset="0.92" stop-color="#40EBFC"/>
<stop offset="1" stop-color="#0FF2F2"/>
</linearGradient>
</defs>
</svg>
