<svg width="160" height="48" viewBox="0 0 160 48" fill="none" xmlns="http://www.w3.org/2000/svg">
<path d="M154.074 47.4074H5.92592C2.66666 47.4074 0 44.7407 0 41.4815V5.92592C0 2.66666 2.66666 0 5.92592 0H154.074C157.334 0 160 2.66666 160 5.92592V41.4815C160 44.7407 157.334 47.4074 154.074 47.4074Z" fill="#090316"/>
<path d="M154.074 0H5.92592C2.66666 0 0 2.66666 0 5.92592V41.4815C0 44.7407 2.66666 47.4074 5.92592 47.4074H154.074C157.334 47.4074 160 44.7407 160 41.4815V5.92592C160 2.66666 157.334 0 154.074 0ZM154.074 0.948143C156.819 0.948143 159.052 3.18151 159.052 5.92592V41.4815C159.052 44.2264 156.819 46.4597 154.074 46.4597H5.92592C3.18151 46.4597 0.948143 44.2264 0.948143 41.4815V5.92592C0.948143 3.18151 3.18151 0.948143 5.92592 0.948143H154.074Z" fill="url(#paint0_linear_776_22934)"/>
<path d="M56.1996 12.1405C56.1996 13.1335 55.9055 13.9242 55.3166 14.5141C54.6477 15.2155 53.7759 15.5664 52.7041 15.5664C51.6777 15.5664 50.8051 15.2109 50.0874 14.4988C49.3685 13.7872 49.0098 12.9049 49.0098 11.8521C49.0098 10.7988 49.3685 9.9169 50.0874 9.20483C50.8051 8.49324 51.6777 8.13721 52.7041 8.13721C53.2134 8.13721 53.701 8.23677 54.1639 8.43541C54.6268 8.63452 54.9981 8.89881 55.2759 9.22984L54.6509 9.8553C54.1801 9.29277 53.5319 9.01176 52.7041 9.01176C51.9555 9.01176 51.3083 9.27475 50.762 9.8011C50.2157 10.328 49.9426 11.0113 49.9426 11.8521C49.9426 12.6928 50.2157 13.3761 50.762 13.903C51.3083 14.4294 51.9555 14.6924 52.7041 14.6924C53.4982 14.6924 54.1602 14.4279 54.6902 13.8984C55.0343 13.5534 55.2333 13.0739 55.2865 12.458H52.7041V11.6039H56.15C56.1833 11.7896 56.1996 11.9678 56.1996 12.1405Z" fill="white"/>
<path d="M56.1994 12.1404H56.0809C56.08 13.1107 55.7966 13.8644 55.2327 14.4302L55.2314 14.4312L55.2309 14.4321C54.5832 15.1093 53.7507 15.4464 52.704 15.4478C51.705 15.4464 50.8688 15.1057 50.1706 14.4149C49.474 13.7228 49.1294 12.8779 49.1281 11.852C49.1294 10.8256 49.474 9.98106 50.1706 9.28943C50.8688 8.59823 51.705 8.25702 52.704 8.2556C53.1979 8.2556 53.6683 8.35195 54.1169 8.54407C54.566 8.73761 54.9207 8.99124 55.185 9.30615L55.2758 9.2297L55.192 9.14591L54.567 9.77176L54.6507 9.85516L54.742 9.77926C54.2493 9.18893 53.5578 8.89133 52.704 8.89311C51.9277 8.89216 51.2448 9.16949 50.6799 9.71586C50.1096 10.2641 49.823 10.9857 49.824 11.852C49.823 12.7182 50.1096 13.4399 50.6799 13.988C51.2448 14.5344 51.9277 14.8117 52.704 14.8108C53.5243 14.8122 54.2235 14.5339 54.7739 13.9821C55.1415 13.6135 55.3499 13.1029 55.4045 12.4681L55.4155 12.3394H52.8225V11.7223H56.1499V11.6038L56.0331 11.6246C56.0656 11.8043 56.0809 11.9751 56.0809 12.1404H56.1994H56.3179C56.3179 11.9603 56.3012 11.7752 56.2665 11.5826L56.249 11.4853H52.5854V12.4579V12.5765H55.2864V12.4579L55.1683 12.4478C55.116 13.0441 54.9262 13.4932 54.6063 13.8145C54.097 14.3219 53.4721 14.5723 52.704 14.5737C51.9831 14.5728 51.3716 14.3246 50.8443 13.8177C50.3221 13.3126 50.0623 12.6677 50.061 11.852C50.0623 11.0362 50.3221 10.3913 50.8443 9.88616C51.3716 9.37927 51.9831 9.13109 52.704 9.13015C53.5054 9.13204 54.1105 9.39681 54.5601 9.93156L54.6434 10.0307L55.3596 9.31349L55.4364 9.2367L55.3665 9.15373C55.0753 8.80659 54.6874 8.53103 54.2104 8.32647C53.7327 8.12131 53.2285 8.01856 52.704 8.01856C51.6503 8.01761 50.7411 8.38798 50.0035 9.1209C49.2633 9.85236 48.8902 10.7719 48.8911 11.852C48.8902 12.9315 49.2632 13.8515 50.004 14.5835C50.7411 15.3159 51.6503 15.6858 52.704 15.6849C53.8012 15.6858 54.7114 15.3214 55.4022 14.5959L55.3165 14.514L55.4003 14.5978C56.0142 13.9843 56.3188 13.1557 56.3179 12.1404H56.1994Z" fill="white"/>
<path d="M61.6626 9.16999H58.4242V11.4247H61.3446V12.2792H58.4242V14.5339H61.6626V15.4075H57.5112V8.29639H61.6626V9.16999Z" fill="white"/>
<path d="M61.6624 9.16984V9.05133H58.3055V11.543H61.2259V12.1602L58.3055 12.1605V14.6522H61.5439V15.2888H57.6296V8.41476H61.5439V9.16984H61.6624H61.7809V8.29624V8.17773H57.3926V15.5258H61.7809V14.5337V14.4152H58.5425V12.3975H61.463V11.4245V11.306H58.5425V9.28836H61.7809V9.16984H61.6624Z" fill="white"/>
<path d="M65.5157 15.4075H64.6014V9.16999H62.6152V8.29639H67.5019V9.16999H65.5157V15.4075Z" fill="white"/>
<path d="M65.5156 15.4073V15.2888H64.7197V9.05133H62.7336V8.41476H67.3832V9.05133H65.3971V15.4073H65.5156H65.6341V9.28836H67.6202V8.29624V8.17773H62.4966V9.16984V9.28836H64.4827V15.5258H65.5156H65.6341V15.4073H65.5156Z" fill="white"/>
<path d="M71.0376 15.4075V8.29639H71.951V15.4075H71.0376Z" fill="white"/>
<path d="M71.0375 15.4073H71.156V8.41476H71.8324V15.2888H71.0375V15.4073V15.5258H71.9509H72.0694V8.17773H71.0375H70.9189V15.5258H71.0375V15.4073Z" fill="white"/>
<path d="M76.0044 15.4075H75.09V9.16999H73.104V8.29639H77.9905V9.16999H76.0044V15.4075Z" fill="white"/>
<path d="M76.0042 15.4073V15.2888H75.2085V9.05133H73.2225V8.41476H77.8719V9.05133H75.8857V15.4073H76.0042H76.1228V9.28836H78.1089V8.29624V8.17773H72.9854V9.16984V9.28836H74.9715V15.5258H76.0042H76.1228V15.4073H76.0042Z" fill="white"/>
<path d="M82.7012 13.8933C83.2275 14.4262 83.8716 14.6924 84.6332 14.6924C85.3948 14.6924 86.0391 14.4262 86.5646 13.8933C87.0915 13.3604 87.3554 12.6793 87.3554 11.8521C87.3554 11.0248 87.0915 10.3437 86.5646 9.8108C86.0391 9.27795 85.3948 9.01176 84.6332 9.01176C83.8716 9.01176 83.2275 9.27795 82.7012 9.8108C82.1757 10.3437 81.9118 11.0248 81.9118 11.8521C81.9118 12.6793 82.1757 13.3604 82.7012 13.8933ZM87.2406 14.4886C86.5414 15.2076 85.672 15.5664 84.6332 15.5664C83.5933 15.5664 82.7243 15.2076 82.0267 14.4886C81.3271 13.7705 80.979 12.8915 80.979 11.8521C80.979 10.8126 81.3271 9.9335 82.0267 9.21549C82.7243 8.49644 83.5933 8.13721 84.6332 8.13721C85.6665 8.13721 86.5336 8.49834 87.2359 9.22012C87.9373 9.9419 88.2883 10.8192 88.2883 11.8521C88.2883 12.8915 87.9382 13.7705 87.2406 14.4886Z" fill="white"/>
<path d="M82.7015 13.8932L82.6173 13.9765C83.1632 14.5307 83.8442 14.8122 84.6335 14.8108C85.4224 14.8122 86.1043 14.5307 86.6493 13.9765C87.1987 13.4219 87.4751 12.7042 87.4743 11.852C87.4751 10.9997 87.1987 10.2821 86.6493 9.72736C86.1043 9.17317 85.4224 8.89169 84.6335 8.89311C83.8442 8.89169 83.1632 9.17317 82.6173 9.72736C82.0691 10.2821 81.7923 10.9997 81.7937 11.852C81.7923 12.7042 82.0691 13.4219 82.6173 13.9765L82.7015 13.8932L82.7858 13.8099C82.2831 13.2982 82.0317 12.6547 82.0307 11.852C82.0317 11.0492 82.2831 10.4057 82.7858 9.89396C83.2932 9.38247 83.8992 9.13157 84.6335 9.13015C85.3673 9.13157 85.9747 9.38247 86.4807 9.89396C86.9844 10.4057 87.2358 11.0492 87.2368 11.852C87.2358 12.6547 86.9844 13.2982 86.4807 13.8099C85.9747 14.3214 85.3673 14.5723 84.6335 14.5737C83.8992 14.5723 83.2932 14.3214 82.7858 13.8099L82.7015 13.8932ZM87.2409 14.4885L87.1562 14.4062C86.4766 15.1025 85.6455 15.4464 84.6335 15.4478C83.621 15.4464 82.79 15.1025 82.1117 14.4062C81.4335 13.7075 81.0988 12.8649 81.0979 11.852C81.0988 10.839 81.4335 9.99636 82.1117 9.29773C82.79 8.60143 83.621 8.25702 84.6335 8.2556C85.639 8.25702 86.4682 8.60286 87.1516 9.30283C87.8321 10.0047 88.1687 10.846 88.1701 11.852C88.1687 12.8649 87.833 13.7075 87.1562 14.4062L87.2409 14.4885L87.3261 14.5709C88.0446 13.833 88.408 12.9177 88.4071 11.852C88.408 10.7923 88.0432 9.87886 87.3214 9.13761C86.5993 8.39355 85.6946 8.01726 84.6335 8.01856C83.5668 8.01726 82.6595 8.39177 81.9418 9.13299C81.222 9.87133 80.8599 10.7862 80.8608 11.852C80.8599 12.9177 81.222 13.833 81.9418 14.5714C82.6595 15.3126 83.5668 15.6858 84.6335 15.6849C85.6997 15.6858 86.6071 15.3121 87.3261 14.5709L87.2409 14.4885Z" fill="white"/>
<path d="M89.5708 15.4075V8.29639H90.6828L94.1388 13.8284H94.1782L94.1388 12.4579V8.29639H95.0532V15.4075H94.0995L90.4837 9.60744H90.4444L90.4837 10.9784V15.4075H89.5708Z" fill="white"/>
<path d="M89.5708 15.4073H89.6893V8.41476H90.617L94.073 13.9467H94.1782H94.2999L94.2572 12.456V8.41476H94.9347V15.2888H94.1652L90.5495 9.48878H90.4444H90.3225L90.3652 10.9801V15.2888H89.5708V15.4073V15.5258H90.4837H90.6021V10.9763L90.5629 9.60409L90.4444 9.60729V9.72583H90.4837V9.60729L90.3831 9.67035L94.0337 15.5258H95.0532H95.1717V8.17773H94.1387H94.0202V12.4592L94.0596 13.8314L94.1782 13.8282V13.7097H94.1387V13.8282L94.2393 13.7653L90.7485 8.17773H89.5708H89.4521V15.5258H89.5708V15.4073Z" fill="white"/>
<path d="M126.739 35.5554H128.951V20.7392H126.739V35.5554ZM146.659 26.0763L144.124 32.4999H144.048L141.417 26.0763H139.034L142.98 35.0544L140.73 40.0484H143.038L149.118 26.0763H146.659ZM134.117 33.8726C133.392 33.8726 132.382 33.5105 132.382 32.6143C132.382 31.4707 133.641 31.0323 134.726 31.0323C135.699 31.0323 136.156 31.2419 136.747 31.5281C136.575 32.9004 135.394 33.8726 134.117 33.8726ZM134.384 25.7522C132.783 25.7522 131.124 26.4577 130.438 28.0207L132.401 28.8401C132.82 28.0207 133.602 27.7536 134.422 27.7536C135.565 27.7536 136.728 28.4402 136.747 29.6601V29.8124C136.346 29.5836 135.49 29.2406 134.441 29.2406C132.325 29.2406 130.17 30.4031 130.17 32.5762C130.17 34.5587 131.906 35.8359 133.849 35.8359C135.337 35.8359 136.156 35.1688 136.671 34.3874H136.747V35.5309H138.882V29.8503C138.882 27.2202 136.919 25.7522 134.384 25.7522ZM120.716 27.8799H117.571V22.8013H120.716C122.37 22.8013 123.308 24.1702 123.308 25.3405C123.308 26.4887 122.37 27.8799 120.716 27.8799ZM120.659 20.7392H115.36V35.5554H117.571V29.942H120.659C123.11 29.942 125.52 28.1674 125.52 25.3405C125.52 22.5138 123.11 20.7392 120.659 20.7392ZM91.7629 33.8753C90.2351 33.8753 88.9559 32.5961 88.9559 30.8392C88.9559 29.0638 90.2351 27.7652 91.7629 27.7652C93.2713 27.7652 94.4551 29.0638 94.4551 30.8392C94.4551 32.5961 93.2713 33.8753 91.7629 33.8753ZM94.3023 26.9059H94.2258C93.7296 26.3142 92.7745 25.7795 91.5717 25.7795C89.0513 25.7795 86.7412 27.9943 86.7412 30.8392C86.7412 33.6652 89.0513 35.861 91.5717 35.861C92.7745 35.861 93.7296 35.3262 94.2258 34.7156H94.3023V35.441C94.3023 37.3698 93.2713 38.4008 91.6101 38.4008C90.2545 38.4008 89.4143 37.4267 89.0703 36.6058L87.1421 37.4077C87.6958 38.7443 89.1662 40.3865 91.6101 40.3865C94.2069 40.3865 96.4027 38.8586 96.4027 35.1355V26.0851H94.3023V26.9059ZM97.93 35.5554H100.145V20.7387H97.93V35.5554ZM103.41 30.6675C103.353 28.7197 104.919 27.7271 106.045 27.7271C106.924 27.7271 107.668 28.166 107.916 28.7967L103.41 30.6675ZM110.284 28.9873C109.865 27.8605 108.585 25.7795 105.969 25.7795C103.372 25.7795 101.215 27.8226 101.215 30.8202C101.215 33.6462 103.353 35.861 106.217 35.861C108.528 35.861 109.865 34.448 110.418 33.6271L108.7 32.4813C108.127 33.3216 107.344 33.8753 106.217 33.8753C105.091 33.8753 104.289 33.3596 103.773 32.3479L110.513 29.56L110.284 28.9873ZM56.5852 27.3262V29.4646H61.7022C61.5495 30.6675 61.1485 31.5457 60.5374 32.1568C59.793 32.9017 58.6282 33.7225 56.5852 33.7225C53.4346 33.7225 50.9717 31.1831 50.9717 28.0327C50.9717 24.8822 53.4346 22.3425 56.5852 22.3425C58.2846 22.3425 59.5254 23.0109 60.442 23.8702L61.9504 22.3619C60.6712 21.1396 58.9717 20.2041 56.5852 20.2041C52.2698 20.2041 48.6421 23.7174 48.6421 28.0327C48.6421 32.3479 52.2698 35.861 56.5852 35.861C58.9148 35.861 60.6712 35.0976 62.0458 33.6652C63.4588 32.2522 63.8981 30.2665 63.8981 28.6628C63.8981 28.166 63.8601 27.7082 63.7833 27.3262H56.5852ZM69.7157 33.8753C68.1879 33.8753 66.8703 32.6151 66.8703 30.8202C66.8703 29.0063 68.1879 27.7652 69.7157 27.7652C71.243 27.7652 72.5605 29.0063 72.5605 30.8202C72.5605 32.6151 71.243 33.8753 69.7157 33.8753ZM69.7157 25.7795C66.9277 25.7795 64.6555 27.8989 64.6555 30.8202C64.6555 33.7225 66.9277 35.861 69.7157 35.861C72.5032 35.861 74.7754 33.7225 74.7754 30.8202C74.7754 27.8989 72.5032 25.7795 69.7157 25.7795ZM80.7536 33.8753C79.2264 33.8753 77.9087 32.6151 77.9087 30.8202C77.9087 29.0063 79.2264 27.7652 80.7536 27.7652C82.2809 27.7652 83.5985 29.0063 83.5985 30.8202C83.5985 32.6151 82.2809 33.8753 80.7536 33.8753ZM80.7536 25.7795C77.9657 25.7795 75.6939 27.8989 75.6939 30.8202C75.6939 33.7225 77.9657 35.861 80.7536 35.861C83.5412 35.861 85.8134 33.7225 85.8134 30.8202C85.8134 27.8989 83.5412 25.7795 80.7536 25.7795Z" fill="white"/>
<mask id="mask0_776_22934" style="mask-type:alpha" maskUnits="userSpaceOnUse" x="11" y="9" width="17" height="30">
<path d="M12.4559 38.3877L12.3678 38.3034C12.0229 37.9385 11.8193 37.3719 11.8193 36.6381V36.8108V10.5993V10.7729C11.8193 9.97844 12.0567 9.37987 12.4545 9.021L27.1387 23.7048L12.4559 38.3877Z" fill="white"/>
</mask>
<g mask="url(#mask0_776_22934)">
<path d="M12.4559 38.3877L12.3678 38.3034C12.0229 37.9385 11.8193 37.3719 11.8193 36.6381V36.8108V10.5993V10.7729C11.8193 9.97844 12.0567 9.37987 12.4545 9.021L27.1387 23.7048L12.4559 38.3877Z" fill="url(#paint1_linear_776_22934)"/>
</g>
<mask id="mask1_776_22934" style="mask-type:alpha" maskUnits="userSpaceOnUse" x="27" y="18" width="13" height="11">
<path d="M32.0341 28.6007L27.1387 23.7045L32.0336 18.8091L37.9433 22.1665C38.6937 22.5929 39.1151 23.1425 39.1855 23.704C39.1855 23.7045 39.1855 23.7055 39.1855 23.7063C39.1151 24.2665 38.6937 24.8166 37.9433 25.2429L32.0341 28.6007Z" fill="white"/>
</mask>
<g mask="url(#mask1_776_22934)">
<path d="M32.0341 28.6007L27.1387 23.7045L32.0336 18.8091L37.9433 22.1665C38.6937 22.5929 39.1151 23.1425 39.1855 23.704C39.1855 23.7045 39.1855 23.7055 39.1855 23.7063C39.1151 24.2665 38.6937 24.8166 37.9433 25.2429L32.0341 28.6007Z" fill="url(#paint2_linear_776_22934)"/>
</g>
<mask id="mask2_776_22934" style="mask-type:alpha" maskUnits="userSpaceOnUse" x="12" y="23" width="21" height="16">
<path d="M13.503 38.7731C13.0928 38.7736 12.7349 38.6398 12.4558 38.3879L27.1386 23.7046L32.034 28.6009L14.8308 38.3755C14.3548 38.6453 13.9039 38.7731 13.503 38.7731ZM12.4529 38.5581C12.4266 38.5342 12.4008 38.5089 12.3755 38.4826L12.4529 38.5581Z" fill="white"/>
</mask>
<g mask="url(#mask2_776_22934)">
<path d="M13.503 38.7731C13.0928 38.7736 12.7349 38.6398 12.4558 38.3879L27.1386 23.7046L32.034 28.6009L14.8308 38.3755C14.3548 38.6453 13.9039 38.7731 13.503 38.7731ZM12.4529 38.5581C12.4266 38.5342 12.4008 38.5089 12.3755 38.4826L12.4529 38.5581Z" fill="url(#paint3_linear_776_22934)"/>
</g>
<mask id="mask3_776_22934" style="mask-type:alpha" maskUnits="userSpaceOnUse" x="12" y="8" width="21" height="16">
<path d="M27.1388 23.7047L12.4546 9.02075C12.7337 8.76937 13.0911 8.63604 13.5009 8.63604C13.9028 8.63604 14.3541 8.76428 14.831 9.03462L32.0337 18.8092L27.1388 23.7047ZM14.831 8.86158C14.3541 8.59112 13.9028 8.46289 13.5009 8.46289C13.499 8.46289 13.4977 8.46289 13.4958 8.46289C13.4981 8.46289 13.4999 8.46289 13.5028 8.46289C13.9037 8.46289 14.3545 8.59112 14.831 8.86158Z" fill="white"/>
</mask>
<g mask="url(#mask3_776_22934)">
<path d="M27.1388 23.7047L12.4546 9.02075C12.7337 8.76937 13.0911 8.63604 13.5009 8.63604C13.9028 8.63604 14.3541 8.76428 14.831 9.03462L32.0337 18.8092L27.1388 23.7047ZM14.831 8.86158C14.3541 8.59112 13.9028 8.46289 13.5009 8.46289C13.499 8.46289 13.4977 8.46289 13.4958 8.46289C13.4981 8.46289 13.4999 8.46289 13.5028 8.46289C13.9037 8.46289 14.3545 8.59112 14.831 8.86158Z" fill="url(#paint4_linear_776_22934)"/>
</g>
<mask id="mask4_776_22934" style="mask-type:alpha" maskUnits="userSpaceOnUse" x="12" y="28" width="21" height="11">
<path d="M13.5039 38.9469C13.0937 38.9469 12.7353 38.8131 12.4562 38.5613C12.4553 38.5604 12.4534 38.5595 12.4521 38.5585L12.3756 38.484C12.3732 38.4816 12.371 38.4789 12.3682 38.4762L12.4562 38.3881C12.7353 38.64 13.0932 38.7738 13.5034 38.7733C13.9043 38.7733 14.3552 38.6455 14.8312 38.3757L32.0344 28.6011L32.1446 28.7113L32.033 28.7747L14.8312 38.5488C14.3974 38.7946 13.9849 38.9229 13.6122 38.9442C13.5756 38.946 13.5395 38.9469 13.5039 38.9469Z" fill="white"/>
</mask>
<g mask="url(#mask4_776_22934)">
<path d="M13.5039 38.9469C13.0937 38.9469 12.7353 38.8131 12.4562 38.5613C12.4553 38.5604 12.4534 38.5595 12.4521 38.5585L12.3756 38.484C12.3732 38.4816 12.371 38.4789 12.3682 38.4762L12.4562 38.3881C12.7353 38.64 13.0932 38.7738 13.5034 38.7733C13.9043 38.7733 14.3552 38.6455 14.8312 38.3757L32.0344 28.6011L32.1446 28.7113L32.033 28.7747L14.8312 38.5488C14.3974 38.7946 13.9849 38.9229 13.6122 38.9442C13.5756 38.946 13.5395 38.9469 13.5039 38.9469Z" fill="url(#paint5_linear_776_22934)"/>
</g>
<mask id="mask5_776_22934" style="mask-type:alpha" maskUnits="userSpaceOnUse" x="11" y="36" width="2" height="3">
<path d="M12.3678 38.4762C12.0229 38.1113 11.8193 37.5451 11.8193 36.8109V36.6382C11.8193 37.372 12.0229 37.9386 12.3678 38.3035L12.4559 38.3878L12.3678 38.4762Z" fill="white"/>
</mask>
<g mask="url(#mask5_776_22934)">
<path d="M12.3678 38.4762C12.0229 38.1113 11.8193 37.5451 11.8193 36.8109V36.6382C11.8193 37.372 12.0229 37.9386 12.3678 38.3035L12.4559 38.3878L12.3678 38.4762Z" fill="url(#paint6_linear_776_22934)"/>
</g>
<mask id="mask6_776_22934" style="mask-type:alpha" maskUnits="userSpaceOnUse" x="32" y="23" width="8" height="6">
<path d="M32.1444 28.7112L32.0342 28.601L37.9434 25.2431C38.6938 24.8168 39.1152 24.2668 39.1856 23.7065C39.1856 23.9122 39.1397 24.1177 39.0486 24.3177C38.8647 24.7209 38.4963 25.102 37.9434 25.4163L32.1444 28.7112Z" fill="white"/>
</mask>
<g mask="url(#mask6_776_22934)">
<path d="M32.1444 28.7112L32.0342 28.601L37.9434 25.2431C38.6938 24.8168 39.1152 24.2668 39.1856 23.7065C39.1856 23.9122 39.1397 24.1177 39.0486 24.3177C38.8647 24.7209 38.4963 25.102 37.9434 25.4163L32.1444 28.7112Z" fill="url(#paint7_linear_776_22934)"/>
</g>
<path d="M39.1857 23.7047C39.1852 23.0847 38.7709 22.4644 37.9435 21.994C38.7718 22.4644 39.1866 23.0847 39.1857 23.7047Z" fill="#404040"/>
<mask id="mask7_776_22934" style="mask-type:alpha" maskUnits="userSpaceOnUse" x="32" y="18" width="8" height="6">
<path d="M39.1856 23.7044C39.1152 23.1428 38.6938 22.5933 37.9434 22.1668L32.0337 18.8094L32.1439 18.6992L37.9434 21.9941C38.7707 22.4645 39.1851 23.0844 39.1856 23.7044Z" fill="white"/>
</mask>
<g mask="url(#mask7_776_22934)">
<path d="M39.1856 23.7044C39.1152 23.1428 38.6938 22.5933 37.9434 22.1668L32.0337 18.8094L32.1439 18.6992L37.9434 21.9941C38.7707 22.4645 39.1851 23.0844 39.1856 23.7044Z" fill="url(#paint8_linear_776_22934)"/>
</g>
<path d="M11.8247 10.3879C11.8933 9.17032 12.5554 8.46703 13.4919 8.46289C13.0858 8.46526 12.7322 8.59859 12.4553 8.84807L12.452 8.85091C12.4229 8.87722 12.3951 8.90508 12.3677 8.93376C12.0566 9.26289 11.8604 9.75588 11.8247 10.3879Z" fill="#404040"/>
<mask id="mask8_776_22934" style="mask-type:alpha" maskUnits="userSpaceOnUse" x="11" y="8" width="2" height="3">
<path d="M11.8193 10.7726V10.5994C11.8193 10.597 11.8193 10.5951 11.8193 10.5929V10.5915C11.8193 10.5262 11.8211 10.4623 11.8244 10.4003V10.3975L11.8248 10.3947V10.3892V10.3877C11.8604 9.75575 12.0567 9.26271 12.3678 8.93359L12.4545 9.02058C12.0567 9.37945 11.8193 9.97795 11.8193 10.7726Z" fill="white"/>
</mask>
<g mask="url(#mask8_776_22934)">
<path d="M11.8193 10.7726V10.5994C11.8193 10.597 11.8193 10.5951 11.8193 10.5929V10.5915C11.8193 10.5262 11.8211 10.4623 11.8244 10.4003V10.3975L11.8248 10.3947V10.3892V10.3877C11.8604 9.75575 12.0567 9.26271 12.3678 8.93359L12.4545 9.02058C12.0567 9.37945 11.8193 9.97795 11.8193 10.7726Z" fill="url(#paint9_linear_776_22934)"/>
</g>
<mask id="mask9_776_22934" style="mask-type:alpha" maskUnits="userSpaceOnUse" x="12" y="8" width="21" height="11">
<path d="M32.0339 18.8092L14.8312 9.03462C14.3543 8.76428 13.903 8.63604 13.5011 8.63604C13.0914 8.63604 12.7339 8.76938 12.4548 9.02075L12.3682 8.93376C12.3955 8.90508 12.4233 8.87723 12.4524 8.85092C12.4534 8.84997 12.4548 8.84902 12.4557 8.84807C12.7326 8.59859 13.0863 8.46526 13.4923 8.46289C13.4932 8.46289 13.4946 8.46289 13.496 8.46289C13.4979 8.46289 13.4992 8.46289 13.5011 8.46289C13.903 8.46289 14.3543 8.59112 14.8312 8.86158L32.1446 18.6986L32.0339 18.8092Z" fill="white"/>
</mask>
<g mask="url(#mask9_776_22934)">
<path d="M32.0339 18.8092L14.8312 9.03462C14.3543 8.76428 13.903 8.63604 13.5011 8.63604C13.0914 8.63604 12.7339 8.76938 12.4548 9.02075L12.3682 8.93376C12.3955 8.90508 12.4233 8.87723 12.4524 8.85092C12.4534 8.84997 12.4548 8.84902 12.4557 8.84807C12.7326 8.59859 13.0863 8.46526 13.4923 8.46289C13.4932 8.46289 13.4946 8.46289 13.496 8.46289C13.4979 8.46289 13.4992 8.46289 13.5011 8.46289C13.903 8.46289 14.3543 8.59112 14.8312 8.86158L32.1446 18.6986L32.0339 18.8092Z" fill="url(#paint10_linear_776_22934)"/>
</g>
<defs>
<linearGradient id="paint0_linear_776_22934" x1="80.0043" y1="0" x2="80.0043" y2="47.4065" gradientUnits="userSpaceOnUse">
<stop stop-color="#FFE02E"/>
<stop offset="0.4" stop-color="#FA8AE5"/>
<stop offset="0.56" stop-color="#BDA9EC"/>
<stop offset="0.77" stop-color="#70D2F6"/>
<stop offset="0.92" stop-color="#40EBFC"/>
<stop offset="1" stop-color="#0FF2F2"/>
</linearGradient>
<linearGradient id="paint1_linear_776_22934" x1="21.2091" y1="10.3228" x2="8.55759" y2="22.9743" gradientUnits="userSpaceOnUse">
<stop stop-color="#00A0FF"/>
<stop offset="0.00657445" stop-color="#00A1FF"/>
<stop offset="0.2601" stop-color="#00BEFF"/>
<stop offset="0.5122" stop-color="#00D2FF"/>
<stop offset="0.7604" stop-color="#00DFFF"/>
<stop offset="1" stop-color="#00E3FF"/>
</linearGradient>
<linearGradient id="paint2_linear_776_22934" x1="40.0998" y1="23.7052" x2="11.4219" y2="23.7052" gradientUnits="userSpaceOnUse">
<stop stop-color="#FFE000"/>
<stop offset="0.4087" stop-color="#FFBD00"/>
<stop offset="0.7754" stop-color="#FFA500"/>
<stop offset="1" stop-color="#FF9C00"/>
</linearGradient>
<linearGradient id="paint3_linear_776_22934" x1="29.4244" y1="28.3796" x2="7.8309" y2="49.9734" gradientUnits="userSpaceOnUse">
<stop stop-color="#FF3A44"/>
<stop offset="1" stop-color="#C31162"/>
</linearGradient>
<linearGradient id="paint4_linear_776_22934" x1="8.64858" y1="6.57121" x2="18.2794" y2="16.2021" gradientUnits="userSpaceOnUse">
<stop stop-color="#32A071"/>
<stop offset="0.0685" stop-color="#2DA771"/>
<stop offset="0.4762" stop-color="#15CF74"/>
<stop offset="0.8009" stop-color="#06E775"/>
<stop offset="1" stop-color="#00F076"/>
</linearGradient>
<linearGradient id="paint5_linear_776_22934" x1="29.4247" y1="31.7628" x2="12.2475" y2="48.9401" gradientUnits="userSpaceOnUse">
<stop stop-color="#CC2E36"/>
<stop offset="1" stop-color="#9C0E4E"/>
</linearGradient>
<linearGradient id="paint6_linear_776_22934" x1="13.7808" y1="10.3229" x2="2.64272" y2="21.461" gradientUnits="userSpaceOnUse">
<stop stop-color="#008DE0"/>
<stop offset="0.00657445" stop-color="#008DE0"/>
<stop offset="0.2601" stop-color="#00A7E0"/>
<stop offset="0.5122" stop-color="#00B8E0"/>
<stop offset="0.7604" stop-color="#00C4E0"/>
<stop offset="1" stop-color="#00C7E0"/>
</linearGradient>
<linearGradient id="paint7_linear_776_22934" x1="40.0999" y1="23.7055" x2="11.422" y2="23.7055" gradientUnits="userSpaceOnUse">
<stop stop-color="#E0C500"/>
<stop offset="0.4087" stop-color="#E0A600"/>
<stop offset="0.7754" stop-color="#E09100"/>
<stop offset="1" stop-color="#E08900"/>
</linearGradient>
<linearGradient id="paint8_linear_776_22934" x1="40.0999" y1="23.7056" x2="11.422" y2="23.7056" gradientUnits="userSpaceOnUse">
<stop stop-color="#FFE840"/>
<stop offset="0.4087" stop-color="#FFCE40"/>
<stop offset="0.7754" stop-color="#FFBC40"/>
<stop offset="1" stop-color="#FFB540"/>
</linearGradient>
<linearGradient id="paint9_linear_776_22934" x1="17.9617" y1="10.3426" x2="5.32041" y2="13.7305" gradientUnits="userSpaceOnUse">
<stop stop-color="#40B8FF"/>
<stop offset="0.00657445" stop-color="#40B9FF"/>
<stop offset="0.2601" stop-color="#40CEFF"/>
<stop offset="0.5122" stop-color="#40DDFF"/>
<stop offset="0.7604" stop-color="#40E7FF"/>
<stop offset="1" stop-color="#40EAFF"/>
</linearGradient>
<linearGradient id="paint10_linear_776_22934" x1="8.64876" y1="9.96103" x2="16.3193" y2="17.6315" gradientUnits="userSpaceOnUse">
<stop stop-color="#65B895"/>
<stop offset="0.0685" stop-color="#62BD95"/>
<stop offset="0.4762" stop-color="#50DB97"/>
<stop offset="0.8009" stop-color="#44ED98"/>
<stop offset="1" stop-color="#40F498"/>
</linearGradient>
</defs>
</svg>
