<svg width="323" height="350" viewBox="0 0 323 350" fill="none" xmlns="http://www.w3.org/2000/svg">
<g clip-path="url(#clip0_776_30515)">
<g filter="url(#filter0_f_776_30515)">
<path d="M379.666 238.585L213.537 405.737C209.489 409.81 202.908 409.81 198.86 405.737L32.7313 238.585C28.6833 234.512 28.6833 227.891 32.7313 223.818L112.795 143.261C114.749 141.295 117.381 140.191 120.133 140.191H292.244C294.996 140.191 297.628 141.295 299.582 143.241L379.646 223.798C383.694 227.871 383.694 234.492 379.646 238.565L379.666 238.585Z" fill="url(#paint0_linear_776_30515)"/>
</g>
<path d="M32.3066 60.9609C32.3066 42.5975 47.1932 27.7109 65.5566 27.7109H260.402C278.765 27.7109 293.652 42.5975 293.652 60.9609V561.041C293.652 579.404 278.765 594.291 260.402 594.291H65.5567C47.1932 594.291 32.3066 579.404 32.3066 561.041V60.9609Z" fill="#17072B"/>
<path d="M48.3465 93.8651L43.2818 85.8213H46.2052L50.134 92.2638H48.4582L52.387 85.8213H55.2731L50.1526 93.8651H48.3465ZM48.0113 98.9111V92.5059H50.5622V98.9111H48.0113ZM58.1067 99.0973C57.2005 99.0973 56.3812 98.8925 55.6488 98.4829C54.9289 98.0608 54.3516 97.496 53.9172 96.7885C53.4951 96.0685 53.2841 95.2678 53.2841 94.3865C53.2841 93.5051 53.4951 92.7169 53.9172 92.0217C54.3392 91.3142 54.9165 90.7556 55.6488 90.3459C56.3812 89.9239 57.1943 89.7129 58.0881 89.7129C59.0066 89.7129 59.8259 89.9239 60.5459 90.3459C61.2783 90.7556 61.8555 91.3142 62.2776 92.0217C62.6996 92.7169 62.9106 93.5051 62.9106 94.3865C62.9106 95.2678 62.6996 96.0685 62.2776 96.7885C61.8555 97.496 61.2783 98.0608 60.5459 98.4829C59.8259 98.8925 59.0129 99.0973 58.1067 99.0973ZM58.0881 96.8257C58.5474 96.8257 58.9508 96.7264 59.2984 96.5278C59.6583 96.3167 59.9314 96.0312 60.1176 95.6713C60.3163 95.2989 60.4156 94.8768 60.4156 94.4051C60.4156 93.9334 60.3163 93.5175 60.1176 93.1576C59.919 92.7976 59.6459 92.5183 59.2984 92.3197C58.9508 92.1086 58.5474 92.0031 58.0881 92.0031C57.6412 92.0031 57.244 92.1086 56.8964 92.3197C56.5488 92.5183 56.2757 92.7976 56.0771 93.1576C55.8785 93.5175 55.7792 93.9334 55.7792 94.4051C55.7792 94.8768 55.8785 95.2989 56.0771 95.6713C56.2757 96.0312 56.5488 96.3167 56.8964 96.5278C57.244 96.7264 57.6412 96.8257 58.0881 96.8257ZM68.2236 99.0973C67.4291 99.0973 66.7216 98.9298 66.1009 98.5946C65.4927 98.2594 65.0147 97.7939 64.6672 97.1981C64.3196 96.6023 64.1458 95.9133 64.1458 95.1313V89.9177H66.6037V95.0754C66.6037 95.4478 66.6657 95.7706 66.7899 96.0437C66.914 96.3043 67.1002 96.5029 67.3485 96.6395C67.5967 96.776 67.8884 96.8443 68.2236 96.8443C68.7325 96.8443 69.1298 96.6891 69.4153 96.3788C69.7008 96.0685 69.8435 95.634 69.8435 95.0754V89.9177H72.2828V95.1313C72.2828 95.9257 72.109 96.6209 71.7614 97.2167C71.4262 97.8126 70.9483 98.2781 70.3277 98.6132C69.7194 98.936 69.018 99.0973 68.2236 99.0973ZM74.1321 98.9111V89.9177H76.5713V98.9111H74.1321ZM76.5713 93.9396L75.6217 93.3065C75.7334 92.2017 76.0562 91.3328 76.5899 90.6997C77.1237 90.0542 77.8933 89.7315 78.8988 89.7315C79.3333 89.7315 79.7243 89.806 80.0719 89.9549C80.4195 90.0915 80.736 90.3211 81.0215 90.6439L79.4947 92.3941C79.3581 92.2452 79.1905 92.1335 78.9919 92.059C78.8057 91.9845 78.5885 91.9473 78.3402 91.9473C77.8189 91.9473 77.3906 92.1148 77.0554 92.45C76.7327 92.7727 76.5713 93.2693 76.5713 93.9396ZM89.4174 102.896C88.4615 102.896 87.6174 102.722 86.8851 102.374C86.1527 102.039 85.5692 101.561 85.1348 100.941L86.6802 99.3953C87.0278 99.8049 87.4126 100.115 87.8347 100.326C88.2691 100.55 88.7905 100.661 89.3988 100.661C90.156 100.661 90.7518 100.469 91.1863 100.084C91.6332 99.6994 91.8566 99.1656 91.8566 98.4829V96.2299L92.2662 94.2561L91.8752 92.2824V89.9177H94.2958V98.4456C94.2958 99.3394 94.0848 100.115 93.6627 100.773C93.2531 101.443 92.6821 101.965 91.9497 102.337C91.2173 102.71 90.3732 102.896 89.4174 102.896ZM89.3057 98.6691C88.4988 98.6691 87.7726 98.4767 87.1271 98.0919C86.4816 97.6946 85.9727 97.1546 85.6003 96.4719C85.2403 95.7892 85.0603 95.0258 85.0603 94.1817C85.0603 93.3375 85.2403 92.5803 85.6003 91.91C85.9727 91.2397 86.4816 90.7121 87.1271 90.3273C87.7726 89.9301 88.4988 89.7315 89.3057 89.7315C89.976 89.7315 90.5656 89.8618 91.0746 90.1225C91.5959 90.3832 92.0056 90.7432 92.3035 91.2025C92.6014 91.6493 92.7628 92.1769 92.7876 92.7852V95.6154C92.7628 96.2112 92.5952 96.745 92.2849 97.2167C91.9869 97.676 91.5773 98.036 91.0559 98.2967C90.547 98.5449 89.9636 98.6691 89.3057 98.6691ZM89.7898 96.4533C90.2367 96.4533 90.6215 96.3602 90.9442 96.174C91.2794 95.9754 91.5401 95.7085 91.7263 95.3733C91.9125 95.0258 92.0056 94.6347 92.0056 94.2003C92.0056 93.7534 91.9125 93.3624 91.7263 93.0272C91.5401 92.6921 91.2794 92.4314 90.9442 92.2452C90.6215 92.0466 90.2367 91.9473 89.7898 91.9473C89.3429 91.9473 88.9519 92.0466 88.6167 92.2452C88.2816 92.4314 88.0209 92.6983 87.8347 93.0458C87.6485 93.381 87.5554 93.7658 87.5554 94.2003C87.5554 94.6223 87.6485 95.0071 87.8347 95.3547C88.0209 95.6899 88.2816 95.9568 88.6167 96.1554C88.9519 96.354 89.3429 96.4533 89.7898 96.4533ZM100.647 99.0973C99.7037 99.0973 98.8658 98.8987 98.1334 98.5015C97.401 98.0919 96.8176 97.5333 96.3831 96.8257C95.9611 96.1181 95.7501 95.3113 95.7501 94.4051C95.7501 93.5113 95.9549 92.7169 96.3645 92.0217C96.7866 91.3142 97.3576 90.7556 98.0776 90.3459C98.7975 89.9239 99.5982 89.7129 100.48 89.7129C101.348 89.7129 102.112 89.9115 102.77 90.3087C103.44 90.6935 103.961 91.2273 104.334 91.91C104.719 92.5803 104.911 93.3438 104.911 94.2003C104.911 94.3616 104.899 94.5292 104.874 94.703C104.861 94.8644 104.83 95.0506 104.781 95.2616L97.221 95.2802V93.4555L103.645 93.4369L102.658 94.2003C102.633 93.6665 102.534 93.2196 102.36 92.8596C102.199 92.4996 101.957 92.2266 101.634 92.0404C101.324 91.8417 100.939 91.7424 100.48 91.7424C99.9954 91.7424 99.5734 91.8542 99.2134 92.0776C98.8534 92.2886 98.5741 92.5927 98.3755 92.99C98.1893 93.3748 98.0962 93.8341 98.0962 94.3679C98.0962 94.914 98.1955 95.392 98.3941 95.8016C98.6051 96.1988 98.903 96.5092 99.2879 96.7326C99.6727 96.9436 100.12 97.0491 100.629 97.0491C101.088 97.0491 101.504 96.9747 101.876 96.8257C102.248 96.6643 102.571 96.4285 102.844 96.1181L104.278 97.5519C103.844 98.0608 103.31 98.4456 102.677 98.7063C102.056 98.967 101.38 99.0973 100.647 99.0973ZM112.378 98.9111V93.7534C112.378 93.2196 112.21 92.7852 111.875 92.45C111.54 92.1148 111.106 91.9473 110.572 91.9473C110.224 91.9473 109.914 92.0217 109.641 92.1707C109.368 92.3197 109.151 92.5307 108.989 92.8038C108.84 93.0769 108.766 93.3934 108.766 93.7534L107.816 93.2693C107.816 92.5617 107.965 91.9473 108.263 91.4259C108.573 90.8921 108.995 90.4763 109.529 90.1784C110.075 89.8804 110.69 89.7315 111.373 89.7315C112.03 89.7315 112.62 89.8991 113.141 90.2342C113.663 90.557 114.072 90.9852 114.37 91.519C114.668 92.0404 114.817 92.6052 114.817 93.2134V98.9111H112.378ZM106.327 98.9111V89.9177H108.766V98.9111H106.327ZM120.487 99.0973C119.656 99.0973 118.911 98.8925 118.253 98.4829C117.595 98.0732 117.074 97.5146 116.689 96.8071C116.317 96.0995 116.13 95.3051 116.13 94.4237C116.13 93.53 116.317 92.7293 116.689 92.0217C117.074 91.3142 117.589 90.7556 118.234 90.3459C118.892 89.9363 119.643 89.7315 120.487 89.7315C121.133 89.7315 121.71 89.8618 122.219 90.1225C122.74 90.3832 123.156 90.7494 123.467 91.2211C123.789 91.6804 123.963 92.2017 123.988 92.7852V95.9878C123.963 96.5712 123.796 97.0988 123.485 97.5705C123.175 98.0422 122.759 98.4146 122.238 98.6877C121.716 98.9608 121.133 99.0973 120.487 99.0973ZM120.897 96.8443C121.356 96.8443 121.754 96.745 122.089 96.5464C122.436 96.3354 122.703 96.0499 122.889 95.6899C123.088 95.3175 123.187 94.8892 123.187 94.4051C123.187 93.9334 123.088 93.5175 122.889 93.1576C122.703 92.7852 122.436 92.4996 122.089 92.301C121.754 92.09 121.363 91.9845 120.916 91.9845C120.456 91.9845 120.053 92.09 119.705 92.301C119.37 92.5121 119.103 92.7976 118.905 93.1576C118.719 93.5175 118.625 93.9334 118.625 94.4051C118.625 94.8892 118.719 95.3175 118.905 95.6899C119.103 96.0499 119.376 96.3354 119.724 96.5464C120.072 96.745 120.463 96.8443 120.897 96.8443ZM125.478 98.9111H123.057V96.4905L123.448 94.2934L123.038 92.1335V85.4489H125.478V98.9111ZM131.844 99.0973C130.9 99.0973 130.062 98.8987 129.33 98.5015C128.598 98.0919 128.014 97.5333 127.58 96.8257C127.158 96.1181 126.947 95.3113 126.947 94.4051C126.947 93.5113 127.151 92.7169 127.561 92.0217C127.983 91.3142 128.554 90.7556 129.274 90.3459C129.994 89.9239 130.795 89.7129 131.676 89.7129C132.545 89.7129 133.308 89.9115 133.966 90.3087C134.637 90.6935 135.158 91.2273 135.53 91.91C135.915 92.5803 136.108 93.3438 136.108 94.2003C136.108 94.3616 136.095 94.5292 136.07 94.703C136.058 94.8644 136.027 95.0506 135.977 95.2616L128.418 95.2802V93.4555L134.841 93.4369L133.855 94.2003C133.83 93.6665 133.73 93.2196 133.557 92.8596C133.395 92.4996 133.153 92.2266 132.83 92.0404C132.52 91.8417 132.135 91.7424 131.676 91.7424C131.192 91.7424 130.77 91.8542 130.41 92.0776C130.05 92.2886 129.771 92.5927 129.572 92.99C129.386 93.3748 129.293 93.8341 129.293 94.3679C129.293 94.914 129.392 95.392 129.591 95.8016C129.802 96.1988 130.1 96.5092 130.484 96.7326C130.869 96.9436 131.316 97.0491 131.825 97.0491C132.284 97.0491 132.7 96.9747 133.073 96.8257C133.445 96.6643 133.768 96.4285 134.041 96.1181L135.475 97.5519C135.04 98.0608 134.506 98.4456 133.873 98.7063C133.253 98.967 132.576 99.0973 131.844 99.0973ZM137.523 98.9111V89.9177H139.962V98.9111H137.523ZM139.962 93.9396L139.013 93.3065C139.124 92.2017 139.447 91.3328 139.981 90.6997C140.515 90.0542 141.284 89.7315 142.29 89.7315C142.724 89.7315 143.115 89.806 143.463 89.9549C143.81 90.0915 144.127 90.3211 144.412 90.6439L142.886 92.3941C142.749 92.2452 142.581 92.1335 142.383 92.059C142.197 91.9845 141.979 91.9473 141.731 91.9473C141.21 91.9473 140.782 92.1148 140.446 92.45C140.124 92.7727 139.962 93.2693 139.962 93.9396ZM149.047 98.9111V89.9177H151.505V98.9111H149.047ZM150.276 88.4653C149.879 88.4653 149.55 88.335 149.289 88.0743C149.028 87.8012 148.898 87.466 148.898 87.0688C148.898 86.684 149.028 86.355 149.289 86.082C149.55 85.8089 149.879 85.6723 150.276 85.6723C150.686 85.6723 151.015 85.8089 151.263 86.082C151.524 86.355 151.654 86.684 151.654 87.0688C151.654 87.466 151.524 87.8012 151.263 88.0743C151.015 88.335 150.686 88.4653 150.276 88.4653ZM157.371 99.0973C156.539 99.0973 155.795 98.8925 155.137 98.4829C154.479 98.0732 153.957 97.5146 153.573 96.8071C153.2 96.0995 153.014 95.3051 153.014 94.4237C153.014 93.53 153.2 92.7293 153.573 92.0217C153.957 91.3142 154.473 90.7556 155.118 90.3459C155.776 89.9363 156.527 89.7315 157.371 89.7315C158.017 89.7315 158.594 89.8618 159.103 90.1225C159.624 90.3832 160.04 90.7494 160.35 91.2211C160.673 91.6804 160.847 92.2017 160.872 92.7852V95.9878C160.847 96.5712 160.679 97.0988 160.369 97.5705C160.059 98.0422 159.643 98.4146 159.121 98.6877C158.6 98.9608 158.017 99.0973 157.371 99.0973ZM157.781 96.8443C158.24 96.8443 158.637 96.745 158.972 96.5464C159.32 96.3354 159.587 96.0499 159.773 95.6899C159.972 95.3175 160.071 94.8892 160.071 94.4051C160.071 93.9334 159.972 93.5175 159.773 93.1576C159.587 92.7852 159.32 92.4996 158.972 92.301C158.637 92.09 158.246 91.9845 157.799 91.9845C157.34 91.9845 156.937 92.09 156.589 92.301C156.254 92.5121 155.987 92.7976 155.788 93.1576C155.602 93.5175 155.509 93.9334 155.509 94.4051C155.509 94.8892 155.602 95.3175 155.788 95.6899C155.987 96.0499 156.26 96.3354 156.608 96.5464C156.955 96.745 157.346 96.8443 157.781 96.8443ZM162.361 98.9111H159.941V96.4905L160.332 94.2934L159.922 92.1335V85.4489H162.361V98.9111ZM168.727 99.0973C167.784 99.0973 166.946 98.8987 166.214 98.5015C165.481 98.0919 164.898 97.5333 164.463 96.8257C164.041 96.1181 163.83 95.3113 163.83 94.4051C163.83 93.5113 164.035 92.7169 164.445 92.0217C164.867 91.3142 165.438 90.7556 166.158 90.3459C166.878 89.9239 167.678 89.7129 168.56 89.7129C169.429 89.7129 170.192 89.9115 170.85 90.3087C171.52 90.6935 172.042 91.2273 172.414 91.91C172.799 92.5803 172.991 93.3438 172.991 94.2003C172.991 94.3616 172.979 94.5292 172.954 94.703C172.942 94.8644 172.911 95.0506 172.861 95.2616L165.301 95.2802V93.4555L171.725 93.4369L170.738 94.2003C170.713 93.6665 170.614 93.2196 170.44 92.8596C170.279 92.4996 170.037 92.2266 169.714 92.0404C169.404 91.8417 169.019 91.7424 168.56 91.7424C168.076 91.7424 167.653 91.8542 167.293 92.0776C166.933 92.2886 166.654 92.5927 166.456 92.99C166.269 93.3748 166.176 93.8341 166.176 94.3679C166.176 94.914 166.276 95.392 166.474 95.8016C166.685 96.1988 166.983 96.5092 167.368 96.7326C167.753 96.9436 168.2 97.0491 168.709 97.0491C169.168 97.0491 169.584 96.9747 169.956 96.8257C170.329 96.6643 170.651 96.4285 170.924 96.1181L172.358 97.5519C171.924 98.0608 171.39 98.4456 170.757 98.7063C170.136 98.967 169.46 99.0973 168.727 99.0973ZM180.458 98.9111V93.7534C180.458 93.2196 180.291 92.7852 179.955 92.45C179.62 92.1148 179.186 91.9473 178.652 91.9473C178.304 91.9473 177.994 92.0217 177.721 92.1707C177.448 92.3197 177.231 92.5307 177.069 92.8038C176.92 93.0769 176.846 93.3934 176.846 93.7534L175.896 93.2693C175.896 92.5617 176.045 91.9473 176.343 91.4259C176.653 90.8921 177.075 90.4763 177.609 90.1784C178.155 89.8804 178.77 89.7315 179.453 89.7315C180.111 89.7315 180.7 89.8991 181.222 90.2342C181.743 90.557 182.153 90.9852 182.45 91.519C182.748 92.0404 182.897 92.6052 182.897 93.2134V98.9111H180.458ZM174.407 98.9111V89.9177H176.846V98.9111H174.407ZM185.982 98.9111V86.1751H188.421V98.9111H185.982ZM183.878 92.059V89.9177H190.525V92.059H183.878ZM191.804 98.9111V89.9177H194.262V98.9111H191.804ZM193.033 88.4653C192.636 88.4653 192.307 88.335 192.046 88.0743C191.785 87.8012 191.655 87.466 191.655 87.0688C191.655 86.684 191.785 86.355 192.046 86.082C192.307 85.8089 192.636 85.6723 193.033 85.6723C193.443 85.6723 193.771 85.8089 194.02 86.082C194.28 86.355 194.411 86.684 194.411 87.0688C194.411 87.466 194.28 87.8012 194.02 88.0743C193.771 88.335 193.443 88.4653 193.033 88.4653ZM197.651 98.9111V86.1751H200.091V98.9111H197.651ZM195.547 92.059V89.9177H202.195V92.059H195.547ZM206.304 98.9856L202.542 89.9177H205.186L207.682 96.8443H206.788L209.376 89.9177H212.039L208.035 98.9856H206.304ZM203.809 102.672L206.546 96.8816L208.035 98.9856L206.397 102.672H203.809Z" fill="white"/>
<path opacity="0.1" d="M273.036 81.9082C277.994 81.9082 282.014 85.9278 282.014 90.8857C282.014 95.8439 277.994 99.8633 273.036 99.8633C268.078 99.8631 264.059 95.8437 264.059 90.8857C264.059 85.9279 268.078 81.9084 273.036 81.9082Z" stroke="white" stroke-width="1.995"/>
<path d="M273.037 81.9086C275.177 81.9086 277.246 82.6731 278.872 84.0641C280.499 85.4552 281.574 87.3814 281.906 89.4955C282.237 91.6097 281.803 93.7727 280.68 95.5947C279.558 97.4167 277.822 98.7779 275.784 99.4328" stroke="url(#paint1_linear_776_30515)" stroke-width="1.995" stroke-linecap="round"/>
<path d="M47.1707 124.993C46.6387 124.993 46.1457 124.897 45.6918 124.705C45.2378 124.507 44.8406 124.234 44.5001 123.886C44.1667 123.538 43.9078 123.134 43.7234 122.673C43.5389 122.212 43.4467 121.719 43.4467 121.194C43.4467 120.662 43.5389 120.166 43.7234 119.705C43.9078 119.243 44.1667 118.843 44.5001 118.502C44.8406 118.155 45.2343 117.885 45.6811 117.694C46.1351 117.495 46.6281 117.396 47.1601 117.396C47.7417 117.396 48.2525 117.495 48.6923 117.694C49.132 117.892 49.5222 118.162 49.8627 118.502L49.1711 119.194C48.937 118.931 48.6497 118.726 48.3092 118.577C47.9758 118.428 47.5928 118.353 47.1601 118.353C46.77 118.353 46.4117 118.424 46.0855 118.566C45.7592 118.701 45.4754 118.896 45.2343 119.151C44.9931 119.407 44.8051 119.708 44.6703 120.056C44.5427 120.403 44.4788 120.783 44.4788 121.194C44.4788 121.606 44.5427 121.985 44.6703 122.333C44.8051 122.68 44.9931 122.982 45.2343 123.237C45.4754 123.492 45.7592 123.691 46.0855 123.833C46.4117 123.968 46.77 124.035 47.1601 124.035C47.6212 124.035 48.0219 123.961 48.3624 123.812C48.7029 123.656 48.9902 123.446 49.2243 123.184L49.9159 123.865C49.5754 124.219 49.1746 124.496 48.7135 124.695C48.2596 124.893 47.7453 124.993 47.1707 124.993ZM54.2168 124.886V121.939C54.2168 121.556 54.0962 121.24 53.8551 120.992C53.6139 120.744 53.3018 120.62 52.9187 120.62C52.6634 120.62 52.4364 120.676 52.2378 120.79C52.0392 120.903 51.8831 121.059 51.7696 121.258C51.6561 121.457 51.5994 121.684 51.5994 121.939L51.2057 121.716C51.2057 121.332 51.2908 120.992 51.4611 120.694C51.6313 120.396 51.8689 120.162 52.1739 119.992C52.479 119.814 52.823 119.726 53.206 119.726C53.5891 119.726 53.926 119.811 54.2168 119.981C54.5147 120.151 54.7488 120.389 54.9191 120.694C55.0893 120.999 55.1744 121.35 55.1744 121.747V124.886H54.2168ZM50.6418 124.886V117.289H51.5994V124.886H50.6418ZM58.4473 124.993C57.9508 124.993 57.5039 124.876 57.1067 124.642C56.7094 124.407 56.3938 124.092 56.1597 123.695C55.9256 123.29 55.8086 122.84 55.8086 122.343C55.8086 121.854 55.9256 121.414 56.1597 121.024C56.3938 120.627 56.7094 120.311 57.1067 120.077C57.5039 119.843 57.9508 119.726 58.4473 119.726C58.9367 119.726 59.3801 119.843 59.7773 120.077C60.1816 120.304 60.5008 120.616 60.7349 121.013C60.969 121.41 61.086 121.854 61.086 122.343C61.086 122.84 60.969 123.29 60.7349 123.695C60.5008 124.092 60.1816 124.407 59.7773 124.642C59.3801 124.876 58.9367 124.993 58.4473 124.993ZM58.4473 124.067C58.7665 124.067 59.0502 123.992 59.2985 123.844C59.5468 123.695 59.7418 123.492 59.8837 123.237C60.0256 122.975 60.0965 122.677 60.0965 122.343C60.0965 122.017 60.022 121.726 59.8731 121.471C59.7312 121.215 59.5361 121.017 59.2879 120.875C59.0467 120.726 58.7665 120.652 58.4473 120.652C58.1281 120.652 57.8444 120.726 57.5961 120.875C57.3478 121.017 57.1528 121.215 57.0109 121.471C56.869 121.726 56.7981 122.017 56.7981 122.343C56.7981 122.677 56.869 122.975 57.0109 123.237C57.1528 123.492 57.3478 123.695 57.5961 123.844C57.8444 123.992 58.1281 124.067 58.4473 124.067ZM64.1414 124.993C63.6448 124.993 63.198 124.876 62.8007 124.642C62.4035 124.407 62.0878 124.092 61.8538 123.695C61.6197 123.29 61.5026 122.84 61.5026 122.343C61.5026 121.854 61.6197 121.414 61.8538 121.024C62.0878 120.627 62.4035 120.311 62.8007 120.077C63.198 119.843 63.6448 119.726 64.1414 119.726C64.6308 119.726 65.0741 119.843 65.4714 120.077C65.8757 120.304 66.1949 120.616 66.429 121.013C66.663 121.41 66.7801 121.854 66.7801 122.343C66.7801 122.84 66.663 123.29 66.429 123.695C66.1949 124.092 65.8757 124.407 65.4714 124.642C65.0741 124.876 64.6308 124.993 64.1414 124.993ZM64.1414 124.067C64.4606 124.067 64.7443 123.992 64.9926 123.844C65.2408 123.695 65.4359 123.492 65.5778 123.237C65.7196 122.975 65.7906 122.677 65.7906 122.343C65.7906 122.017 65.7161 121.726 65.5671 121.471C65.4253 121.215 65.2302 121.017 64.9819 120.875C64.7408 120.726 64.4606 120.652 64.1414 120.652C63.8222 120.652 63.5384 120.726 63.2902 120.875C63.0419 121.017 62.8468 121.215 62.705 121.471C62.5631 121.726 62.4922 122.017 62.4922 122.343C62.4922 122.677 62.5631 122.975 62.705 123.237C62.8468 123.492 63.0419 123.695 63.2902 123.844C63.5384 123.992 63.8222 124.067 64.1414 124.067ZM69.1332 124.993C68.8495 124.993 68.5799 124.957 68.3246 124.886C68.0763 124.808 67.8458 124.702 67.633 124.567C67.4202 124.425 67.2357 124.258 67.0797 124.067L67.6968 123.45C67.8812 123.677 68.094 123.847 68.3352 123.961C68.5764 124.067 68.8459 124.12 69.1438 124.12C69.4418 124.12 69.6723 124.07 69.8354 123.971C69.9986 123.865 70.0802 123.719 70.0802 123.535C70.0802 123.351 70.0128 123.209 69.878 123.109C69.7503 123.003 69.5836 122.918 69.3779 122.854C69.1722 122.783 68.9523 122.716 68.7182 122.652C68.4912 122.581 68.2749 122.492 68.0692 122.386C67.8635 122.279 67.6932 122.134 67.5585 121.95C67.4308 121.765 67.367 121.52 67.367 121.215C67.367 120.91 67.4414 120.648 67.5904 120.428C67.7394 120.201 67.9451 120.027 68.2075 119.907C68.4771 119.786 68.7998 119.726 69.1758 119.726C69.573 119.726 69.9241 119.797 70.2291 119.939C70.5412 120.073 70.7966 120.279 70.9952 120.556L70.3781 121.173C70.2362 120.988 70.0589 120.847 69.8461 120.747C69.6404 120.648 69.4063 120.598 69.1438 120.598C68.8672 120.598 68.6544 120.648 68.5054 120.747C68.3636 120.839 68.2926 120.971 68.2926 121.141C68.2926 121.311 68.3565 121.442 68.4842 121.535C68.6118 121.627 68.7785 121.705 68.9842 121.769C69.197 121.833 69.4169 121.9 69.6439 121.971C69.8709 122.035 70.0872 122.123 70.293 122.237C70.4987 122.35 70.6654 122.503 70.793 122.694C70.9278 122.886 70.9952 123.138 70.9952 123.45C70.9952 123.925 70.825 124.301 70.4845 124.578C70.1511 124.854 69.7007 124.993 69.1332 124.993ZM74.0756 124.993C73.5719 124.993 73.118 124.879 72.7136 124.652C72.3093 124.418 71.9901 124.102 71.756 123.705C71.522 123.308 71.4049 122.858 71.4049 122.354C71.4049 121.857 71.5184 121.41 71.7454 121.013C71.9795 120.616 72.2916 120.304 72.6817 120.077C73.0789 119.843 73.5223 119.726 74.0117 119.726C74.4799 119.726 74.8913 119.832 75.246 120.045C75.6077 120.258 75.8879 120.552 76.0865 120.928C76.2922 121.304 76.3951 121.73 76.3951 122.205C76.3951 122.276 76.3915 122.354 76.3844 122.439C76.3773 122.517 76.3632 122.609 76.3419 122.716H72.0752V121.918H75.8312L75.48 122.226C75.48 121.886 75.4197 121.598 75.2992 121.364C75.1786 121.123 75.0083 120.939 74.7884 120.811C74.5685 120.676 74.3025 120.609 73.9904 120.609C73.6641 120.609 73.3769 120.68 73.1286 120.822C72.8803 120.964 72.6888 121.162 72.554 121.418C72.4193 121.673 72.3519 121.974 72.3519 122.322C72.3519 122.677 72.4228 122.989 72.5647 123.258C72.7065 123.521 72.9087 123.726 73.1712 123.875C73.4336 124.017 73.7351 124.088 74.0756 124.088C74.3593 124.088 74.6182 124.039 74.8523 123.939C75.0934 123.84 75.2992 123.691 75.4694 123.492L76.0865 124.12C75.8453 124.404 75.5474 124.62 75.1928 124.769C74.8452 124.918 74.4728 124.993 74.0756 124.993ZM79.7641 124.886V117.715H80.7217V124.886H79.7641ZM78.5192 120.705V119.832H81.9666V120.705H78.5192ZM86.1472 124.886V121.939C86.1472 121.556 86.0266 121.24 85.7855 120.992C85.5443 120.744 85.2322 120.62 84.8491 120.62C84.5938 120.62 84.3668 120.676 84.1682 120.79C83.9696 120.903 83.8135 121.059 83.7 121.258C83.5865 121.457 83.5298 121.684 83.5298 121.939L83.1361 121.716C83.1361 121.332 83.2212 120.992 83.3915 120.694C83.5617 120.396 83.7993 120.162 84.1043 119.992C84.4093 119.814 84.7534 119.726 85.1364 119.726C85.5195 119.726 85.8564 119.811 86.1472 119.981C86.4451 120.151 86.6792 120.389 86.8495 120.694C87.0197 120.999 87.1048 121.35 87.1048 121.747V124.886H86.1472ZM82.5722 124.886V117.289H83.5298V124.886H82.5722ZM90.4096 124.993C89.906 124.993 89.452 124.879 89.0477 124.652C88.6434 124.418 88.3242 124.102 88.0901 123.705C87.856 123.308 87.739 122.858 87.739 122.354C87.739 121.857 87.8525 121.41 88.0795 121.013C88.3135 120.616 88.6256 120.304 89.0158 120.077C89.413 119.843 89.8563 119.726 90.3458 119.726C90.8139 119.726 91.2253 119.832 91.58 120.045C91.9418 120.258 92.222 120.552 92.4206 120.928C92.6263 121.304 92.7291 121.73 92.7291 122.205C92.7291 122.276 92.7256 122.354 92.7185 122.439C92.7114 122.517 92.6972 122.609 92.6759 122.716H88.4093V121.918H92.1652L91.8141 122.226C91.8141 121.886 91.7538 121.598 91.6332 121.364C91.5126 121.123 91.3424 120.939 91.1225 120.811C90.9026 120.676 90.6366 120.609 90.3245 120.609C89.9982 120.609 89.7109 120.68 89.4627 120.822C89.2144 120.964 89.0229 121.162 88.8881 121.418C88.7533 121.673 88.6859 121.974 88.6859 122.322C88.6859 122.677 88.7569 122.989 88.8987 123.258C89.0406 123.521 89.2428 123.726 89.5052 123.875C89.7677 124.017 90.0691 124.088 90.4096 124.088C90.6933 124.088 90.9523 124.039 91.1863 123.939C91.4275 123.84 91.6332 123.691 91.8035 123.492L92.4206 124.12C92.1794 124.404 91.8815 124.62 91.5268 124.769C91.1792 124.918 90.8068 124.993 90.4096 124.993ZM97.4176 127.11C96.8997 127.11 96.4387 127.014 96.0344 126.823C95.6371 126.631 95.3179 126.362 95.0768 126.014L95.6939 125.386C95.8996 125.649 96.1443 125.847 96.428 125.982C96.7118 126.124 97.0487 126.195 97.4388 126.195C97.9566 126.195 98.3645 126.057 98.6624 125.78C98.9674 125.51 99.12 125.145 99.12 124.684V123.429L99.2902 122.29L99.12 121.162V119.832H100.078V124.684C100.078 125.166 99.9641 125.588 99.7371 125.95C99.5172 126.312 99.2051 126.596 98.8008 126.801C98.4035 127.007 97.9425 127.11 97.4176 127.11ZM97.4176 124.801C96.9565 124.801 96.5415 124.691 96.1727 124.471C95.8109 124.251 95.5236 123.95 95.3108 123.567C95.098 123.177 94.9916 122.74 94.9916 122.258C94.9916 121.776 95.098 121.347 95.3108 120.971C95.5236 120.588 95.8109 120.286 96.1727 120.066C96.5415 119.839 96.9565 119.726 97.4176 119.726C97.8148 119.726 98.1659 119.804 98.4709 119.96C98.7759 120.116 99.0171 120.336 99.1944 120.62C99.3789 120.896 99.4782 121.223 99.4924 121.598V122.939C99.4711 123.308 99.3682 123.634 99.1838 123.918C99.0065 124.195 98.7653 124.411 98.4603 124.567C98.1553 124.723 97.8077 124.801 97.4176 124.801ZM97.6091 123.897C97.9212 123.897 98.1943 123.829 98.4284 123.695C98.6695 123.56 98.854 123.372 98.9816 123.131C99.1093 122.882 99.1732 122.595 99.1732 122.269C99.1732 121.942 99.1058 121.659 98.971 121.418C98.8433 121.169 98.6624 120.978 98.4284 120.843C98.1943 120.701 97.9176 120.63 97.5984 120.63C97.2792 120.63 96.999 120.701 96.7579 120.843C96.5167 120.978 96.3252 121.169 96.1833 121.418C96.0485 121.659 95.9812 121.939 95.9812 122.258C95.9812 122.577 96.0485 122.861 96.1833 123.109C96.3252 123.358 96.5167 123.553 96.7579 123.695C97.0061 123.829 97.2899 123.897 97.6091 123.897ZM103.491 124.993C102.988 124.993 102.534 124.879 102.129 124.652C101.725 124.418 101.406 124.102 101.172 123.705C100.938 123.308 100.821 122.858 100.821 122.354C100.821 121.857 100.934 121.41 101.161 121.013C101.395 120.616 101.707 120.304 102.098 120.077C102.495 119.843 102.938 119.726 103.428 119.726C103.896 119.726 104.307 119.832 104.662 120.045C105.024 120.258 105.304 120.552 105.502 120.928C105.708 121.304 105.811 121.73 105.811 122.205C105.811 122.276 105.807 122.354 105.8 122.439C105.793 122.517 105.779 122.609 105.758 122.716H101.491V121.918H105.247L104.896 122.226C104.896 121.886 104.836 121.598 104.715 121.364C104.594 121.123 104.424 120.939 104.204 120.811C103.984 120.676 103.718 120.609 103.406 120.609C103.08 120.609 102.793 120.68 102.544 120.822C102.296 120.964 102.105 121.162 101.97 121.418C101.835 121.673 101.768 121.974 101.768 122.322C101.768 122.677 101.839 122.989 101.981 123.258C102.122 123.521 102.325 123.726 102.587 123.875C102.849 124.017 103.151 124.088 103.491 124.088C103.775 124.088 104.034 124.039 104.268 123.939C104.509 123.84 104.715 123.691 104.885 123.492L105.502 124.12C105.261 124.404 104.963 124.62 104.609 124.769C104.261 124.918 103.889 124.993 103.491 124.993ZM110.098 124.886V121.939C110.098 121.556 109.977 121.24 109.736 120.992C109.495 120.744 109.183 120.62 108.8 120.62C108.544 120.62 108.317 120.676 108.119 120.79C107.92 120.903 107.764 121.059 107.65 121.258C107.537 121.457 107.48 121.684 107.48 121.939L107.086 121.716C107.086 121.332 107.172 120.992 107.342 120.694C107.512 120.396 107.75 120.162 108.055 119.992C108.36 119.814 108.704 119.726 109.087 119.726C109.47 119.726 109.807 119.822 110.098 120.013C110.396 120.205 110.63 120.456 110.8 120.769C110.97 121.074 111.055 121.4 111.055 121.747V124.886H110.098ZM106.523 124.886V119.832H107.48V124.886H106.523ZM114.158 124.993C113.69 124.993 113.271 124.879 112.902 124.652C112.533 124.418 112.239 124.102 112.019 123.705C111.806 123.308 111.7 122.861 111.7 122.365C111.7 121.868 111.806 121.421 112.019 121.024C112.239 120.627 112.533 120.311 112.902 120.077C113.271 119.843 113.69 119.726 114.158 119.726C114.534 119.726 114.874 119.807 115.179 119.971C115.484 120.127 115.729 120.346 115.913 120.63C116.105 120.907 116.211 121.23 116.233 121.598V123.12C116.211 123.482 116.109 123.804 115.924 124.088C115.74 124.372 115.495 124.595 115.19 124.759C114.885 124.915 114.541 124.993 114.158 124.993ZM114.317 124.088C114.637 124.088 114.913 124.014 115.147 123.865C115.389 123.716 115.577 123.514 115.711 123.258C115.846 122.996 115.913 122.698 115.913 122.365C115.913 122.017 115.843 121.716 115.701 121.46C115.566 121.205 115.378 121.003 115.137 120.854C114.903 120.705 114.626 120.63 114.307 120.63C113.988 120.63 113.707 120.705 113.466 120.854C113.225 121.003 113.034 121.208 112.892 121.471C112.757 121.726 112.69 122.021 112.69 122.354C112.69 122.694 112.757 122.996 112.892 123.258C113.034 123.514 113.225 123.716 113.466 123.865C113.715 124.014 113.998 124.088 114.317 124.088ZM116.818 124.886H115.85V123.524L116.03 122.29L115.85 121.066V117.289H116.818V124.886ZM120.22 124.993C119.717 124.993 119.263 124.879 118.858 124.652C118.454 124.418 118.135 124.102 117.901 123.705C117.667 123.308 117.55 122.858 117.55 122.354C117.55 121.857 117.663 121.41 117.89 121.013C118.124 120.616 118.436 120.304 118.826 120.077C119.224 119.843 119.667 119.726 120.156 119.726C120.625 119.726 121.036 119.832 121.391 120.045C121.752 120.258 122.033 120.552 122.231 120.928C122.437 121.304 122.54 121.73 122.54 122.205C122.54 122.276 122.536 122.354 122.529 122.439C122.522 122.517 122.508 122.609 122.487 122.716H118.22V121.918H121.976L121.625 122.226C121.625 121.886 121.565 121.598 121.444 121.364C121.323 121.123 121.153 120.939 120.933 120.811C120.713 120.676 120.447 120.609 120.135 120.609C119.809 120.609 119.522 120.68 119.273 120.822C119.025 120.964 118.834 121.162 118.699 121.418C118.564 121.673 118.497 121.974 118.497 122.322C118.497 122.677 118.568 122.989 118.709 123.258C118.851 123.521 119.053 123.726 119.316 123.875C119.578 124.017 119.88 124.088 120.22 124.088C120.504 124.088 120.763 124.039 120.997 123.939C121.238 123.84 121.444 123.691 121.614 123.492L122.231 124.12C121.99 124.404 121.692 124.62 121.338 124.769C120.99 124.918 120.618 124.993 120.22 124.993ZM123.251 124.886V119.832H124.209V124.886H123.251ZM124.209 122.003L123.847 121.843C123.847 121.198 123.996 120.683 124.294 120.3C124.592 119.917 125.021 119.726 125.582 119.726C125.837 119.726 126.068 119.772 126.273 119.864C126.479 119.949 126.67 120.095 126.848 120.3L126.22 120.949C126.114 120.836 125.997 120.754 125.869 120.705C125.741 120.655 125.592 120.63 125.422 120.63C125.067 120.63 124.777 120.744 124.55 120.971C124.323 121.198 124.209 121.542 124.209 122.003ZM130.034 124.886V117.715H130.992V124.886H130.034ZM128.789 120.705V119.832H132.236V120.705H128.789ZM136.417 124.886V121.939C136.417 121.556 136.296 121.24 136.055 120.992C135.814 120.744 135.502 120.62 135.119 120.62C134.864 120.62 134.637 120.676 134.438 120.79C134.239 120.903 134.083 121.059 133.97 121.258C133.856 121.457 133.8 121.684 133.8 121.939L133.406 121.716C133.406 121.332 133.491 120.992 133.661 120.694C133.832 120.396 134.069 120.162 134.374 119.992C134.679 119.814 135.023 119.726 135.406 119.726C135.789 119.726 136.126 119.811 136.417 119.981C136.715 120.151 136.949 120.389 137.119 120.694C137.29 120.999 137.375 121.35 137.375 121.747V124.886H136.417ZM132.842 124.886V117.289H133.8V124.886H132.842ZM140.488 124.993C140.027 124.993 139.608 124.879 139.232 124.652C138.856 124.418 138.559 124.102 138.339 123.705C138.126 123.308 138.019 122.861 138.019 122.365C138.019 121.868 138.126 121.421 138.339 121.024C138.559 120.627 138.853 120.311 139.222 120.077C139.598 119.843 140.02 119.726 140.488 119.726C140.871 119.726 141.211 119.807 141.509 119.971C141.814 120.127 142.059 120.346 142.244 120.63C142.428 120.907 142.531 121.23 142.552 121.598V123.12C142.531 123.482 142.428 123.804 142.244 124.088C142.066 124.372 141.825 124.595 141.52 124.759C141.222 124.915 140.878 124.993 140.488 124.993ZM140.648 124.088C141.123 124.088 141.506 123.929 141.797 123.609C142.087 123.283 142.233 122.868 142.233 122.365C142.233 122.017 142.166 121.716 142.031 121.46C141.903 121.198 141.719 120.996 141.477 120.854C141.236 120.705 140.956 120.63 140.637 120.63C140.318 120.63 140.034 120.705 139.786 120.854C139.545 121.003 139.353 121.208 139.211 121.471C139.076 121.726 139.009 122.021 139.009 122.354C139.009 122.694 139.076 122.996 139.211 123.258C139.353 123.514 139.548 123.716 139.796 123.865C140.045 124.014 140.328 124.088 140.648 124.088ZM142.169 124.886V123.524L142.35 122.29L142.169 121.066V119.832H143.137V124.886H142.169ZM144.955 124.886V117.715H145.913V124.886H144.955ZM143.71 120.705V119.832H147.157V120.705H143.71ZM150.367 124.886V118.917C150.367 118.584 150.438 118.289 150.58 118.034C150.729 117.772 150.935 117.566 151.197 117.417C151.46 117.261 151.761 117.183 152.101 117.183C152.364 117.183 152.594 117.229 152.793 117.321C152.992 117.406 153.176 117.527 153.346 117.683L152.719 118.311C152.626 118.233 152.531 118.176 152.431 118.14C152.332 118.098 152.222 118.077 152.101 118.077C151.853 118.077 151.662 118.155 151.527 118.311C151.392 118.46 151.325 118.662 151.325 118.917V124.886H150.367ZM149.122 120.705V119.832H153.921V120.705H149.122ZM153.368 124.886V119.832H154.336V124.886H153.368ZM153.846 119.3C153.676 119.3 153.534 119.243 153.421 119.13C153.307 119.009 153.251 118.86 153.251 118.683C153.251 118.513 153.307 118.371 153.421 118.258C153.534 118.137 153.676 118.077 153.846 118.077C154.031 118.077 154.176 118.137 154.283 118.258C154.396 118.371 154.453 118.513 154.453 118.683C154.453 118.86 154.396 119.009 154.283 119.13C154.176 119.243 154.031 119.3 153.846 119.3ZM156.187 124.886V117.715H157.145V124.886H156.187ZM154.942 120.705V119.832H158.39V120.705H154.942ZM160.498 124.993C160.214 124.993 159.945 124.957 159.689 124.886C159.441 124.808 159.211 124.702 158.998 124.567C158.785 124.425 158.6 124.258 158.444 124.067L159.062 123.45C159.246 123.677 159.459 123.847 159.7 123.961C159.941 124.067 160.211 124.12 160.509 124.12C160.807 124.12 161.037 124.07 161.2 123.971C161.363 123.865 161.445 123.719 161.445 123.535C161.445 123.351 161.378 123.209 161.243 123.109C161.115 123.003 160.948 122.918 160.743 122.854C160.537 122.783 160.317 122.716 160.083 122.652C159.856 122.581 159.64 122.492 159.434 122.386C159.228 122.279 159.058 122.134 158.923 121.95C158.796 121.765 158.732 121.52 158.732 121.215C158.732 120.91 158.806 120.648 158.955 120.428C159.104 120.201 159.31 120.027 159.572 119.907C159.842 119.786 160.165 119.726 160.541 119.726C160.938 119.726 161.289 119.797 161.594 119.939C161.906 120.073 162.161 120.279 162.36 120.556L161.743 121.173C161.601 120.988 161.424 120.847 161.211 120.747C161.005 120.648 160.771 120.598 160.509 120.598C160.232 120.598 160.019 120.648 159.87 120.747C159.728 120.839 159.657 120.971 159.657 121.141C159.657 121.311 159.721 121.442 159.849 121.535C159.977 121.627 160.143 121.705 160.349 121.769C160.562 121.833 160.782 121.9 161.009 121.971C161.236 122.035 161.452 122.123 161.658 122.237C161.863 122.35 162.03 122.503 162.158 122.694C162.293 122.886 162.36 123.138 162.36 123.45C162.36 123.925 162.19 124.301 161.849 124.578C161.516 124.854 161.065 124.993 160.498 124.993ZM167.64 124.993C167.257 124.993 166.91 124.915 166.597 124.759C166.292 124.595 166.048 124.372 165.863 124.088C165.679 123.804 165.576 123.482 165.555 123.12V121.598C165.576 121.23 165.679 120.907 165.863 120.63C166.055 120.346 166.303 120.127 166.608 119.971C166.92 119.807 167.264 119.726 167.64 119.726C168.101 119.726 168.516 119.843 168.885 120.077C169.261 120.311 169.555 120.627 169.768 121.024C169.981 121.421 170.087 121.868 170.087 122.365C170.087 122.861 169.981 123.308 169.768 123.705C169.555 124.102 169.261 124.418 168.885 124.652C168.516 124.879 168.101 124.993 167.64 124.993ZM164.98 124.886V117.289H165.938V121.066L165.757 122.29L165.938 123.524V124.886H164.98ZM167.481 124.088C167.8 124.088 168.08 124.014 168.321 123.865C168.562 123.716 168.754 123.514 168.896 123.258C169.038 122.996 169.109 122.694 169.109 122.354C169.109 122.021 169.038 121.723 168.896 121.46C168.754 121.198 168.562 120.996 168.321 120.854C168.08 120.705 167.803 120.63 167.491 120.63C167.172 120.63 166.892 120.705 166.651 120.854C166.41 120.996 166.222 121.198 166.087 121.46C165.952 121.723 165.885 122.024 165.885 122.365C165.885 122.698 165.948 122.996 166.076 123.258C166.211 123.514 166.399 123.716 166.64 123.865C166.888 124.014 167.169 124.088 167.481 124.088ZM173.181 124.993C172.678 124.993 172.224 124.879 171.819 124.652C171.415 124.418 171.096 124.102 170.862 123.705C170.628 123.308 170.511 122.858 170.511 122.354C170.511 121.857 170.624 121.41 170.851 121.013C171.085 120.616 171.397 120.304 171.787 120.077C172.185 119.843 172.628 119.726 173.117 119.726C173.586 119.726 173.997 119.832 174.352 120.045C174.713 120.258 174.994 120.552 175.192 120.928C175.398 121.304 175.501 121.73 175.501 122.205C175.501 122.276 175.497 122.354 175.49 122.439C175.483 122.517 175.469 122.609 175.448 122.716H171.181V121.918H174.937L174.586 122.226C174.586 121.886 174.526 121.598 174.405 121.364C174.284 121.123 174.114 120.939 173.894 120.811C173.674 120.676 173.408 120.609 173.096 120.609C172.77 120.609 172.483 120.68 172.234 120.822C171.986 120.964 171.795 121.162 171.66 121.418C171.525 121.673 171.458 121.974 171.458 122.322C171.458 122.677 171.529 122.989 171.67 123.258C171.812 123.521 172.014 123.726 172.277 123.875C172.539 124.017 172.841 124.088 173.181 124.088C173.465 124.088 173.724 124.039 173.958 123.939C174.199 123.84 174.405 123.691 174.575 123.492L175.192 124.12C174.951 124.404 174.653 124.62 174.299 124.769C173.951 124.918 173.579 124.993 173.181 124.993ZM177.819 124.993C177.535 124.993 177.266 124.957 177.01 124.886C176.762 124.808 176.532 124.702 176.319 124.567C176.106 124.425 175.922 124.258 175.766 124.067L176.383 123.45C176.567 123.677 176.78 123.847 177.021 123.961C177.262 124.067 177.532 124.12 177.83 124.12C178.128 124.12 178.358 124.07 178.521 123.971C178.685 123.865 178.766 123.719 178.766 123.535C178.766 123.351 178.699 123.209 178.564 123.109C178.436 123.003 178.27 122.918 178.064 122.854C177.858 122.783 177.638 122.716 177.404 122.652C177.177 122.581 176.961 122.492 176.755 122.386C176.549 122.279 176.379 122.134 176.244 121.95C176.117 121.765 176.053 121.52 176.053 121.215C176.053 120.91 176.127 120.648 176.276 120.428C176.425 120.201 176.631 120.027 176.893 119.907C177.163 119.786 177.486 119.726 177.862 119.726C178.259 119.726 178.61 119.797 178.915 119.939C179.227 120.073 179.483 120.279 179.681 120.556L179.064 121.173C178.922 120.988 178.745 120.847 178.532 120.747C178.326 120.648 178.092 120.598 177.83 120.598C177.553 120.598 177.34 120.648 177.191 120.747C177.049 120.839 176.979 120.971 176.979 121.141C176.979 121.311 177.042 121.442 177.17 121.535C177.298 121.627 177.464 121.705 177.67 121.769C177.883 121.833 178.103 121.9 178.33 121.971C178.557 122.035 178.773 122.123 178.979 122.237C179.185 122.35 179.351 122.503 179.479 122.694C179.614 122.886 179.681 123.138 179.681 123.45C179.681 123.925 179.511 124.301 179.17 124.578C178.837 124.854 178.387 124.993 177.819 124.993ZM181.197 124.886V117.715H182.155V124.886H181.197ZM179.953 120.705V119.832H183.4V120.705H179.953Z" fill="#AEAEB2"/>
<g clip-path="url(#clip1_776_30515)">
<rect x="42.9467" y="151.161" width="240.065" height="34.58" rx="5.32" fill="white" fill-opacity="0.1"/>
<path d="M53.5467 176.513C53.2098 176.513 52.8973 176.453 52.6091 176.333C52.3254 176.209 52.0771 176.038 51.8643 175.821C51.6515 175.6 51.4875 175.345 51.3722 175.056C51.2569 174.764 51.1993 174.451 51.1993 174.119C51.1993 173.786 51.2569 173.476 51.3722 173.188C51.4875 172.895 51.6515 172.64 51.8643 172.423C52.0771 172.206 52.3254 172.035 52.6091 171.911C52.8973 171.787 53.2098 171.725 53.5467 171.725C53.9236 171.725 54.2494 171.787 54.5243 171.911C54.7992 172.035 55.043 172.204 55.2558 172.416L54.7371 172.935C54.5997 172.784 54.4312 172.667 54.2317 172.583C54.0366 172.498 53.8083 172.456 53.5467 172.456C53.3162 172.456 53.1056 172.496 52.915 172.576C52.7244 172.656 52.5581 172.771 52.4162 172.922C52.2788 173.068 52.1724 173.243 52.097 173.447C52.0217 173.651 51.984 173.875 51.984 174.119C51.984 174.363 52.0217 174.587 52.097 174.79C52.1724 174.994 52.2788 175.172 52.4162 175.322C52.5581 175.469 52.7244 175.582 52.915 175.662C53.1056 175.741 53.3162 175.781 53.5467 175.781C53.8305 175.781 54.0699 175.739 54.2649 175.655C54.4644 175.566 54.6329 175.447 54.7703 175.296L55.289 175.815C55.0762 176.032 54.8258 176.202 54.5376 176.327C54.2494 176.451 53.9191 176.513 53.5467 176.513ZM55.9714 176.446V171.791H56.7362V176.446H55.9714ZM58.9502 176.513C58.5822 176.513 58.2697 176.446 58.0125 176.313C57.7554 176.18 57.5249 175.985 57.3209 175.728L57.8396 175.209C57.9682 175.396 58.1211 175.542 58.2985 175.648C58.4758 175.75 58.7019 175.801 58.9768 175.801C59.2339 175.801 59.4378 175.748 59.5886 175.642C59.7437 175.535 59.8213 175.389 59.8213 175.203C59.8213 175.048 59.7814 174.921 59.7016 174.824C59.6218 174.726 59.5154 174.646 59.3824 174.584C59.2539 174.518 59.1098 174.46 58.9502 174.411C58.795 174.358 58.6376 174.301 58.478 174.238C58.3229 174.172 58.1788 174.09 58.0458 173.992C57.9172 173.895 57.813 173.769 57.7332 173.613C57.6534 173.458 57.6135 173.261 57.6135 173.022C57.6135 172.747 57.68 172.514 57.813 172.323C57.9505 172.128 58.1344 171.98 58.365 171.878C58.5955 171.776 58.8526 171.725 59.1364 171.725C59.4423 171.725 59.7149 171.785 59.9543 171.904C60.1982 172.024 60.3954 172.177 60.5462 172.363L60.0275 172.882C59.8945 172.731 59.7548 172.62 59.6085 172.549C59.4667 172.474 59.3026 172.436 59.1164 172.436C58.8859 172.436 58.7041 172.483 58.5711 172.576C58.4426 172.669 58.3783 172.8 58.3783 172.968C58.3783 173.11 58.4182 173.225 58.498 173.314C58.5778 173.398 58.682 173.472 58.8105 173.534C58.9435 173.591 59.0876 173.647 59.2428 173.7C59.4024 173.753 59.5598 173.813 59.7149 173.879C59.8745 173.946 60.0186 174.032 60.1472 174.139C60.2802 174.241 60.3866 174.374 60.4664 174.538C60.5462 174.702 60.5861 174.908 60.5861 175.156C60.5861 175.573 60.4376 175.903 60.1405 176.147C59.8479 176.391 59.4511 176.513 58.9502 176.513ZM62.6799 176.446V171.791H63.2119L65.147 174.977H64.8012L66.7364 171.791H67.2684V176.446H66.5036V173.135L66.6765 173.181L65.2401 175.542H64.7081L63.2717 173.181L63.4446 173.135V176.446H62.6799ZM67.932 176.446L69.8472 171.791H70.3792L72.2811 176.446H71.4565L69.9669 172.676H70.2462L68.7433 176.446H67.932ZM68.8763 175.549V174.884H71.3435V175.549H68.8763ZM72.8952 176.446V171.791H73.4272L73.6599 172.669V176.446H72.8952ZM76.1204 176.446L73.3341 172.809L73.4272 171.791L76.2135 175.429L76.1204 176.446ZM76.1204 176.446L75.8877 175.628V171.791H76.6524V176.446H76.1204Z" fill="white" fill-opacity="0.5"/>
<path d="M51.6901 167.476V161.015H52.3045L55.0417 165.512H54.6227L57.3598 161.015H57.9743V167.476H57.0992V162.551L57.304 162.607L55.1441 166.154H54.5296L52.3697 162.607L52.5652 162.551V167.476H51.6901ZM61.2316 167.569C60.8281 167.569 60.4619 167.47 60.133 167.271C59.804 167.066 59.5434 166.79 59.3509 166.443C59.1647 166.095 59.0716 165.704 59.0716 165.27C59.0716 164.835 59.1647 164.444 59.3509 164.097C59.5434 163.749 59.8009 163.473 60.1237 163.268C60.4526 163.063 60.8219 162.961 61.2316 162.961C61.5667 162.961 61.8646 163.032 62.1253 163.175C62.3922 163.311 62.6063 163.504 62.7677 163.752C62.9291 163.994 63.0191 164.277 63.0377 164.599V165.931C63.0191 166.247 62.9291 166.53 62.7677 166.778C62.6126 167.026 62.4015 167.222 62.1346 167.364C61.874 167.501 61.5729 167.569 61.2316 167.569ZM61.3712 166.778C61.7871 166.778 62.1222 166.638 62.3767 166.359C62.6312 166.073 62.7584 165.71 62.7584 165.27C62.7584 164.965 62.6994 164.702 62.5815 164.478C62.4698 164.249 62.3084 164.072 62.0974 163.948C61.8864 163.817 61.6412 163.752 61.3619 163.752C61.0826 163.752 60.8343 163.817 60.6171 163.948C60.4061 164.078 60.2385 164.258 60.1144 164.488C59.9964 164.711 59.9375 164.969 59.9375 165.26C59.9375 165.558 59.9964 165.822 60.1144 166.052C60.2385 166.275 60.4092 166.452 60.6264 166.582C60.8437 166.713 61.0919 166.778 61.3712 166.778ZM62.7025 167.476V166.284L62.8608 165.204L62.7025 164.134V163.054H63.5498V167.476H62.7025ZM67.8978 167.476V164.897C67.8978 164.562 67.7923 164.286 67.5813 164.069C67.3703 163.851 67.0972 163.743 66.762 163.743C66.5386 163.743 66.3399 163.792 66.1662 163.892C65.9924 163.991 65.8558 164.128 65.7565 164.301C65.6572 164.475 65.6076 164.674 65.6076 164.897L65.2631 164.702C65.2631 164.367 65.3376 164.069 65.4865 163.808C65.6355 163.547 65.8434 163.342 66.1103 163.193C66.3772 163.038 66.6782 162.961 67.0134 162.961C67.3485 162.961 67.6433 163.045 67.8978 163.212C68.1585 163.38 68.3633 163.6 68.5123 163.873C68.6612 164.14 68.7357 164.425 68.7357 164.73V167.476H67.8978ZM64.7697 167.476V163.054H65.6076V167.476H64.7697Z" fill="white"/>
<path d="M267.052 174.59C270.442 174.59 273.19 171.842 273.19 168.451C273.19 165.061 270.442 162.313 267.052 162.313C263.661 162.313 260.913 165.061 260.913 168.451C260.913 171.842 263.661 174.59 267.052 174.59Z" fill="#0FF2F2" stroke="#0FF2F2" stroke-width="1.33" stroke-miterlimit="10" stroke-linecap="round"/>
<g opacity="0.5">
<path d="M267.052 171.776C268.888 171.776 270.377 170.288 270.377 168.451C270.377 166.615 268.888 165.126 267.052 165.126C265.216 165.126 263.727 166.615 263.727 168.451C263.727 170.288 265.216 171.776 267.052 171.776Z" fill="black" stroke="#0FF2F2" stroke-width="1.33" stroke-miterlimit="10" stroke-linecap="round"/>
</g>
</g>
<g clip-path="url(#clip2_776_30515)">
<rect x="42.9467" y="199.041" width="240.065" height="34.58" rx="5.32" fill="white" fill-opacity="0.1"/>
<path d="M53.3379 219.831L51.2246 213.37H52.0997L53.7755 218.639H53.5241L55.172 213.37H55.8051L57.4529 218.639H57.2109L58.8867 213.37H59.7525L57.6485 219.831H57.0247L55.3675 214.571H55.6096L53.9617 219.831H53.3379ZM62.0167 219.924C61.5823 219.924 61.1912 219.822 60.8437 219.617C60.4961 219.412 60.2199 219.136 60.0151 218.788C59.8103 218.435 59.7079 218.04 59.7079 217.606C59.7079 217.178 59.8103 216.793 60.0151 216.452C60.2199 216.104 60.4961 215.828 60.8437 215.623C61.1912 215.418 61.5823 215.316 62.0167 215.316C62.445 215.316 62.8329 215.418 63.1805 215.623C63.5343 215.822 63.8136 216.095 64.0184 216.442C64.2232 216.79 64.3256 217.178 64.3256 217.606C64.3256 218.04 64.2232 218.435 64.0184 218.788C63.8136 219.136 63.5343 219.412 63.1805 219.617C62.8329 219.822 62.445 219.924 62.0167 219.924ZM62.0167 219.114C62.296 219.114 62.5443 219.049 62.7615 218.919C62.9788 218.788 63.1495 218.611 63.2736 218.388C63.3977 218.158 63.4598 217.898 63.4598 217.606C63.4598 217.32 63.3946 217.066 63.2643 216.843C63.1401 216.619 62.9695 216.445 62.7522 216.321C62.5412 216.191 62.296 216.126 62.0167 216.126C61.7374 216.126 61.4892 216.191 61.2719 216.321C61.0547 216.445 60.884 216.619 60.7599 216.843C60.6358 217.066 60.5737 217.32 60.5737 217.606C60.5737 217.898 60.6358 218.158 60.7599 218.388C60.884 218.611 61.0547 218.788 61.2719 218.919C61.4892 219.049 61.7374 219.114 62.0167 219.114ZM65.2697 219.831V215.409H66.1076V219.831H65.2697ZM68.2582 219.831V217.159C68.2582 216.83 68.1558 216.573 67.951 216.386C67.7524 216.194 67.501 216.098 67.1969 216.098C66.9921 216.098 66.809 216.141 66.6476 216.228C66.4862 216.315 66.3559 216.436 66.2566 216.591C66.1573 216.746 66.1076 216.933 66.1076 217.15L65.7631 216.982C65.7631 216.647 65.8345 216.355 65.9773 216.107C66.1262 215.859 66.3279 215.666 66.5824 215.53C66.8369 215.387 67.1224 215.316 67.4389 215.316C67.7493 215.316 68.0286 215.384 68.2768 215.521C68.5313 215.657 68.7299 215.849 68.8727 216.098C69.0216 216.346 69.0961 216.641 69.0961 216.982V219.831H68.2582ZM71.2467 219.831V217.159C71.2467 216.83 71.1443 216.573 70.9395 216.386C70.7409 216.194 70.4926 216.098 70.1947 216.098C69.9899 216.098 69.8037 216.141 69.6361 216.228C69.4747 216.315 69.3444 216.436 69.2451 216.591C69.1458 216.746 69.0961 216.933 69.0961 217.15L68.6213 216.982C68.6399 216.641 68.7299 216.349 68.8913 216.107C69.0589 215.859 69.273 215.666 69.5337 215.53C69.7944 215.387 70.0799 215.316 70.3902 215.316C70.713 215.316 71.0016 215.384 71.256 215.521C71.5105 215.657 71.7122 215.849 71.8612 216.098C72.0164 216.346 72.0939 216.644 72.0939 216.992V219.831H71.2467ZM75.1147 219.924C74.7113 219.924 74.3451 219.825 74.0162 219.626C73.6872 219.421 73.4265 219.145 73.2341 218.798C73.0479 218.45 72.9548 218.059 72.9548 217.625C72.9548 217.19 73.0479 216.799 73.2341 216.452C73.4265 216.104 73.6841 215.828 74.0069 215.623C74.3358 215.418 74.7051 215.316 75.1147 215.316C75.4499 215.316 75.7478 215.387 76.0085 215.53C76.2754 215.666 76.4895 215.859 76.6509 216.107C76.8123 216.349 76.9023 216.632 76.9209 216.954V218.286C76.9023 218.602 76.8123 218.885 76.6509 219.133C76.4957 219.381 76.2847 219.577 76.0178 219.719C75.7571 219.856 75.4561 219.924 75.1147 219.924ZM75.2544 219.133C75.6702 219.133 76.0054 218.993 76.2599 218.714C76.5143 218.428 76.6416 218.065 76.6416 217.625C76.6416 217.32 76.5826 217.057 76.4647 216.833C76.353 216.604 76.1916 216.427 75.9806 216.303C75.7695 216.172 75.5244 216.107 75.2451 216.107C74.9658 216.107 74.7175 216.172 74.5003 216.303C74.2893 216.433 74.1217 216.613 73.9975 216.843C73.8796 217.066 73.8207 217.324 73.8207 217.615C73.8207 217.913 73.8796 218.177 73.9975 218.407C74.1217 218.63 74.2924 218.807 74.5096 218.937C74.7268 219.068 74.9751 219.133 75.2544 219.133ZM76.5857 219.831V218.639L76.744 217.559L76.5857 216.489V215.409H77.4329V219.831H76.5857ZM81.781 219.831V217.252C81.781 216.917 81.6755 216.641 81.4645 216.424C81.2534 216.206 80.9803 216.098 80.6452 216.098C80.4217 216.098 80.2231 216.147 80.0493 216.247C79.8755 216.346 79.739 216.483 79.6397 216.656C79.5404 216.83 79.4907 217.029 79.4907 217.252L79.1463 217.057C79.1463 216.722 79.2207 216.424 79.3697 216.163C79.5187 215.902 79.7266 215.697 79.9935 215.548C80.2604 215.393 80.5614 215.316 80.8965 215.316C81.2317 215.316 81.5265 215.399 81.781 215.567C82.0417 215.735 82.2465 215.955 82.3955 216.228C82.5444 216.495 82.6189 216.78 82.6189 217.085V219.831H81.781ZM78.6528 219.831V215.409H79.4907V219.831H78.6528Z" fill="white"/>
<g opacity="0.2">
<path d="M267.052 222.981C270.724 222.981 273.702 220.004 273.702 216.331C273.702 212.658 270.724 209.681 267.052 209.681C263.379 209.681 260.402 212.658 260.402 216.331C260.402 220.004 263.379 222.981 267.052 222.981Z" fill="white"/>
</g>
<g opacity="0.2">
<path opacity="0.5" d="M267.051 219.656C268.888 219.656 270.376 218.167 270.376 216.331C270.376 214.495 268.888 213.006 267.051 213.006C265.215 213.006 263.727 214.495 263.727 216.331C263.727 218.167 265.215 219.656 267.051 219.656Z" fill="white" fill-opacity="0.15" stroke="white" stroke-width="1.33" stroke-miterlimit="10" stroke-linecap="round"/>
</g>
</g>
<g clip-path="url(#clip3_776_30515)">
<rect x="42.9467" y="246.921" width="240.065" height="34.58" rx="5.32" fill="white" fill-opacity="0.1"/>
<path d="M53.4031 267.711V261.436H54.2782V267.711H53.4031ZM51.2059 262.05V261.25H56.4661V262.05H51.2059ZM56.3688 267.711V263.289H57.2067V267.711H56.3688ZM57.2067 265.188L56.8902 265.048C56.8902 264.483 57.0205 264.033 57.2812 263.698C57.5419 263.363 57.9174 263.196 58.4077 263.196C58.6312 263.196 58.8329 263.236 59.0129 263.317C59.1929 263.391 59.3605 263.518 59.5156 263.698L58.9663 264.266C58.8732 264.167 58.7708 264.096 58.6591 264.052C58.5474 264.009 58.417 263.987 58.2681 263.987C57.9577 263.987 57.7033 264.086 57.5047 264.285C57.306 264.483 57.2067 264.784 57.2067 265.188ZM61.8407 267.804C61.4373 267.804 61.0711 267.705 60.7421 267.506C60.4132 267.301 60.1525 267.025 59.9601 266.678C59.7739 266.33 59.6808 265.939 59.6808 265.504C59.6808 265.07 59.7739 264.679 59.9601 264.331C60.1525 263.984 60.4101 263.708 60.7328 263.503C61.0618 263.298 61.4311 263.196 61.8407 263.196C62.1759 263.196 62.4738 263.267 62.7345 263.41C63.0014 263.546 63.2155 263.739 63.3769 263.987C63.5382 264.229 63.6282 264.511 63.6469 264.834V266.165C63.6282 266.482 63.5382 266.764 63.3769 267.013C63.2217 267.261 63.0107 267.456 62.7438 267.599C62.4831 267.736 62.1821 267.804 61.8407 267.804ZM61.9804 267.013C62.3962 267.013 62.7314 266.873 62.9858 266.594C63.2403 266.308 63.3676 265.945 63.3676 265.504C63.3676 265.2 63.3086 264.937 63.1907 264.713C63.0789 264.483 62.9176 264.307 62.7065 264.182C62.4955 264.052 62.2504 263.987 61.9711 263.987C61.6918 263.987 61.4435 264.052 61.2263 264.182C61.0152 264.313 60.8477 264.493 60.7235 264.722C60.6056 264.946 60.5466 265.203 60.5466 265.495C60.5466 265.793 60.6056 266.057 60.7235 266.287C60.8477 266.51 61.0183 266.687 61.2356 266.817C61.4528 266.948 61.7011 267.013 61.9804 267.013ZM63.3117 267.711V266.519L63.47 265.439L63.3117 264.369V263.289H64.1589V267.711H63.3117ZM68.507 267.711V265.132C68.507 264.797 68.4015 264.521 68.1904 264.303C67.9794 264.086 67.7063 263.978 67.3711 263.978C67.1477 263.978 66.9491 264.027 66.7753 264.127C66.6015 264.226 66.465 264.362 66.3657 264.536C66.2664 264.71 66.2167 264.909 66.2167 265.132L65.8722 264.937C65.8722 264.601 65.9467 264.303 66.0957 264.043C66.2446 263.782 66.4526 263.577 66.7194 263.428C66.9863 263.273 67.2874 263.196 67.6225 263.196C67.9577 263.196 68.2525 263.279 68.507 263.447C68.7676 263.615 68.9725 263.835 69.1214 264.108C69.2704 264.375 69.3449 264.66 69.3449 264.964V267.711H68.507ZM65.3788 267.711V263.289H66.2167V267.711H65.3788ZM71.8851 267.804C71.6369 267.804 71.401 267.773 71.1776 267.711C70.9603 267.643 70.7586 267.55 70.5724 267.432C70.3862 267.308 70.2248 267.162 70.0883 266.994L70.6283 266.454C70.7896 266.653 70.9758 266.802 71.1869 266.901C71.3979 266.994 71.6337 267.041 71.8944 267.041C72.1551 267.041 72.3568 266.997 72.4996 266.91C72.6423 266.817 72.7137 266.69 72.7137 266.529C72.7137 266.367 72.6547 266.243 72.5368 266.156C72.4251 266.063 72.2792 265.989 72.0992 265.933C71.9193 265.871 71.7268 265.812 71.522 265.756C71.3234 265.694 71.1341 265.616 70.9541 265.523C70.7741 265.43 70.6252 265.303 70.5072 265.141C70.3955 264.98 70.3397 264.766 70.3397 264.499C70.3397 264.232 70.4048 264.002 70.5352 263.81C70.6655 263.611 70.8455 263.459 71.0751 263.354C71.311 263.248 71.5934 263.196 71.9224 263.196C72.2699 263.196 72.5772 263.258 72.844 263.382C73.1171 263.5 73.3406 263.68 73.5144 263.922L72.9744 264.462C72.8503 264.3 72.6951 264.176 72.5089 264.089C72.3289 264.002 72.1241 263.959 71.8944 263.959C71.6524 263.959 71.4662 264.002 71.3358 264.089C71.2117 264.17 71.1496 264.285 71.1496 264.434C71.1496 264.583 71.2055 264.698 71.3172 264.778C71.4289 264.859 71.5748 264.927 71.7548 264.983C71.941 265.039 72.1334 265.098 72.332 265.16C72.5306 265.216 72.7199 265.293 72.8999 265.393C73.0799 265.492 73.2258 265.625 73.3375 265.793C73.4554 265.961 73.5144 266.181 73.5144 266.454C73.5144 266.87 73.3654 267.199 73.0675 267.441C72.7758 267.683 72.3817 267.804 71.8851 267.804ZM76.5379 267.711V261.25H77.1524L79.8895 265.747H79.4706L82.2077 261.25H82.8222V267.711H81.947V262.786L82.1519 262.842L79.9919 266.389H79.3775L77.2176 262.842L77.4131 262.786V267.711H76.5379ZM86.0794 267.804C85.676 267.804 85.3098 267.705 84.9809 267.506C84.6519 267.301 84.3912 267.025 84.1988 266.678C84.0126 266.33 83.9195 265.939 83.9195 265.504C83.9195 265.07 84.0126 264.679 84.1988 264.331C84.3912 263.984 84.6488 263.708 84.9716 263.503C85.3005 263.298 85.6698 263.196 86.0794 263.196C86.4146 263.196 86.7125 263.267 86.9732 263.41C87.2401 263.546 87.4542 263.739 87.6156 263.987C87.777 264.229 87.867 264.511 87.8856 264.834V266.165C87.867 266.482 87.777 266.764 87.6156 267.013C87.4604 267.261 87.2494 267.456 86.9825 267.599C86.7218 267.736 86.4208 267.804 86.0794 267.804ZM86.2191 267.013C86.6349 267.013 86.9701 266.873 87.2246 266.594C87.4791 266.308 87.6063 265.945 87.6063 265.504C87.6063 265.2 87.5473 264.937 87.4294 264.713C87.3177 264.483 87.1563 264.307 86.9453 264.182C86.7343 264.052 86.4891 263.987 86.2098 263.987C85.9305 263.987 85.6822 264.052 85.465 264.182C85.254 264.313 85.0864 264.493 84.9622 264.722C84.8443 264.946 84.7854 265.203 84.7854 265.495C84.7854 265.793 84.8443 266.057 84.9622 266.287C85.0864 266.51 85.2571 266.687 85.4743 266.817C85.6915 266.948 85.9398 267.013 86.2191 267.013ZM87.5504 267.711V266.519L87.7087 265.439L87.5504 264.369V263.289H88.3976V267.711H87.5504ZM92.7457 267.711V265.132C92.7457 264.797 92.6402 264.521 92.4292 264.303C92.2181 264.086 91.945 263.978 91.6099 263.978C91.3864 263.978 91.1878 264.027 91.014 264.127C90.8403 264.226 90.7037 264.362 90.6044 264.536C90.5051 264.71 90.4554 264.909 90.4554 265.132L90.111 264.937C90.111 264.601 90.1854 264.303 90.3344 264.043C90.4834 263.782 90.6913 263.577 90.9582 263.428C91.2251 263.273 91.5261 263.196 91.8612 263.196C92.1964 263.196 92.4912 263.279 92.7457 263.447C93.0064 263.615 93.2112 263.835 93.3602 264.108C93.5091 264.375 93.5836 264.66 93.5836 264.964V267.711H92.7457ZM89.6175 267.711V263.289H90.4554V267.711H89.6175Z" fill="white"/>
<g opacity="0.2">
<path d="M267.052 270.861C270.724 270.861 273.702 267.884 273.702 264.211C273.702 260.538 270.724 257.561 267.052 257.561C263.379 257.561 260.402 260.538 260.402 264.211C260.402 267.884 263.379 270.861 267.052 270.861Z" fill="white"/>
</g>
<g opacity="0.2">
<path opacity="0.5" d="M267.051 267.536C268.888 267.536 270.376 266.047 270.376 264.211C270.376 262.375 268.888 260.886 267.051 260.886C265.215 260.886 263.727 262.375 263.727 264.211C263.727 266.047 265.215 267.536 267.051 267.536Z" fill="white" fill-opacity="0.15" stroke="white" stroke-width="1.33" stroke-miterlimit="10" stroke-linecap="round"/>
</g>
</g>
<g clip-path="url(#clip4_776_30515)">
<rect x="42.9467" y="294.801" width="240.065" height="34.58" rx="5.32" fill="white" fill-opacity="0.1"/>
<path d="M53.4031 315.591V309.316H54.2782V315.591H53.4031ZM51.2059 309.931V309.13H56.4661V309.931H51.2059ZM56.3688 315.591V311.169H57.2067V315.591H56.3688ZM57.2067 313.068L56.8902 312.929C56.8902 312.364 57.0205 311.914 57.2812 311.579C57.5419 311.244 57.9174 311.076 58.4077 311.076C58.6312 311.076 58.8329 311.116 59.0129 311.197C59.1929 311.271 59.3605 311.399 59.5156 311.579L58.9663 312.147C58.8732 312.047 58.7708 311.976 58.6591 311.932C58.5474 311.889 58.417 311.867 58.2681 311.867C57.9577 311.867 57.7033 311.967 57.5047 312.165C57.306 312.364 57.2067 312.665 57.2067 313.068ZM61.8407 315.684C61.4373 315.684 61.0711 315.585 60.7421 315.386C60.4132 315.182 60.1525 314.905 59.9601 314.558C59.7739 314.21 59.6808 313.819 59.6808 313.385C59.6808 312.95 59.7739 312.559 59.9601 312.212C60.1525 311.864 60.4101 311.588 60.7328 311.383C61.0618 311.178 61.4311 311.076 61.8407 311.076C62.1759 311.076 62.4738 311.147 62.7345 311.29C63.0014 311.427 63.2155 311.619 63.3769 311.867C63.5382 312.109 63.6282 312.392 63.6469 312.715V314.046C63.6282 314.362 63.5382 314.645 63.3769 314.893C63.2217 315.141 63.0107 315.337 62.7438 315.48C62.4831 315.616 62.1821 315.684 61.8407 315.684ZM61.9804 314.893C62.3962 314.893 62.7314 314.753 62.9858 314.474C63.2403 314.189 63.3676 313.826 63.3676 313.385C63.3676 313.081 63.3086 312.817 63.1907 312.593C63.0789 312.364 62.9176 312.187 62.7065 312.063C62.4955 311.932 62.2504 311.867 61.9711 311.867C61.6918 311.867 61.4435 311.932 61.2263 312.063C61.0152 312.193 60.8477 312.373 60.7235 312.603C60.6056 312.826 60.5466 313.084 60.5466 313.376C60.5466 313.673 60.6056 313.937 60.7235 314.167C60.8477 314.39 61.0183 314.567 61.2356 314.698C61.4528 314.828 61.7011 314.893 61.9804 314.893ZM63.3117 315.591V314.4L63.47 313.32L63.3117 312.249V311.169H64.1589V315.591H63.3117ZM68.507 315.591V313.012C68.507 312.677 68.4015 312.401 68.1904 312.184C67.9794 311.967 67.7063 311.858 67.3711 311.858C67.1477 311.858 66.9491 311.908 66.7753 312.007C66.6015 312.106 66.465 312.243 66.3657 312.417C66.2664 312.59 66.2167 312.789 66.2167 313.012L65.8722 312.817C65.8722 312.482 65.9467 312.184 66.0957 311.923C66.2446 311.662 66.4526 311.458 66.7194 311.309C66.9863 311.154 67.2874 311.076 67.6225 311.076C67.9577 311.076 68.2525 311.16 68.507 311.327C68.7676 311.495 68.9725 311.715 69.1214 311.988C69.2704 312.255 69.3449 312.541 69.3449 312.845V315.591H68.507ZM65.3788 315.591V311.169H66.2167V315.591H65.3788ZM71.8851 315.684C71.6369 315.684 71.401 315.653 71.1776 315.591C70.9603 315.523 70.7586 315.43 70.5724 315.312C70.3862 315.188 70.2248 315.042 70.0883 314.874L70.6283 314.334C70.7896 314.533 70.9758 314.682 71.1869 314.781C71.3979 314.874 71.6337 314.921 71.8944 314.921C72.1551 314.921 72.3568 314.878 72.4996 314.791C72.6423 314.698 72.7137 314.57 72.7137 314.409C72.7137 314.248 72.6547 314.123 72.5368 314.037C72.4251 313.943 72.2792 313.869 72.0992 313.813C71.9193 313.751 71.7268 313.692 71.522 313.636C71.3234 313.574 71.1341 313.497 70.9541 313.403C70.7741 313.31 70.6252 313.183 70.5072 313.022C70.3955 312.86 70.3397 312.646 70.3397 312.379C70.3397 312.112 70.4048 311.883 70.5352 311.69C70.6655 311.492 70.8455 311.34 71.0751 311.234C71.311 311.129 71.5934 311.076 71.9224 311.076C72.2699 311.076 72.5772 311.138 72.844 311.262C73.1171 311.38 73.3406 311.56 73.5144 311.802L72.9744 312.342C72.8503 312.181 72.6951 312.057 72.5089 311.97C72.3289 311.883 72.1241 311.839 71.8944 311.839C71.6524 311.839 71.4662 311.883 71.3358 311.97C71.2117 312.05 71.1496 312.165 71.1496 312.314C71.1496 312.463 71.2055 312.578 71.3172 312.659C71.4289 312.739 71.5748 312.808 71.7548 312.863C71.941 312.919 72.1334 312.978 72.332 313.04C72.5306 313.096 72.7199 313.174 72.8999 313.273C73.0799 313.372 73.2258 313.506 73.3375 313.673C73.4554 313.841 73.5144 314.061 73.5144 314.334C73.5144 314.75 73.3654 315.079 73.0675 315.321C72.7758 315.563 72.3817 315.684 71.8851 315.684ZM78.1858 315.591L76.0724 309.13H76.9476L78.6234 314.4H78.372L80.0199 309.13H80.653L82.3008 314.4H82.0588L83.7346 309.13H84.6004L82.4963 315.591H81.8726L80.2154 310.331H80.4574L78.8096 315.591H78.1858ZM86.8646 315.684C86.4301 315.684 86.0391 315.582 85.6916 315.377C85.344 315.172 85.0678 314.896 84.863 314.549C84.6581 314.195 84.5557 313.801 84.5557 313.366C84.5557 312.938 84.6581 312.553 84.863 312.212C85.0678 311.864 85.344 311.588 85.6916 311.383C86.0391 311.178 86.4301 311.076 86.8646 311.076C87.2929 311.076 87.6808 311.178 88.0284 311.383C88.3821 311.582 88.6614 311.855 88.8663 312.202C89.0711 312.55 89.1735 312.938 89.1735 313.366C89.1735 313.801 89.0711 314.195 88.8663 314.549C88.6614 314.896 88.3821 315.172 88.0284 315.377C87.6808 315.582 87.2929 315.684 86.8646 315.684ZM86.8646 314.874C87.1439 314.874 87.3922 314.809 87.6094 314.679C87.8266 314.549 87.9973 314.372 88.1215 314.148C88.2456 313.919 88.3077 313.658 88.3077 313.366C88.3077 313.081 88.2425 312.826 88.1122 312.603C87.988 312.379 87.8173 312.206 87.6001 312.081C87.3891 311.951 87.1439 311.886 86.8646 311.886C86.5853 311.886 86.337 311.951 86.1198 312.081C85.9026 312.206 85.7319 312.379 85.6078 312.603C85.4836 312.826 85.4216 313.081 85.4216 313.366C85.4216 313.658 85.4836 313.919 85.6078 314.148C85.7319 314.372 85.9026 314.549 86.1198 314.679C86.337 314.809 86.5853 314.874 86.8646 314.874ZM90.1176 315.591V311.169H90.9555V315.591H90.1176ZM93.1061 315.591V312.919C93.1061 312.59 93.0037 312.333 92.7989 312.147C92.6003 311.954 92.3489 311.858 92.0448 311.858C91.8399 311.858 91.6568 311.901 91.4955 311.988C91.3341 312.075 91.2038 312.196 91.1044 312.351C91.0051 312.507 90.9555 312.693 90.9555 312.91L90.611 312.742C90.611 312.407 90.6824 312.116 90.8251 311.867C90.9741 311.619 91.1758 311.427 91.4303 311.29C91.6848 311.147 91.9703 311.076 92.2868 311.076C92.5972 311.076 92.8765 311.144 93.1247 311.281C93.3792 311.417 93.5778 311.61 93.7206 311.858C93.8695 312.106 93.944 312.401 93.944 312.742V315.591H93.1061ZM96.0946 315.591V312.919C96.0946 312.59 95.9922 312.333 95.7874 312.147C95.5888 311.954 95.3405 311.858 95.0426 311.858C94.8378 311.858 94.6516 311.901 94.484 311.988C94.3226 312.075 94.1923 312.196 94.093 312.351C93.9937 312.507 93.944 312.693 93.944 312.91L93.4692 312.742C93.4878 312.401 93.5778 312.109 93.7392 311.867C93.9068 311.619 94.1209 311.427 94.3816 311.29C94.6422 311.147 94.9278 311.076 95.2381 311.076C95.5608 311.076 95.8494 311.144 96.1039 311.281C96.3584 311.417 96.5601 311.61 96.7091 311.858C96.8642 312.106 96.9418 312.404 96.9418 312.752V315.591H96.0946ZM99.9626 315.684C99.5592 315.684 99.193 315.585 98.864 315.386C98.5351 315.182 98.2744 314.905 98.082 314.558C97.8958 314.21 97.8027 313.819 97.8027 313.385C97.8027 312.95 97.8958 312.559 98.082 312.212C98.2744 311.864 98.532 311.588 98.8547 311.383C99.1837 311.178 99.553 311.076 99.9626 311.076C100.298 311.076 100.596 311.147 100.856 311.29C101.123 311.427 101.337 311.619 101.499 311.867C101.66 312.109 101.75 312.392 101.769 312.715V314.046C101.75 314.362 101.66 314.645 101.499 314.893C101.344 315.141 101.133 315.337 100.866 315.48C100.605 315.616 100.304 315.684 99.9626 315.684ZM100.102 314.893C100.518 314.893 100.853 314.753 101.108 314.474C101.362 314.189 101.489 313.826 101.489 313.385C101.489 313.081 101.43 312.817 101.313 312.593C101.201 312.364 101.039 312.187 100.828 312.063C100.617 311.932 100.372 311.867 100.093 311.867C99.8137 311.867 99.5654 311.932 99.3482 312.063C99.1371 312.193 98.9696 312.373 98.8454 312.603C98.7275 312.826 98.6685 313.084 98.6685 313.376C98.6685 313.673 98.7275 313.937 98.8454 314.167C98.9696 314.39 99.1402 314.567 99.3575 314.698C99.5747 314.828 99.823 314.893 100.102 314.893ZM101.434 315.591V314.4L101.592 313.32L101.434 312.249V311.169H102.281V315.591H101.434ZM106.629 315.591V313.012C106.629 312.677 106.523 312.401 106.312 312.184C106.101 311.967 105.828 311.858 105.493 311.858C105.27 311.858 105.071 311.908 104.897 312.007C104.723 312.106 104.587 312.243 104.488 312.417C104.388 312.59 104.339 312.789 104.339 313.012L103.994 312.817C103.994 312.482 104.069 312.184 104.218 311.923C104.367 311.662 104.574 311.458 104.841 311.309C105.108 311.154 105.409 311.076 105.744 311.076C106.08 311.076 106.374 311.16 106.629 311.327C106.89 311.495 107.094 311.715 107.243 311.988C107.392 312.255 107.467 312.541 107.467 312.845V315.591H106.629ZM103.501 315.591V311.169H104.339V315.591H103.501Z" fill="white"/>
<g opacity="0.2">
<path d="M267.052 318.741C270.724 318.741 273.702 315.764 273.702 312.091C273.702 308.419 270.724 305.441 267.052 305.441C263.379 305.441 260.402 308.419 260.402 312.091C260.402 315.764 263.379 318.741 267.052 318.741Z" fill="white"/>
</g>
<g opacity="0.2">
<path opacity="0.5" d="M267.051 315.416C268.888 315.416 270.376 313.928 270.376 312.091C270.376 310.255 268.888 308.767 267.051 308.767C265.215 308.767 263.727 310.255 263.727 312.091C263.727 313.928 265.215 315.416 267.051 315.416Z" fill="white" fill-opacity="0.15" stroke="white" stroke-width="1.33" stroke-miterlimit="10" stroke-linecap="round"/>
</g>
</g>
<g clip-path="url(#clip5_776_30515)">
<rect x="42.9467" y="342.681" width="240.065" height="34.58" rx="5.32" fill="white" fill-opacity="0.1"/>
</g>
<g filter="url(#filter1_ii_776_30515)">
<path d="M216.75 17.8032C250.683 17.8032 267.65 17.8034 279.544 26.4448C283.386 29.2357 286.764 32.6142 289.555 36.4556C298.197 48.3498 298.197 65.3169 298.197 99.2505V483.75C298.197 517.684 298.197 534.65 289.555 546.544C286.764 550.386 283.386 553.764 279.544 556.555C267.65 565.197 250.683 565.197 216.75 565.197H109.25C75.3169 565.197 58.3498 565.197 46.4556 556.555C42.6142 553.764 39.2357 550.386 36.4448 546.544C27.8034 534.65 27.8032 517.683 27.8032 483.75V99.2505C27.8032 65.317 27.8033 48.3498 36.4448 36.4556C39.2357 32.6142 42.6142 29.2357 46.4556 26.4448C58.3498 17.8033 75.3169 17.8032 109.25 17.8032H216.75ZM101.092 28.0005C74.806 28.0005 61.6625 27.9998 52.4487 34.6938C49.473 36.8558 46.8558 39.473 44.6938 42.4487C37.9998 51.6625 38.0005 64.806 38.0005 91.0923V491.908C38.0005 518.194 37.9998 531.338 44.6938 540.551C46.8558 543.527 49.473 546.144 52.4487 548.306C61.6625 555 74.806 555 101.092 555H224.908C251.194 555 264.337 555 273.551 548.306C276.527 546.144 279.144 543.527 281.306 540.551C288 531.338 288 518.194 288 491.908V91.0923C288 64.806 288 51.6625 281.306 42.4487C279.144 39.473 276.527 36.8558 273.551 34.6938C264.337 27.9998 251.194 28.0005 224.908 28.0005H101.092Z" fill="white"/>
</g>
<g filter="url(#filter2_i_776_30515)">
<rect x="219.809" y="17.8032" width="3.8238" height="3.1865" fill="white"/>
</g>
<path d="M219.299 20.9897C250.843 20.9897 266.615 20.9901 277.671 29.0229C281.242 31.6173 284.383 34.7578 286.977 38.3286C295.01 49.3852 295.01 65.1569 295.01 96.7007V486.299C295.01 517.843 295.01 533.615 286.977 544.671C284.383 548.242 281.242 551.383 277.671 553.977C266.615 562.01 250.843 562.01 219.299 562.01H106.701C75.1569 562.01 59.3851 562.01 48.3286 553.977C44.7577 551.383 41.6172 548.242 39.0229 544.671C30.99 533.615 30.9897 517.843 30.9897 486.299V96.7007C30.9897 65.157 30.99 49.3852 39.0229 38.3286C41.6172 34.7578 44.7577 31.6173 48.3286 29.0229C59.3851 20.99 75.1569 20.9897 106.701 20.9897H219.299ZM101.092 28.0005C74.8059 28.0005 61.6624 27.9998 52.4487 34.6938C49.473 36.8558 46.8557 39.473 44.6938 42.4487C37.9997 51.6625 38.0004 64.806 38.0004 91.0923V491.908C38.0004 518.194 37.9997 531.337 44.6938 540.551C46.8557 543.527 49.473 546.144 52.4487 548.306C61.6624 555 74.8059 555 101.092 555H224.908C251.194 555 264.337 555 273.551 548.306C276.527 546.144 279.144 543.527 281.306 540.551C288 531.337 288 518.194 288 491.908V91.0923C288 64.806 288 51.6625 281.306 42.4487C279.144 39.473 276.527 36.8558 273.551 34.6938C264.337 27.9998 251.194 28.0005 224.908 28.0005H101.092Z" fill="black"/>
<g filter="url(#filter3_i_776_30515)">
<path d="M25.8913 225.882C25.8913 225.354 26.3193 224.926 26.8472 224.926H27.8032V267.625H26.8472C26.3193 267.625 25.8913 267.197 25.8913 266.669V225.882Z" fill="white"/>
</g>
<g filter="url(#filter4_i_776_30515)">
<path d="M25.8913 171.074C25.8913 170.546 26.3193 170.118 26.8472 170.118H27.8032V212.817H26.8472C26.3193 212.817 25.8913 212.389 25.8913 211.861V171.074Z" fill="white"/>
</g>
<g filter="url(#filter5_i_776_30515)">
<path d="M25.8913 127.737C25.8913 127.209 26.3193 126.781 26.8472 126.781H27.8032V149.087H26.8472C26.3193 149.087 25.8913 148.659 25.8913 148.131V127.737Z" fill="white"/>
</g>
<g filter="url(#filter6_i_776_30515)">
<path d="M298.197 199.434H299.153C299.681 199.434 300.109 199.862 300.109 200.39V266.669C300.109 267.197 299.681 267.625 299.153 267.625H298.197V199.434Z" fill="white"/>
</g>
<path d="M58.9419 51.2547V49.7893H55.2071V48.6731C56.1963 46.9538 57.2808 45.1975 58.3177 43.6211H60.2485V48.6625H61.2748V49.7893H60.2485V51.2547H58.9419ZM56.4767 48.6943H58.9631V44.7109H58.8837C58.1008 45.9064 57.2173 47.3189 56.4767 48.6149V48.6943Z" fill="white"/>
<path d="M63.3906 46.3113C62.9092 46.3113 62.5494 45.941 62.5494 45.4755C62.5494 45.0047 62.9092 44.6396 63.3906 44.6396C63.8773 44.6396 64.2317 45.0047 64.2317 45.4755C64.2317 45.941 63.8773 46.3113 63.3906 46.3113ZM63.3906 50.2366C62.9092 50.2366 62.5494 49.8715 62.5494 49.4007C62.5494 48.9299 62.9092 48.5649 63.3906 48.5649C63.8773 48.5649 64.2317 48.9299 64.2317 49.4007C64.2317 49.8715 63.8773 50.2366 63.3906 50.2366Z" fill="white"/>
<path d="M67.4954 51.2547V44.9648H67.4054L65.5063 46.3085V45.023L67.5006 43.6211H68.8602V51.2547H67.4954Z" fill="white"/>
<path d="M72.9703 43.4307C74.5996 43.4307 76.0173 44.5892 76.0173 47.34V47.3506C76.0173 49.9216 74.8588 51.4451 72.9385 51.4451C71.5366 51.4451 70.4892 50.6146 70.2459 49.4455L70.2353 49.3873H71.579L71.5948 49.4402C71.7959 49.9745 72.2667 50.3236 72.9385 50.3236C74.1499 50.3236 74.6631 49.1387 74.7213 47.6786C74.7213 47.6204 74.7266 47.5622 74.7266 47.504H74.6208C74.3404 48.1071 73.6738 48.6414 72.6264 48.6414C71.161 48.6414 70.1348 47.5728 70.1348 46.1233V46.1127C70.1348 44.5627 71.3145 43.4307 72.9703 43.4307ZM72.965 47.594C73.8272 47.594 74.4885 46.9697 74.4885 46.1074V46.0969C74.4885 45.224 73.8272 44.5416 72.9808 44.5416C72.1397 44.5416 71.4679 45.2134 71.4679 46.0651V46.0757C71.4679 46.9592 72.0974 47.594 72.965 47.594Z" fill="white"/>
<path opacity="0.35" d="M256.516 43.6313H267.35C268.572 43.6313 269.564 44.6222 269.564 45.8442V49.0308C269.564 50.253 268.572 51.2437 267.35 51.2437H256.516C255.294 51.2435 254.303 50.2528 254.303 49.0308V45.8442C254.304 44.6223 255.294 43.6315 256.516 43.6313Z" stroke="white" stroke-width="0.672406"/>
<path opacity="0.4" d="M270.537 46.4819V49.1716C271.078 48.9438 271.43 48.4138 271.43 47.8267C271.43 47.2396 271.078 46.7097 270.537 46.4819Z" fill="white"/>
<path d="M255.242 45.8444C255.242 45.1405 255.813 44.5698 256.517 44.5698H267.351C268.055 44.5698 268.625 45.1405 268.625 45.8444V49.0309C268.625 49.7349 268.055 50.3055 267.351 50.3055H256.517C255.813 50.3055 255.242 49.7349 255.242 49.0309V45.8444Z" fill="white"/>
<path fill-rule="evenodd" clip-rule="evenodd" d="M243.207 49.0856C244.112 48.3045 245.437 48.3045 246.342 49.0856C246.387 49.1276 246.414 49.187 246.415 49.2496C246.416 49.3123 246.392 49.3728 246.349 49.4166L244.932 50.8756C244.89 50.9185 244.833 50.943 244.774 50.943C244.715 50.943 244.659 50.9185 244.617 50.8756L243.2 49.4166C243.156 49.3727 243.133 49.3123 243.134 49.2496C243.135 49.187 243.161 49.1276 243.207 49.0856ZM241.291 47.2858C243.24 45.4348 246.259 45.435 248.209 47.2858C248.253 47.3292 248.279 47.3893 248.279 47.4518C248.28 47.5141 248.256 47.5746 248.213 47.6188L247.394 48.4635C247.309 48.5495 247.172 48.5513 247.086 48.4674C246.446 47.8757 245.613 47.5474 244.749 47.5475C243.886 47.548 243.054 47.8762 242.414 48.4674C242.328 48.551 242.192 48.5493 242.107 48.4635L241.288 47.6188C241.245 47.5746 241.221 47.5142 241.222 47.4518C241.222 47.3893 241.247 47.3292 241.291 47.2858ZM239.378 45.4889C242.368 42.5642 247.085 42.5643 250.075 45.4889C250.118 45.5323 250.143 45.592 250.144 45.6539C250.144 45.7159 250.12 45.776 250.077 45.82L249.258 46.6647C249.173 46.7513 249.036 46.7519 248.95 46.6666C247.811 45.5611 246.299 44.945 244.727 44.945C243.155 44.945 241.643 45.5613 240.504 46.6666C240.418 46.752 240.281 46.7512 240.196 46.6647L239.376 45.82C239.333 45.776 239.309 45.7159 239.31 45.6539C239.31 45.592 239.335 45.5323 239.378 45.4889Z" fill="white"/>
<path d="M229.75 45.2073C229.75 44.8553 230.035 44.57 230.387 44.57H231.025C231.377 44.57 231.662 44.8553 231.662 45.2073V50.3057C231.662 50.6577 231.377 50.943 231.025 50.943H230.387C230.035 50.943 229.75 50.6577 229.75 50.3057V45.2073Z" fill="white"/>
<path d="M232.937 43.9327C232.937 43.5807 233.222 43.2954 233.574 43.2954H234.211C234.563 43.2954 234.848 43.5807 234.848 43.9327V50.3057C234.848 50.6577 234.563 50.943 234.211 50.943H233.574C233.222 50.943 232.937 50.6577 232.937 50.3057V43.9327Z" fill="white"/>
<path d="M226.564 47.4379C226.564 47.0859 226.849 46.8006 227.201 46.8006H227.838C228.19 46.8006 228.475 47.0859 228.475 47.4379V50.3057C228.475 50.6577 228.19 50.943 227.838 50.943H227.201C226.849 50.943 226.564 50.6577 226.564 50.3057V47.4379Z" fill="white"/>
<path d="M223.377 49.0311C223.377 48.6791 223.662 48.3938 224.014 48.3938H224.652C225.004 48.3938 225.289 48.6791 225.289 49.0311V50.3057C225.289 50.6577 225.004 50.943 224.652 50.943H224.014C223.662 50.943 223.377 50.6577 223.377 50.3057V49.0311Z" fill="white"/>
<rect x="122.85" y="34.373" width="79.6625" height="24.2174" rx="12.1087" fill="#030303"/>
<circle cx="186.975" cy="46.8771" r="6.13096" fill="#0E0B0F"/>
<circle cx="186.975" cy="46.8773" r="3.40609" fill="#161424"/>
<circle cx="186.975" cy="46.8772" r="2.04365" fill="#0F0F2A"/>
<circle cx="186.975" cy="46.1959" r="0.681218" fill="#393752"/>
</g>
<defs>
<filter id="filter0_f_776_30515" x="-170.305" y="-59.8086" width="752.986" height="668.601" filterUnits="userSpaceOnUse" color-interpolation-filters="sRGB">
<feFlood flood-opacity="0" result="BackgroundImageFix"/>
<feBlend mode="normal" in="SourceGraphic" in2="BackgroundImageFix" result="shape"/>
<feGaussianBlur stdDeviation="100" result="effect1_foregroundBlur_776_30515"/>
</filter>
<filter id="filter1_ii_776_30515" x="27.8032" y="17.8032" width="270.394" height="548.668" filterUnits="userSpaceOnUse" color-interpolation-filters="sRGB">
<feFlood flood-opacity="0" result="BackgroundImageFix"/>
<feBlend mode="normal" in="SourceGraphic" in2="BackgroundImageFix" result="shape"/>
<feColorMatrix in="SourceAlpha" type="matrix" values="0 0 0 0 0 0 0 0 0 0 0 0 0 0 0 0 0 0 127 0" result="hardAlpha"/>
<feOffset/>
<feGaussianBlur stdDeviation="2.5492"/>
<feComposite in2="hardAlpha" operator="arithmetic" k2="-1" k3="1"/>
<feColorMatrix type="matrix" values="0 0 0 0 0 0 0 0 0 0 0 0 0 0 0 0 0 0 0.6 0"/>
<feBlend mode="normal" in2="shape" result="effect1_innerShadow_776_30515"/>
<feColorMatrix in="SourceAlpha" type="matrix" values="0 0 0 0 0 0 0 0 0 0 0 0 0 0 0 0 0 0 127 0" result="hardAlpha"/>
<feOffset dy="1.2746"/>
<feGaussianBlur stdDeviation="1.2746"/>
<feComposite in2="hardAlpha" operator="arithmetic" k2="-1" k3="1"/>
<feColorMatrix type="matrix" values="0 0 0 0 1 0 0 0 0 1 0 0 0 0 1 0 0 0 0.25 0"/>
<feBlend mode="normal" in2="effect1_innerShadow_776_30515" result="effect2_innerShadow_776_30515"/>
</filter>
<filter id="filter2_i_776_30515" x="219.809" y="17.8032" width="3.82385" height="3.18652" filterUnits="userSpaceOnUse" color-interpolation-filters="sRGB">
<feFlood flood-opacity="0" result="BackgroundImageFix"/>
<feBlend mode="normal" in="SourceGraphic" in2="BackgroundImageFix" result="shape"/>
<feColorMatrix in="SourceAlpha" type="matrix" values="0 0 0 0 0 0 0 0 0 0 0 0 0 0 0 0 0 0 127 0" result="hardAlpha"/>
<feMorphology radius="1.9119" operator="erode" in="SourceAlpha" result="effect1_innerShadow_776_30515"/>
<feOffset/>
<feGaussianBlur stdDeviation="0.6373"/>
<feComposite in2="hardAlpha" operator="arithmetic" k2="-1" k3="1"/>
<feColorMatrix type="matrix" values="0 0 0 0 0 0 0 0 0 0 0 0 0 0 0 0 0 0 0.1 0"/>
<feBlend mode="normal" in2="shape" result="effect1_innerShadow_776_30515"/>
</filter>
<filter id="filter3_i_776_30515" x="25.8913" y="223.651" width="1.91193" height="43.9738" filterUnits="userSpaceOnUse" color-interpolation-filters="sRGB">
<feFlood flood-opacity="0" result="BackgroundImageFix"/>
<feBlend mode="normal" in="SourceGraphic" in2="BackgroundImageFix" result="shape"/>
<feColorMatrix in="SourceAlpha" type="matrix" values="0 0 0 0 0 0 0 0 0 0 0 0 0 0 0 0 0 0 127 0" result="hardAlpha"/>
<feOffset dy="-1.2746"/>
<feGaussianBlur stdDeviation="0.95595"/>
<feComposite in2="hardAlpha" operator="arithmetic" k2="-1" k3="1"/>
<feColorMatrix type="matrix" values="0 0 0 0 0 0 0 0 0 0 0 0 0 0 0 0 0 0 0.25 0"/>
<feBlend mode="normal" in2="shape" result="effect1_innerShadow_776_30515"/>
</filter>
<filter id="filter4_i_776_30515" x="25.8913" y="168.843" width="1.91193" height="43.9738" filterUnits="userSpaceOnUse" color-interpolation-filters="sRGB">
<feFlood flood-opacity="0" result="BackgroundImageFix"/>
<feBlend mode="normal" in="SourceGraphic" in2="BackgroundImageFix" result="shape"/>
<feColorMatrix in="SourceAlpha" type="matrix" values="0 0 0 0 0 0 0 0 0 0 0 0 0 0 0 0 0 0 127 0" result="hardAlpha"/>
<feOffset dy="-1.2746"/>
<feGaussianBlur stdDeviation="0.95595"/>
<feComposite in2="hardAlpha" operator="arithmetic" k2="-1" k3="1"/>
<feColorMatrix type="matrix" values="0 0 0 0 0 0 0 0 0 0 0 0 0 0 0 0 0 0 0.25 0"/>
<feBlend mode="normal" in2="shape" result="effect1_innerShadow_776_30515"/>
</filter>
<filter id="filter5_i_776_30515" x="25.8913" y="125.507" width="1.91193" height="23.5803" filterUnits="userSpaceOnUse" color-interpolation-filters="sRGB">
<feFlood flood-opacity="0" result="BackgroundImageFix"/>
<feBlend mode="normal" in="SourceGraphic" in2="BackgroundImageFix" result="shape"/>
<feColorMatrix in="SourceAlpha" type="matrix" values="0 0 0 0 0 0 0 0 0 0 0 0 0 0 0 0 0 0 127 0" result="hardAlpha"/>
<feOffset dy="-1.2746"/>
<feGaussianBlur stdDeviation="0.95595"/>
<feComposite in2="hardAlpha" operator="arithmetic" k2="-1" k3="1"/>
<feColorMatrix type="matrix" values="0 0 0 0 0 0 0 0 0 0 0 0 0 0 0 0 0 0 0.25 0"/>
<feBlend mode="normal" in2="shape" result="effect1_innerShadow_776_30515"/>
</filter>
<filter id="filter6_i_776_30515" x="298.197" y="198.159" width="1.91187" height="69.4655" filterUnits="userSpaceOnUse" color-interpolation-filters="sRGB">
<feFlood flood-opacity="0" result="BackgroundImageFix"/>
<feBlend mode="normal" in="SourceGraphic" in2="BackgroundImageFix" result="shape"/>
<feColorMatrix in="SourceAlpha" type="matrix" values="0 0 0 0 0 0 0 0 0 0 0 0 0 0 0 0 0 0 127 0" result="hardAlpha"/>
<feOffset dy="-1.2746"/>
<feGaussianBlur stdDeviation="0.95595"/>
<feComposite in2="hardAlpha" operator="arithmetic" k2="-1" k3="1"/>
<feColorMatrix type="matrix" values="0 0 0 0 0 0 0 0 0 0 0 0 0 0 0 0 0 0 0.25 0"/>
<feBlend mode="normal" in2="shape" result="effect1_innerShadow_776_30515"/>
</filter>
<linearGradient id="paint0_linear_776_30515" x1="206.198" y1="140.191" x2="206.198" y2="408.787" gradientUnits="userSpaceOnUse">
<stop stop-color="#FFE02E"/>
<stop offset="0.4" stop-color="#FA8AE5"/>
<stop offset="0.56" stop-color="#BDA9EC"/>
<stop offset="0.77" stop-color="#70D2F6"/>
<stop offset="0.92" stop-color="#40EBFC"/>
<stop offset="1" stop-color="#0FF2F2"/>
</linearGradient>
<linearGradient id="paint1_linear_776_30515" x1="273.037" y1="80.9111" x2="273.037" y2="100.861" gradientUnits="userSpaceOnUse">
<stop stop-color="#FFE02E"/>
<stop offset="0.4" stop-color="#FA8AE5"/>
<stop offset="0.56" stop-color="#BDA9EC"/>
<stop offset="0.77" stop-color="#70D2F6"/>
<stop offset="0.92" stop-color="#40EBFC"/>
<stop offset="1" stop-color="#0FF2F2"/>
</linearGradient>
<clipPath id="clip0_776_30515">
<path d="M0 60C0 26.8629 26.8629 0 60 0H262.5C295.637 0 322.5 26.8629 322.5 60V350H0V60Z" fill="white"/>
</clipPath>
<clipPath id="clip1_776_30515">
<rect width="240.065" height="34.58" fill="white" transform="translate(42.9467 151.161)"/>
</clipPath>
<clipPath id="clip2_776_30515">
<rect width="240.065" height="34.58" fill="white" transform="translate(42.9467 199.041)"/>
</clipPath>
<clipPath id="clip3_776_30515">
<rect width="240.065" height="34.58" fill="white" transform="translate(42.9467 246.921)"/>
</clipPath>
<clipPath id="clip4_776_30515">
<rect width="240.065" height="34.58" fill="white" transform="translate(42.9467 294.801)"/>
</clipPath>
<clipPath id="clip5_776_30515">
<rect width="240.065" height="34.58" fill="white" transform="translate(42.9467 342.681)"/>
</clipPath>
</defs>
</svg>
