<svg width="350" height="653" viewBox="0 0 350 653" fill="none" xmlns="http://www.w3.org/2000/svg">
<path d="M90.5 59.0214C90.5 34.2684 110.566 14.2021 135.319 14.2021H397.96C422.713 14.2021 442.78 34.2684 442.78 59.0214V733.103C442.78 757.856 422.713 777.923 397.96 777.923H135.319C110.566 777.923 90.5 757.856 90.5 733.103V59.0214Z" fill="white"/>
<path d="M92.2927 58.6513C92.2927 33.8983 112.359 13.832 137.112 13.832H399.753C424.506 13.832 444.572 33.8983 444.572 58.6513V732.733C444.572 757.486 424.506 777.552 399.753 777.552H137.112C112.359 777.552 92.2927 757.486 92.2927 732.733V58.6513Z" fill="url(#paint0_linear_99_5782)" fill-opacity="0.2"/>
<path d="M258.645 121.769L252.613 123.674V123.775C253.673 124.945 254.337 126.349 254.337 128.789V143.128C254.337 145.835 254.005 147.072 253.508 148.241V148.307H259.473V148.241C258.975 147.07 258.644 145.801 258.644 143.094V121.769H258.645Z" fill="#090316"/>
<path d="M234.153 123.908C235.214 126.18 235.545 127.417 235.545 130.491V141.654C235.545 144.695 235.214 145.965 234.153 148.237V148.304H241.71V148.237C240.649 145.965 240.318 144.694 240.318 141.686V136.271H243.234C244.99 136.271 246.548 138.477 247.575 139.68H247.972V131.759H247.575C246.514 132.995 244.956 135.167 243.234 135.167H240.318V124.71L246.151 125.01C247.675 125.076 250.162 128.652 251.884 130.425L252.381 130.258L251.089 123.84H234.153V123.908Z" fill="#090316"/>
<path d="M266.449 130.993L260.416 132.864V133.066C261.477 134.268 262.106 135.707 262.106 138.112V141.789C262.106 144.796 261.775 146.402 261.277 148.239V148.305H267.242V148.239C266.613 146.402 266.447 144.73 266.447 141.754V130.993H266.449Z" fill="#090316"/>
<path d="M309.831 128.386C311.223 128.386 312.382 127.282 312.382 125.912C312.382 124.543 311.221 123.372 309.831 123.372C308.441 123.372 307.378 124.508 307.378 125.912C307.378 127.316 308.473 128.386 309.831 128.386Z" fill="#090316"/>
<path d="M263.964 128.386C265.356 128.386 266.515 127.282 266.515 125.912C266.515 124.543 265.355 123.372 263.964 123.372C262.574 123.372 261.511 124.508 261.511 125.912C261.511 127.316 262.606 128.386 263.964 128.386Z" fill="#090316"/>
<path d="M288.905 146.569C287.447 146.569 286.586 145.834 286.586 144.129V132.8H290.961V131.664H286.586V127.719H286.222L280.323 132.232V132.8H282.213V144.365C282.213 147.675 284.135 148.811 286.488 148.811C288.841 148.811 290.465 147.675 291.326 146.271L291.094 145.97C290.928 146.071 290.165 146.573 288.907 146.573L288.905 146.569Z" fill="#090316"/>
<path d="M335.671 131.662V131.762C336.3 132.498 336.997 134.47 336.002 136.776L333.449 143.06L330.765 136.341C329.936 134.268 330.267 132.463 330.731 131.762V131.662H320.15V127.717H319.784L313.885 132.23V132.798H315.775V144.363C315.775 147.673 317.697 148.809 320.05 148.809C322.403 148.809 324.027 147.673 324.888 146.269L324.657 145.968C324.491 146.069 323.728 146.571 322.469 146.571C321.011 146.571 320.15 145.835 320.15 144.131V132.802H324.513C324.971 133.548 325.437 134.578 326.124 136.311L331.128 148.744L331.094 148.845C329.868 151.853 326.554 151.988 324.964 151.887L325.03 155.831C327.88 155.263 329.836 154.427 332.123 149.046L337.293 136.446C338.32 134.039 338.951 133.037 340.143 131.766V131.665H335.669L335.671 131.662Z" fill="#090316"/>
<path d="M274.151 135.205H274.085V130.993L268.218 132.864V132.931C269.279 134.134 269.942 135.538 269.942 138.011V141.789C269.942 144.83 269.71 146.402 269.081 148.239V148.305H275.046V148.239C274.417 146.402 274.251 144.764 274.251 141.754V136.307C274.88 135.471 275.643 134.97 276.207 134.97C277.002 134.97 278.594 135.538 279.421 136.206H279.686L280.084 131.16C277.399 130.926 275.577 133.4 274.151 135.205Z" fill="#090316"/>
<path d="M312.318 130.993L306.285 132.864V133.066C307.346 134.268 307.975 135.707 307.975 138.112V141.789C307.975 144.796 307.644 146.402 307.146 148.239V148.305H313.111V148.239C312.482 146.402 312.316 144.73 312.316 141.754V130.993H312.318Z" fill="#090316"/>
<path d="M301.343 145.433C298.063 145.433 295.642 143.227 295.642 138.547C295.642 134.536 297.398 132.163 299.819 132.163C301.675 132.163 303.631 134.335 305.055 136.541L305.453 136.408L304.955 131.996C304.094 131.627 302.636 131.16 300.381 131.16C295.377 131.16 291.3 134.97 291.3 140.318C291.3 145.666 294.416 148.807 299.054 148.807C302.634 148.807 304.987 146.835 305.948 144.095L305.616 143.827C304.622 144.897 302.998 145.431 301.342 145.431L301.343 145.433Z" fill="#090316"/>
<path d="M226.245 132.992L210.528 148.947C210.145 149.336 209.523 149.336 209.14 148.947L193.423 132.992C193.04 132.603 193.04 131.971 193.423 131.582L200.998 123.893C201.183 123.705 201.432 123.6 201.692 123.6H217.975C218.235 123.6 218.484 123.705 218.669 123.891L226.243 131.581C226.626 131.969 226.626 132.601 226.243 132.99L226.245 132.992Z" fill="url(#paint1_linear_99_5782)"/>
<path d="M161.454 212.583V198.72H164.136V212.583H161.454ZM163.426 206.904V204.517H170.407V206.904H163.426ZM163.426 201.086V198.72H170.743V201.086H163.426ZM172.48 212.583V203.058H175.084V212.583H172.48ZM173.782 201.52C173.361 201.52 173.013 201.382 172.737 201.106C172.461 200.816 172.323 200.461 172.323 200.041C172.323 199.633 172.461 199.285 172.737 198.996C173.013 198.706 173.361 198.562 173.782 198.562C174.216 198.562 174.564 198.706 174.827 198.996C175.103 199.285 175.241 199.633 175.241 200.041C175.241 200.461 175.103 200.816 174.827 201.106C174.564 201.382 174.216 201.52 173.782 201.52ZM183.683 212.583V207.12C183.683 206.555 183.505 206.095 183.15 205.74C182.795 205.385 182.335 205.208 181.77 205.208C181.402 205.208 181.073 205.286 180.784 205.444C180.494 205.602 180.264 205.825 180.094 206.115C179.936 206.404 179.857 206.739 179.857 207.12L178.851 206.608C178.851 205.858 179.009 205.208 179.324 204.655C179.653 204.09 180.1 203.65 180.665 203.334C181.244 203.019 181.895 202.861 182.618 202.861C183.315 202.861 183.939 203.038 184.491 203.393C185.043 203.735 185.477 204.189 185.793 204.754C186.108 205.306 186.266 205.904 186.266 206.549V212.583H183.683ZM177.273 212.583V203.058H179.857V212.583H177.273ZM192.271 212.78C191.391 212.78 190.602 212.563 189.905 212.129C189.208 211.696 188.656 211.104 188.248 210.355C187.854 209.605 187.657 208.764 187.657 207.83C187.657 206.884 187.854 206.036 188.248 205.286C188.656 204.537 189.202 203.945 189.885 203.512C190.582 203.078 191.377 202.861 192.271 202.861C192.955 202.861 193.566 202.999 194.105 203.275C194.658 203.551 195.098 203.939 195.427 204.438C195.768 204.925 195.953 205.477 195.979 206.095V209.487C195.953 210.105 195.775 210.664 195.446 211.163C195.118 211.663 194.677 212.057 194.125 212.346C193.573 212.636 192.955 212.78 192.271 212.78ZM192.705 210.394C193.192 210.394 193.612 210.289 193.967 210.079C194.335 209.855 194.618 209.553 194.815 209.171C195.026 208.777 195.131 208.323 195.131 207.811C195.131 207.311 195.026 206.871 194.815 206.489C194.618 206.095 194.335 205.793 193.967 205.582C193.612 205.359 193.198 205.247 192.725 205.247C192.238 205.247 191.811 205.359 191.443 205.582C191.088 205.806 190.805 206.108 190.595 206.489C190.398 206.871 190.299 207.311 190.299 207.811C190.299 208.323 190.398 208.777 190.595 209.171C190.805 209.553 191.095 209.855 191.463 210.079C191.831 210.289 192.245 210.394 192.705 210.394ZM197.556 212.583H194.993V210.019L195.407 207.692L194.973 205.405V198.325H197.556V212.583ZM206.494 212.662L202.51 203.058H205.311L207.953 210.394H207.007L209.748 203.058H212.568L208.328 212.662H206.494ZM203.851 216.567L206.75 210.433L208.328 212.662L206.592 216.567H203.851ZM217.831 212.78C216.871 212.78 216.003 212.563 215.228 212.129C214.465 211.682 213.854 211.084 213.394 210.335C212.947 209.572 212.723 208.724 212.723 207.791C212.723 206.857 212.947 206.023 213.394 205.286C213.841 204.537 214.452 203.945 215.228 203.512C216.003 203.065 216.864 202.841 217.811 202.841C218.784 202.841 219.652 203.065 220.414 203.512C221.19 203.945 221.801 204.537 222.248 205.286C222.695 206.023 222.919 206.857 222.919 207.791C222.919 208.724 222.695 209.572 222.248 210.335C221.801 211.084 221.19 211.682 220.414 212.129C219.652 212.563 218.791 212.78 217.831 212.78ZM217.811 210.374C218.298 210.374 218.725 210.269 219.093 210.059C219.474 209.835 219.763 209.533 219.961 209.152C220.171 208.757 220.276 208.31 220.276 207.811C220.276 207.311 220.171 206.871 219.961 206.489C219.75 206.108 219.461 205.812 219.093 205.602C218.725 205.378 218.298 205.267 217.811 205.267C217.338 205.267 216.917 205.378 216.549 205.602C216.181 205.812 215.892 206.108 215.681 206.489C215.471 206.871 215.366 207.311 215.366 207.811C215.366 208.31 215.471 208.757 215.681 209.152C215.892 209.533 216.181 209.835 216.549 210.059C216.917 210.269 217.338 210.374 217.811 210.374ZM228.546 212.78C227.704 212.78 226.955 212.603 226.298 212.248C225.653 211.893 225.147 211.4 224.779 210.769C224.411 210.138 224.227 209.408 224.227 208.58V203.058H226.83V208.521C226.83 208.915 226.896 209.257 227.027 209.546C227.159 209.822 227.356 210.032 227.619 210.177C227.882 210.322 228.191 210.394 228.546 210.394C229.085 210.394 229.505 210.23 229.808 209.901C230.11 209.572 230.261 209.112 230.261 208.521V203.058H232.845V208.58C232.845 209.421 232.661 210.157 232.293 210.788C231.938 211.419 231.431 211.913 230.774 212.267C230.13 212.609 229.387 212.78 228.546 212.78ZM234.803 212.583V203.058H237.387V212.583H234.803ZM237.387 207.318L236.381 206.647C236.499 205.477 236.841 204.557 237.406 203.886C237.972 203.203 238.787 202.861 239.852 202.861C240.312 202.861 240.726 202.94 241.094 203.097C241.462 203.242 241.798 203.485 242.1 203.827L240.483 205.681C240.338 205.523 240.161 205.405 239.95 205.326C239.753 205.247 239.523 205.208 239.26 205.208C238.708 205.208 238.254 205.385 237.899 205.74C237.558 206.082 237.387 206.608 237.387 207.318ZM250.992 216.803C249.98 216.803 249.086 216.619 248.31 216.251C247.534 215.896 246.916 215.39 246.456 214.733L248.093 213.096C248.461 213.53 248.869 213.858 249.316 214.082C249.776 214.318 250.328 214.437 250.972 214.437C251.774 214.437 252.405 214.233 252.865 213.825C253.339 213.418 253.575 212.853 253.575 212.129V209.743L254.009 207.653L253.595 205.563V203.058H256.159V212.09C256.159 213.037 255.935 213.858 255.488 214.555C255.054 215.265 254.45 215.817 253.674 216.212C252.898 216.606 252.004 216.803 250.992 216.803ZM250.874 212.327C250.019 212.327 249.25 212.123 248.566 211.715C247.883 211.295 247.344 210.723 246.949 210C246.568 209.277 246.377 208.468 246.377 207.574C246.377 206.68 246.568 205.878 246.949 205.168C247.344 204.458 247.883 203.899 248.566 203.492C249.25 203.071 250.019 202.861 250.874 202.861C251.584 202.861 252.208 202.999 252.747 203.275C253.299 203.551 253.733 203.932 254.049 204.419C254.364 204.892 254.535 205.451 254.561 206.095V209.092C254.535 209.724 254.358 210.289 254.029 210.788C253.713 211.275 253.28 211.656 252.727 211.932C252.188 212.195 251.57 212.327 250.874 212.327ZM251.386 209.98C251.86 209.98 252.267 209.881 252.609 209.684C252.964 209.474 253.24 209.191 253.437 208.836C253.635 208.468 253.733 208.054 253.733 207.594C253.733 207.12 253.635 206.706 253.437 206.351C253.24 205.996 252.964 205.72 252.609 205.523C252.267 205.313 251.86 205.208 251.386 205.208C250.913 205.208 250.499 205.313 250.144 205.523C249.789 205.72 249.513 206.003 249.316 206.371C249.119 206.726 249.02 207.134 249.02 207.594C249.02 208.041 249.119 208.448 249.316 208.816C249.513 209.171 249.789 209.454 250.144 209.664C250.499 209.875 250.913 209.98 251.386 209.98ZM262.885 212.78C261.886 212.78 260.999 212.57 260.223 212.149C259.448 211.715 258.83 211.124 258.369 210.374C257.922 209.625 257.699 208.77 257.699 207.811C257.699 206.864 257.916 206.023 258.35 205.286C258.797 204.537 259.402 203.945 260.164 203.512C260.927 203.065 261.775 202.841 262.708 202.841C263.628 202.841 264.437 203.051 265.134 203.472C265.844 203.88 266.396 204.445 266.79 205.168C267.198 205.878 267.401 206.687 267.401 207.594C267.401 207.765 267.388 207.942 267.362 208.126C267.349 208.297 267.316 208.494 267.263 208.718L259.257 208.738V206.805L266.06 206.785L265.015 207.594C264.989 207.028 264.884 206.555 264.7 206.174C264.529 205.793 264.272 205.503 263.931 205.306C263.602 205.096 263.194 204.991 262.708 204.991C262.195 204.991 261.748 205.109 261.367 205.346C260.986 205.569 260.69 205.891 260.48 206.312C260.282 206.719 260.184 207.206 260.184 207.771C260.184 208.35 260.289 208.856 260.499 209.29C260.723 209.71 261.038 210.039 261.446 210.276C261.853 210.499 262.327 210.611 262.866 210.611C263.352 210.611 263.793 210.532 264.187 210.374C264.581 210.203 264.923 209.954 265.212 209.625L266.731 211.143C266.271 211.682 265.705 212.09 265.035 212.366C264.378 212.642 263.661 212.78 262.885 212.78ZM268.901 212.583V203.058H271.484V212.583H268.901ZM275.112 212.583V206.963C275.112 206.41 274.935 205.983 274.58 205.681C274.238 205.365 273.811 205.208 273.298 205.208C272.956 205.208 272.647 205.28 272.371 205.424C272.095 205.556 271.878 205.753 271.721 206.016C271.563 206.279 271.484 206.595 271.484 206.963L270.478 206.47C270.478 205.733 270.636 205.096 270.951 204.557C271.28 204.018 271.721 203.604 272.273 203.314C272.825 203.012 273.449 202.861 274.146 202.861C274.804 202.861 275.402 203.012 275.941 203.314C276.48 203.604 276.907 204.018 277.223 204.557C277.538 205.083 277.696 205.72 277.696 206.47V212.583H275.112ZM281.324 212.583V206.963C281.324 206.41 281.147 205.983 280.792 205.681C280.45 205.365 280.023 205.208 279.51 205.208C279.181 205.208 278.873 205.28 278.583 205.424C278.307 205.556 278.09 205.753 277.933 206.016C277.775 206.279 277.696 206.595 277.696 206.963L276.217 206.608C276.269 205.845 276.473 205.188 276.828 204.636C277.183 204.07 277.65 203.636 278.228 203.334C278.807 203.019 279.451 202.861 280.161 202.861C280.871 202.861 281.508 203.012 282.074 203.314C282.639 203.604 283.086 204.024 283.415 204.576C283.743 205.129 283.908 205.786 283.908 206.549V212.583H281.324ZM289.656 212.583V203.058H292.259V212.583H289.656ZM290.958 201.52C290.537 201.52 290.189 201.382 289.913 201.106C289.637 200.816 289.499 200.461 289.499 200.041C289.499 199.633 289.637 199.285 289.913 198.996C290.189 198.706 290.537 198.562 290.958 198.562C291.392 198.562 291.74 198.706 292.003 198.996C292.279 199.285 292.417 199.633 292.417 200.041C292.417 200.461 292.279 200.816 292.003 201.106C291.74 201.382 291.392 201.52 290.958 201.52ZM300.858 212.583V207.12C300.858 206.555 300.681 206.095 300.326 205.74C299.971 205.385 299.511 205.208 298.946 205.208C298.577 205.208 298.249 205.286 297.96 205.444C297.67 205.602 297.44 205.825 297.269 206.115C297.112 206.404 297.033 206.739 297.033 207.12L296.027 206.608C296.027 205.858 296.185 205.208 296.5 204.655C296.829 204.09 297.276 203.65 297.841 203.334C298.42 203.019 299.07 202.861 299.794 202.861C300.49 202.861 301.115 203.038 301.667 203.393C302.219 203.735 302.653 204.189 302.969 204.754C303.284 205.306 303.442 205.904 303.442 206.549V212.583H300.858ZM294.449 212.583V203.058H297.033V212.583H294.449ZM310.577 212.583V199.094H313.161V212.583H310.577ZM308.349 205.326V203.058H315.389V205.326H308.349ZM323.153 212.583V207.12C323.153 206.555 322.975 206.095 322.62 205.74C322.265 205.385 321.805 205.208 321.24 205.208C320.872 205.208 320.543 205.286 320.254 205.444C319.965 205.602 319.734 205.825 319.564 206.115C319.406 206.404 319.327 206.739 319.327 207.12L318.321 206.608C318.321 205.858 318.479 205.208 318.794 204.655C319.11 204.09 319.544 203.65 320.096 203.334C320.661 203.019 321.305 202.861 322.029 202.861C322.752 202.861 323.389 203.019 323.941 203.334C324.507 203.65 324.947 204.083 325.263 204.636C325.578 205.188 325.736 205.825 325.736 206.549V212.583H323.153ZM316.743 212.583V198.325H319.327V212.583H316.743ZM332.274 212.78C331.275 212.78 330.387 212.57 329.612 212.149C328.836 211.715 328.218 211.124 327.758 210.374C327.311 209.625 327.087 208.77 327.087 207.811C327.087 206.864 327.304 206.023 327.738 205.286C328.185 204.537 328.79 203.945 329.552 203.512C330.315 203.065 331.163 202.841 332.096 202.841C333.017 202.841 333.825 203.051 334.522 203.472C335.232 203.88 335.784 204.445 336.178 205.168C336.586 205.878 336.79 206.687 336.79 207.594C336.79 207.765 336.777 207.942 336.75 208.126C336.737 208.297 336.704 208.494 336.652 208.718L328.645 208.738V206.805L335.449 206.785L334.404 207.594C334.377 207.028 334.272 206.555 334.088 206.174C333.917 205.793 333.661 205.503 333.319 205.306C332.99 205.096 332.583 204.991 332.096 204.991C331.584 204.991 331.137 205.109 330.755 205.346C330.374 205.569 330.078 205.891 329.868 206.312C329.671 206.719 329.572 207.206 329.572 207.771C329.572 208.35 329.677 208.856 329.888 209.29C330.111 209.71 330.427 210.039 330.834 210.276C331.242 210.499 331.715 210.611 332.254 210.611C332.741 210.611 333.181 210.532 333.575 210.374C333.97 210.203 334.312 209.954 334.601 209.625L336.119 211.143C335.659 211.682 335.094 212.09 334.423 212.366C333.766 212.642 333.05 212.78 332.274 212.78ZM346.538 212.78C345.565 212.78 344.691 212.563 343.915 212.129C343.14 211.696 342.528 211.104 342.081 210.355C341.634 209.605 341.411 208.764 341.411 207.83C341.411 206.884 341.634 206.036 342.081 205.286C342.528 204.537 343.14 203.945 343.915 203.512C344.704 203.065 345.578 202.841 346.538 202.841C347.288 202.841 347.978 202.979 348.609 203.255C349.24 203.531 349.786 203.926 350.246 204.438L348.589 206.115C348.339 205.839 348.037 205.628 347.682 205.484C347.34 205.339 346.959 205.267 346.538 205.267C346.065 205.267 345.638 205.378 345.256 205.602C344.888 205.812 344.592 206.108 344.369 206.489C344.159 206.857 344.053 207.298 344.053 207.811C344.053 208.31 344.159 208.757 344.369 209.152C344.592 209.533 344.888 209.835 345.256 210.059C345.638 210.269 346.065 210.374 346.538 210.374C346.972 210.374 347.36 210.302 347.702 210.157C348.057 210 348.359 209.776 348.609 209.487L350.285 211.163C349.799 211.689 349.24 212.09 348.609 212.366C347.978 212.642 347.288 212.78 346.538 212.78ZM351.649 212.583V203.058H354.253V212.583H351.649ZM352.951 201.52C352.53 201.52 352.182 201.382 351.906 201.106C351.63 200.816 351.492 200.461 351.492 200.041C351.492 199.633 351.63 199.285 351.906 198.996C352.182 198.706 352.53 198.562 352.951 198.562C353.385 198.562 353.733 198.706 353.996 198.996C354.272 199.285 354.41 199.633 354.41 200.041C354.41 200.461 354.272 200.816 353.996 201.106C353.733 201.382 353.385 201.52 352.951 201.52ZM357.843 212.583V199.094H360.426V212.583H357.843ZM355.614 205.326V203.058H362.654V205.326H355.614ZM367.006 212.662L363.023 203.058H365.823L368.466 210.394H367.519L370.26 203.058H373.08L368.84 212.662H367.006ZM364.364 216.567L367.263 210.433L368.84 212.662L367.105 216.567H364.364Z" fill="url(#paint2_linear_99_5782)"/>
<g filter="url(#filter0_ii_99_5782)">
<path d="M342.424 0C390.153 0 414.018 0.000484754 430.747 12.1553C436.15 16.0807 440.902 20.8315 444.828 26.2344C456.982 42.964 456.983 66.8288 456.983 114.558V678.126C456.983 725.855 456.982 749.72 444.828 766.449C440.902 771.852 436.15 776.604 430.747 780.529C414.018 792.684 390.153 792.685 342.424 792.685H190.856C143.127 792.685 119.262 792.684 102.533 780.529C97.1298 776.604 92.3789 771.852 88.4535 766.449C76.2987 749.72 76.2982 725.855 76.2982 678.126V114.559C76.2982 66.8294 76.2987 42.964 88.4535 26.2344C92.3788 20.8317 97.13 16.0806 102.533 12.1553C119.262 0.00050934 143.127 1.2287e-10 190.856 0H342.424ZM179.382 14.3418C142.409 14.3418 123.923 14.3423 110.963 23.7578C106.778 26.7987 103.097 30.4796 100.056 34.665C90.6405 47.6246 90.64 66.1111 90.64 103.084V689.6C90.64 726.573 90.6403 745.06 100.056 758.02C103.097 762.205 106.778 765.886 110.963 768.927C123.923 778.342 142.409 778.342 179.382 778.342H353.898C390.871 778.342 409.358 778.342 422.318 768.927C426.503 765.886 430.184 762.205 433.225 758.02C442.641 745.06 442.64 726.573 442.64 689.6V103.084C442.64 66.1112 442.64 47.6246 433.225 34.665C430.184 30.4796 426.503 26.7987 422.318 23.7578C409.358 14.3421 390.871 14.3418 353.898 14.3418H179.382Z" fill="white"/>
</g>
<g filter="url(#filter1_i_99_5782)">
<rect x="346.727" width="5.37831" height="4.48193" fill="white"/>
</g>
<path d="M346.01 4.48193C390.377 4.48193 412.562 4.48206 428.113 15.7808C433.136 19.4298 437.553 23.8471 441.202 28.8696C452.501 44.4211 452.501 66.6049 452.501 110.972V681.711C452.501 726.079 452.501 748.263 441.202 763.815C437.553 768.837 433.136 773.255 428.113 776.904C412.562 788.202 390.377 788.203 346.01 788.203H187.27C142.903 788.203 120.719 788.202 105.168 776.904C100.145 773.255 95.728 768.837 92.079 763.815C80.7803 748.263 80.7802 726.079 80.7802 681.711V110.972C80.7802 66.6048 80.7804 44.4211 92.079 28.8696C95.728 23.8471 100.145 19.4298 105.168 15.7808C120.719 4.48219 142.903 4.48193 187.27 4.48193H346.01ZM179.383 14.3423C142.409 14.3423 123.922 14.3426 110.963 23.7583C106.778 26.799 103.097 30.4794 100.057 34.6646C90.6408 47.6241 90.6405 66.1112 90.6405 103.084V689.6C90.6405 726.573 90.6409 745.059 100.057 758.019C103.097 762.204 106.777 765.885 110.963 768.926C123.922 778.342 142.409 778.342 179.383 778.342H353.898C390.871 778.342 409.358 778.342 422.317 768.926C426.503 765.885 430.184 762.204 433.224 758.019C442.64 745.059 442.641 726.573 442.641 689.6V103.084C442.641 66.1112 442.64 47.6241 433.224 34.6646C430.184 30.4793 426.503 26.7991 422.317 23.7583C409.358 14.3427 390.871 14.3423 353.898 14.3423H179.383Z" fill="black"/>
<g filter="url(#filter2_i_99_5782)">
<path d="M73.609 292.67C73.609 291.927 74.211 291.325 74.9536 291.325H76.2982V351.383H74.9536C74.211 351.383 73.609 350.781 73.609 350.038V292.67Z" fill="white"/>
</g>
<g filter="url(#filter3_i_99_5782)">
<path d="M73.609 215.581C73.609 214.838 74.211 214.236 74.9536 214.236H76.2982V274.294H74.9536C74.211 274.294 73.609 273.692 73.609 272.95V215.581Z" fill="white"/>
</g>
<g filter="url(#filter4_i_99_5782)">
<path d="M73.609 154.627C73.609 153.884 74.211 153.282 74.9536 153.282H76.2982V184.656H74.9536C74.211 184.656 73.609 184.054 73.609 183.311V154.627Z" fill="white"/>
</g>
<path d="M120.096 47.0509V44.9898H114.843V43.4198C116.234 41.0016 117.76 38.5313 119.218 36.314H121.934V43.405H123.377V44.9898H121.934V47.0509H120.096ZM116.629 43.4496H120.126V37.8467H120.014C118.913 39.5283 117.67 41.515 116.629 43.338V43.4496Z" fill="black"/>
<path d="M126.353 40.0974C125.676 40.0974 125.17 39.5765 125.17 38.9217C125.17 38.2595 125.676 37.7461 126.353 37.7461C127.038 37.7461 127.536 38.2595 127.536 38.9217C127.536 39.5765 127.038 40.0974 126.353 40.0974ZM126.353 45.6184C125.676 45.6184 125.17 45.1049 125.17 44.4427C125.17 43.7805 125.676 43.2671 126.353 43.2671C127.038 43.2671 127.536 43.7805 127.536 44.4427C127.536 45.1049 127.038 45.6184 126.353 45.6184Z" fill="black"/>
<path d="M132.127 47.0509V38.2039H132L129.329 40.0938V38.2858L132.134 36.314H134.046V47.0509H132.127Z" fill="black"/>
<path d="M139.827 36.0459C142.119 36.0459 144.113 37.6754 144.113 41.5446V41.5595C144.113 45.1756 142.484 47.3186 139.783 47.3186C137.811 47.3186 136.338 46.1504 135.995 44.506L135.98 44.4241H137.87L137.893 44.4985C138.175 45.25 138.838 45.7411 139.783 45.7411C141.487 45.7411 142.208 44.0744 142.29 42.0208C142.29 41.9389 142.298 41.8571 142.298 41.7752H142.149C141.754 42.6235 140.817 43.375 139.344 43.375C137.283 43.375 135.839 41.872 135.839 39.8332V39.8183C135.839 37.6382 137.498 36.0459 139.827 36.0459ZM139.82 41.9017C141.033 41.9017 141.963 41.0237 141.963 39.8109V39.796C141.963 38.5683 141.033 37.6084 139.842 37.6084C138.659 37.6084 137.714 38.5534 137.714 39.7514V39.7662C137.714 41.0088 138.6 41.9017 139.82 41.9017Z" fill="black"/>
<rect x="210.168" y="23.3062" width="112.048" height="34.0626" rx="17.0313" fill="#030303"/>
<circle cx="300.363" cy="40.8934" r="8.62342" fill="#0E0B0F"/>
<circle cx="300.362" cy="40.8933" r="4.79079" fill="#161424"/>
<circle cx="300.363" cy="40.8935" r="2.87447" fill="#0F0F2A"/>
<circle cx="300.363" cy="39.9352" r="0.958158" fill="#393752"/>
<g filter="url(#filter5_f_99_5782)">
<path d="M192.214 346.888L93.8509 445.835C91.454 448.246 87.5578 448.246 85.161 445.835L-13.2024 346.888C-15.5992 344.477 -15.5992 340.557 -13.2024 338.146L34.2023 290.46C35.3594 289.296 36.9179 288.643 38.5473 288.643H140.453C142.082 288.643 143.641 289.296 144.798 290.448L192.202 338.134C194.599 340.545 194.599 344.465 192.202 346.876L192.214 346.888Z" fill="url(#paint3_linear_99_5782)"/>
</g>
<path fill-rule="evenodd" clip-rule="evenodd" d="M128 364.783C128 366.021 128.001 367.259 127.993 368.497C127.987 369.539 127.975 370.582 127.946 371.624C127.885 373.895 127.751 376.187 127.347 378.433C126.938 380.711 126.269 382.832 125.216 384.902C124.18 386.937 122.826 388.799 121.212 390.414C119.597 392.028 117.735 393.382 115.7 394.418C113.63 395.472 111.509 396.14 109.231 396.55C106.984 396.953 104.693 397.087 102.422 397.149C101.38 397.177 100.337 397.189 99.2945 397.195C98.0566 397.203 96.819 397.202 95.5811 397.202H71.4189C70.181 397.202 68.9434 397.203 67.7055 397.195C66.6628 397.189 65.6204 397.177 64.578 397.149C62.3067 397.087 60.0156 396.953 57.7694 396.55C55.4907 396.14 53.37 395.472 51.2997 394.418C49.2649 393.382 47.4028 392.028 45.7883 390.414C44.1737 388.799 42.8203 386.937 41.7845 384.902C40.7307 382.832 40.0622 380.711 39.6526 378.433C39.2488 376.187 39.1152 373.895 39.0536 371.624C39.0253 370.582 39.0133 369.539 39.0073 368.497C38.9995 367.259 39 366.021 39 364.783V340.621C39 339.383 38.9995 338.146 39.0073 336.908C39.0133 335.865 39.0253 334.823 39.0536 333.78C39.1152 331.509 39.2488 329.218 39.6526 326.972C40.0622 324.693 40.7307 322.572 41.7845 320.502C42.8203 318.467 44.1737 316.605 45.7883 314.99C47.4028 313.376 49.2649 312.022 51.2997 310.987C53.37 309.933 55.4907 309.264 57.7694 308.855C60.0156 308.451 62.3067 308.317 64.578 308.256C65.6204 308.227 66.6628 308.215 67.7055 308.209C68.9434 308.202 70.181 308.202 71.4189 308.202H95.5811C96.819 308.202 98.0566 308.202 99.2945 308.209C100.337 308.215 101.38 308.227 102.422 308.256C104.693 308.317 106.984 308.451 109.231 308.855C111.509 309.264 113.63 309.933 115.7 310.987C117.735 312.022 119.597 313.376 121.212 314.99C122.826 316.605 124.18 318.467 125.216 320.502C126.269 322.572 126.938 324.693 127.347 326.972C127.751 329.218 127.885 331.509 127.946 333.78C127.975 334.823 127.987 335.865 127.993 336.908C128.001 338.146 128 339.383 128 340.621V364.783Z" fill="url(#paint4_linear_99_5782)"/>
<path d="M110.295 349.991L85.1138 375.166C84.5002 375.78 83.5028 375.78 82.8892 375.166L57.708 349.991C57.0944 349.378 57.0944 348.38 57.708 347.767L69.8437 335.634C70.1399 335.338 70.5389 335.172 70.956 335.172H97.044C97.4611 335.172 97.8601 335.338 98.1563 335.631L110.292 347.764C110.906 348.377 110.906 349.375 110.292 349.988L110.295 349.991Z" fill="white"/>
<defs>
<filter id="filter0_ii_99_5782" x="76.2982" y="0" width="380.685" height="794.477" filterUnits="userSpaceOnUse" color-interpolation-filters="sRGB">
<feFlood flood-opacity="0" result="BackgroundImageFix"/>
<feBlend mode="normal" in="SourceGraphic" in2="BackgroundImageFix" result="shape"/>
<feColorMatrix in="SourceAlpha" type="matrix" values="0 0 0 0 0 0 0 0 0 0 0 0 0 0 0 0 0 0 127 0" result="hardAlpha"/>
<feOffset/>
<feGaussianBlur stdDeviation="3.58554"/>
<feComposite in2="hardAlpha" operator="arithmetic" k2="-1" k3="1"/>
<feColorMatrix type="matrix" values="0 0 0 0 0 0 0 0 0 0 0 0 0 0 0 0 0 0 0.6 0"/>
<feBlend mode="normal" in2="shape" result="effect1_innerShadow_99_5782"/>
<feColorMatrix in="SourceAlpha" type="matrix" values="0 0 0 0 0 0 0 0 0 0 0 0 0 0 0 0 0 0 127 0" result="hardAlpha"/>
<feOffset dy="1.79277"/>
<feGaussianBlur stdDeviation="1.79277"/>
<feComposite in2="hardAlpha" operator="arithmetic" k2="-1" k3="1"/>
<feColorMatrix type="matrix" values="0 0 0 0 1 0 0 0 0 1 0 0 0 0 1 0 0 0 0.25 0"/>
<feBlend mode="normal" in2="effect1_innerShadow_99_5782" result="effect2_innerShadow_99_5782"/>
</filter>
<filter id="filter1_i_99_5782" x="346.727" y="0" width="5.3783" height="4.48193" filterUnits="userSpaceOnUse" color-interpolation-filters="sRGB">
<feFlood flood-opacity="0" result="BackgroundImageFix"/>
<feBlend mode="normal" in="SourceGraphic" in2="BackgroundImageFix" result="shape"/>
<feColorMatrix in="SourceAlpha" type="matrix" values="0 0 0 0 0 0 0 0 0 0 0 0 0 0 0 0 0 0 127 0" result="hardAlpha"/>
<feMorphology radius="2.68916" operator="erode" in="SourceAlpha" result="effect1_innerShadow_99_5782"/>
<feOffset/>
<feGaussianBlur stdDeviation="0.896385"/>
<feComposite in2="hardAlpha" operator="arithmetic" k2="-1" k3="1"/>
<feColorMatrix type="matrix" values="0 0 0 0 0 0 0 0 0 0 0 0 0 0 0 0 0 0 0.1 0"/>
<feBlend mode="normal" in2="shape" result="effect1_innerShadow_99_5782"/>
</filter>
<filter id="filter2_i_99_5782" x="73.609" y="289.532" width="2.68921" height="61.8506" filterUnits="userSpaceOnUse" color-interpolation-filters="sRGB">
<feFlood flood-opacity="0" result="BackgroundImageFix"/>
<feBlend mode="normal" in="SourceGraphic" in2="BackgroundImageFix" result="shape"/>
<feColorMatrix in="SourceAlpha" type="matrix" values="0 0 0 0 0 0 0 0 0 0 0 0 0 0 0 0 0 0 127 0" result="hardAlpha"/>
<feOffset dy="-1.79277"/>
<feGaussianBlur stdDeviation="1.34458"/>
<feComposite in2="hardAlpha" operator="arithmetic" k2="-1" k3="1"/>
<feColorMatrix type="matrix" values="0 0 0 0 0 0 0 0 0 0 0 0 0 0 0 0 0 0 0.25 0"/>
<feBlend mode="normal" in2="shape" result="effect1_innerShadow_99_5782"/>
</filter>
<filter id="filter3_i_99_5782" x="73.609" y="212.444" width="2.68921" height="61.8504" filterUnits="userSpaceOnUse" color-interpolation-filters="sRGB">
<feFlood flood-opacity="0" result="BackgroundImageFix"/>
<feBlend mode="normal" in="SourceGraphic" in2="BackgroundImageFix" result="shape"/>
<feColorMatrix in="SourceAlpha" type="matrix" values="0 0 0 0 0 0 0 0 0 0 0 0 0 0 0 0 0 0 127 0" result="hardAlpha"/>
<feOffset dy="-1.79277"/>
<feGaussianBlur stdDeviation="1.34458"/>
<feComposite in2="hardAlpha" operator="arithmetic" k2="-1" k3="1"/>
<feColorMatrix type="matrix" values="0 0 0 0 0 0 0 0 0 0 0 0 0 0 0 0 0 0 0.25 0"/>
<feBlend mode="normal" in2="shape" result="effect1_innerShadow_99_5782"/>
</filter>
<filter id="filter4_i_99_5782" x="73.609" y="151.489" width="2.68921" height="33.1663" filterUnits="userSpaceOnUse" color-interpolation-filters="sRGB">
<feFlood flood-opacity="0" result="BackgroundImageFix"/>
<feBlend mode="normal" in="SourceGraphic" in2="BackgroundImageFix" result="shape"/>
<feColorMatrix in="SourceAlpha" type="matrix" values="0 0 0 0 0 0 0 0 0 0 0 0 0 0 0 0 0 0 127 0" result="hardAlpha"/>
<feOffset dy="-1.79277"/>
<feGaussianBlur stdDeviation="1.34458"/>
<feComposite in2="hardAlpha" operator="arithmetic" k2="-1" k3="1"/>
<feColorMatrix type="matrix" values="0 0 0 0 0 0 0 0 0 0 0 0 0 0 0 0 0 0 0.25 0"/>
<feBlend mode="normal" in2="shape" result="effect1_innerShadow_99_5782"/>
</filter>
<filter id="filter5_f_99_5782" x="-75" y="228.643" width="329" height="279" filterUnits="userSpaceOnUse" color-interpolation-filters="sRGB">
<feFlood flood-opacity="0" result="BackgroundImageFix"/>
<feBlend mode="normal" in="SourceGraphic" in2="BackgroundImageFix" result="shape"/>
<feGaussianBlur stdDeviation="30" result="effect1_foregroundBlur_99_5782"/>
</filter>
<linearGradient id="paint0_linear_99_5782" x1="268.442" y1="13.832" x2="268.442" y2="777.538" gradientUnits="userSpaceOnUse">
<stop stop-color="#FFE02E"/>
<stop offset="0.4" stop-color="#FA8AE5"/>
<stop offset="0.56" stop-color="#BDA9EC"/>
<stop offset="0.77" stop-color="#70D2F6"/>
<stop offset="0.92" stop-color="#40EBFC"/>
<stop offset="1" stop-color="#0FF2F2"/>
</linearGradient>
<linearGradient id="paint1_linear_99_5782" x1="209.834" y1="123.6" x2="209.834" y2="149.238" gradientUnits="userSpaceOnUse">
<stop stop-color="#FFE02E"/>
<stop offset="0.4" stop-color="#FA8AE5"/>
<stop offset="0.56" stop-color="#BDA9EC"/>
<stop offset="0.77" stop-color="#70D2F6"/>
<stop offset="0.92" stop-color="#40EBFC"/>
<stop offset="1" stop-color="#0FF2F2"/>
</linearGradient>
<linearGradient id="paint2_linear_99_5782" x1="90.5" y1="205.083" x2="442.78" y2="205.083" gradientUnits="userSpaceOnUse">
<stop stop-color="#FFE02E"/>
<stop offset="0.4" stop-color="#FA8AE5"/>
<stop offset="0.56" stop-color="#BDA9EC"/>
<stop offset="0.77" stop-color="#70D2F6"/>
<stop offset="0.92" stop-color="#40EBFC"/>
<stop offset="1" stop-color="#0FF2F2"/>
</linearGradient>
<linearGradient id="paint3_linear_99_5782" x1="89.5059" y1="288.643" x2="89.5059" y2="447.64" gradientUnits="userSpaceOnUse">
<stop stop-color="#FFE02E"/>
<stop offset="0.4" stop-color="#FA8AE5"/>
<stop offset="0.56" stop-color="#BDA9EC"/>
<stop offset="0.77" stop-color="#70D2F6"/>
<stop offset="0.92" stop-color="#40EBFC"/>
<stop offset="1" stop-color="#0FF2F2"/>
</linearGradient>
<linearGradient id="paint4_linear_99_5782" x1="83.5025" y1="308.202" x2="83.5025" y2="397.2" gradientUnits="userSpaceOnUse">
<stop stop-color="#FFE02E"/>
<stop offset="0.4" stop-color="#FA8AE5"/>
<stop offset="0.56" stop-color="#BDA9EC"/>
<stop offset="0.77" stop-color="#70D2F6"/>
<stop offset="0.92" stop-color="#40EBFC"/>
<stop offset="1" stop-color="#0FF2F2"/>
</linearGradient>
</defs>
</svg>
