<svg width="361" height="283" viewBox="0 0 361 283" fill="none" xmlns="http://www.w3.org/2000/svg">
<path d="M90.8948 43.766C90.8948 25.2013 105.944 10.1516 124.509 10.1516H321.49C340.055 10.1516 355.104 25.2013 355.104 43.7661V549.328C355.104 567.892 340.055 582.942 321.49 582.942H124.509C105.944 582.942 90.8948 567.892 90.8948 549.328V43.766Z" fill="white"/>
<path d="M92.2393 43.4884C92.2393 24.9237 107.289 9.87402 125.854 9.87402H322.834C341.399 9.87402 356.449 24.9237 356.449 43.4885V549.05C356.449 567.615 341.399 582.664 322.834 582.664H125.854C107.289 582.664 92.2393 567.615 92.2393 549.05V43.4884Z" fill="url(#paint0_linear_368_20520)" fill-opacity="0.2"/>
<path d="M217.004 90.8264L212.479 92.2557V92.3312C213.275 93.209 213.772 94.262 213.772 96.0917V106.846C213.772 108.877 213.524 109.804 213.151 110.681V110.73H217.624V110.681C217.251 109.803 217.002 108.851 217.002 106.82V90.8264H217.004Z" fill="#090316"/>
<path d="M198.635 92.4309C199.43 94.1352 199.679 95.0629 199.679 97.3685V105.74C199.679 108.022 199.43 108.974 198.635 110.678V110.728H204.302V110.678C203.507 108.974 203.258 108.02 203.258 105.764V101.703H205.445C206.762 101.703 207.931 103.358 208.701 104.26H208.999V98.3189H208.701C207.905 99.2466 206.737 100.875 205.445 100.875H203.258V93.0323L207.633 93.2574C208.776 93.3073 210.641 95.9891 211.933 97.3186L212.306 97.1932L211.336 92.3796H198.635V92.4309Z" fill="#090316"/>
<path d="M222.857 97.7447L218.332 99.1483V99.2993C219.128 100.201 219.6 101.28 219.6 103.084V105.841C219.6 108.097 219.351 109.301 218.978 110.679V110.729H223.452V110.679C222.98 109.301 222.855 108.047 222.855 105.816V97.7447H222.857Z" fill="#090316"/>
<path d="M255.393 95.7896C256.437 95.7896 257.306 94.9617 257.306 93.9343C257.306 92.9069 256.436 92.0291 255.393 92.0291C254.35 92.0291 253.553 92.8812 253.553 93.9343C253.553 94.9873 254.374 95.7896 255.393 95.7896Z" fill="#090316"/>
<path d="M220.993 95.7896C222.037 95.7896 222.906 94.9617 222.906 93.9343C222.906 92.9069 222.036 92.0291 220.993 92.0291C219.95 92.0291 219.153 92.8812 219.153 93.9343C219.153 94.9873 219.974 95.7896 220.993 95.7896Z" fill="#090316"/>
<path d="M239.699 109.427C238.605 109.427 237.959 108.875 237.959 107.597V99.0998H241.24V98.2477H237.959V95.2894H237.686L233.262 98.6738V99.0998H234.679V107.774C234.679 110.256 236.121 111.108 237.886 111.108C239.651 111.108 240.869 110.256 241.514 109.203L241.341 108.978C241.216 109.053 240.644 109.429 239.7 109.429L239.699 109.427Z" fill="#090316"/>
<path d="M274.773 98.2463V98.3218C275.245 98.8733 275.768 100.352 275.021 102.082L273.107 106.795L271.093 101.756C270.472 100.201 270.72 98.8476 271.068 98.3218V98.2463H263.132V95.288H262.858L258.434 98.6723V99.0984H259.851V107.772C259.851 110.255 261.292 111.107 263.057 111.107C264.822 111.107 266.04 110.255 266.686 109.201L266.512 108.976C266.388 109.052 265.816 109.428 264.872 109.428C263.778 109.428 263.132 108.877 263.132 107.598V99.1013H266.405C266.748 99.6613 267.097 100.434 267.613 101.733L271.366 111.058L271.341 111.134C270.421 113.39 267.935 113.491 266.743 113.415L266.792 116.373C268.93 115.947 270.397 115.32 272.112 111.285L275.989 101.834C276.76 100.029 277.233 99.278 278.127 98.3246V98.2491H274.771L274.773 98.2463Z" fill="#090316"/>
<path d="M228.633 100.904H228.584V97.7447L224.184 99.1483V99.1982C224.979 100.1 225.476 101.153 225.476 103.009V105.841C225.476 108.123 225.303 109.301 224.831 110.679V110.729H229.304V110.679C228.832 109.301 228.708 108.073 228.708 105.816V101.73C229.18 101.103 229.752 100.727 230.175 100.727C230.771 100.727 231.965 101.153 232.585 101.655H232.785L233.083 97.8701C231.069 97.6948 229.703 99.5501 228.633 100.904Z" fill="#090316"/>
<path d="M257.258 97.7447L252.734 99.1483V99.2993C253.529 100.201 254.001 101.28 254.001 103.084V105.841C254.001 108.097 253.753 109.301 253.38 110.679V110.729H257.853V110.679C257.381 109.301 257.257 108.047 257.257 105.816V97.7447H257.258Z" fill="#090316"/>
<path d="M249.027 108.575C246.567 108.575 244.752 106.92 244.752 103.41C244.752 100.402 246.069 98.6225 247.884 98.6225C249.276 98.6225 250.743 100.251 251.811 101.906L252.109 101.806L251.736 98.4971C251.09 98.2206 249.997 97.8701 248.305 97.8701C244.552 97.8701 241.495 100.727 241.495 104.738C241.495 108.75 243.832 111.105 247.311 111.105C249.995 111.105 251.76 109.626 252.481 107.571L252.232 107.37C251.486 108.173 250.268 108.573 249.026 108.573L249.027 108.575Z" fill="#090316"/>
<path d="M192.703 99.2439L180.916 111.21C180.629 111.502 180.162 111.502 179.875 111.21L168.087 99.2439C167.8 98.9523 167.8 98.4783 168.087 98.1867L173.768 92.4197C173.907 92.279 174.093 92.2 174.289 92.2H186.501C186.696 92.2 186.883 92.279 187.021 92.4183L192.702 98.1853C192.989 98.4768 192.989 98.9508 192.702 99.2424L192.703 99.2439Z" fill="url(#paint1_linear_368_20520)"/>
<path d="M144.11 158.937V148.54H146.122V158.937H144.11ZM145.589 154.678V152.888H150.825V154.678H145.589ZM145.589 150.314V148.54H151.077V150.314H145.589ZM152.38 158.937V151.794H154.332V158.937H152.38ZM153.356 150.64C153.041 150.64 152.779 150.536 152.572 150.329C152.365 150.112 152.262 149.846 152.262 149.531C152.262 149.225 152.365 148.964 152.572 148.747C152.779 148.53 153.041 148.421 153.356 148.421C153.682 148.421 153.943 148.53 154.14 148.747C154.347 148.964 154.451 149.225 154.451 149.531C154.451 149.846 154.347 150.112 154.14 150.329C153.943 150.536 153.682 150.64 153.356 150.64ZM160.782 158.937V154.84C160.782 154.416 160.649 154.071 160.382 153.805C160.116 153.539 159.771 153.406 159.347 153.406C159.071 153.406 158.824 153.465 158.608 153.583C158.391 153.701 158.218 153.869 158.09 154.086C157.972 154.303 157.912 154.554 157.912 154.84L157.158 154.456C157.158 153.894 157.276 153.406 157.513 152.992C157.76 152.568 158.095 152.237 158.519 152.001C158.953 151.764 159.441 151.646 159.983 151.646C160.506 151.646 160.974 151.779 161.388 152.045C161.802 152.301 162.128 152.641 162.364 153.065C162.601 153.48 162.719 153.928 162.719 154.411V158.937H160.782ZM155.975 158.937V151.794H157.912V158.937H155.975ZM167.223 159.085C166.563 159.085 165.971 158.922 165.448 158.597C164.926 158.272 164.512 157.828 164.206 157.266C163.91 156.704 163.762 156.073 163.762 155.373C163.762 154.663 163.91 154.027 164.206 153.465C164.512 152.903 164.921 152.459 165.434 152.134C165.956 151.808 166.553 151.646 167.223 151.646C167.736 151.646 168.195 151.749 168.599 151.956C169.013 152.163 169.343 152.454 169.59 152.829C169.846 153.194 169.984 153.608 170.004 154.071V156.615C169.984 157.079 169.851 157.498 169.605 157.872C169.358 158.247 169.028 158.543 168.614 158.76C168.199 158.977 167.736 159.085 167.223 159.085ZM167.549 157.296C167.914 157.296 168.229 157.217 168.495 157.059C168.771 156.891 168.983 156.664 169.131 156.379C169.289 156.083 169.368 155.743 169.368 155.358C169.368 154.983 169.289 154.653 169.131 154.367C168.983 154.071 168.771 153.844 168.495 153.687C168.229 153.519 167.918 153.435 167.563 153.435C167.199 153.435 166.878 153.519 166.602 153.687C166.336 153.854 166.124 154.081 165.966 154.367C165.818 154.653 165.744 154.983 165.744 155.358C165.744 155.743 165.818 156.083 165.966 156.379C166.124 156.664 166.341 156.891 166.617 157.059C166.893 157.217 167.204 157.296 167.549 157.296ZM171.187 158.937H169.264V157.015L169.575 155.269L169.25 153.554V148.244H171.187V158.937ZM177.89 158.996L174.902 151.794H177.003L178.985 157.296H178.275L180.331 151.794H182.446L179.266 158.996H177.89ZM175.908 161.925L178.082 157.325L179.266 158.996L177.964 161.925H175.908ZM186.393 159.085C185.673 159.085 185.022 158.922 184.441 158.597C183.869 158.262 183.41 157.813 183.065 157.251C182.73 156.679 182.562 156.043 182.562 155.343C182.562 154.643 182.73 154.017 183.065 153.465C183.4 152.903 183.859 152.459 184.441 152.134C185.022 151.798 185.668 151.631 186.378 151.631C187.108 151.631 187.759 151.798 188.33 152.134C188.912 152.459 189.371 152.903 189.706 153.465C190.041 154.017 190.209 154.643 190.209 155.343C190.209 156.043 190.041 156.679 189.706 157.251C189.371 157.813 188.912 158.262 188.33 158.597C187.759 158.922 187.113 159.085 186.393 159.085ZM186.378 157.281C186.743 157.281 187.063 157.202 187.339 157.044C187.625 156.876 187.842 156.65 187.99 156.364C188.148 156.068 188.227 155.733 188.227 155.358C188.227 154.983 188.148 154.653 187.99 154.367C187.832 154.081 187.616 153.859 187.339 153.701C187.063 153.534 186.743 153.45 186.378 153.45C186.023 153.45 185.708 153.534 185.431 153.701C185.155 153.859 184.938 154.081 184.781 154.367C184.623 154.653 184.544 154.983 184.544 155.358C184.544 155.733 184.623 156.068 184.781 156.364C184.938 156.65 185.155 156.876 185.431 157.044C185.708 157.202 186.023 157.281 186.378 157.281ZM194.429 159.085C193.798 159.085 193.236 158.952 192.743 158.686C192.26 158.42 191.88 158.05 191.604 157.577C191.328 157.103 191.19 156.556 191.19 155.935V151.794H193.142V155.89C193.142 156.186 193.192 156.443 193.29 156.66C193.389 156.867 193.537 157.024 193.734 157.133C193.931 157.241 194.163 157.296 194.429 157.296C194.833 157.296 195.149 157.172 195.376 156.926C195.602 156.679 195.716 156.334 195.716 155.89V151.794H197.653V155.935C197.653 156.566 197.515 157.118 197.239 157.591C196.973 158.065 196.593 158.434 196.1 158.701C195.617 158.957 195.06 159.085 194.429 159.085ZM199.122 158.937V151.794H201.06V158.937H199.122ZM201.06 154.988L200.306 154.485C200.394 153.608 200.651 152.918 201.075 152.415C201.499 151.902 202.11 151.646 202.909 151.646C203.254 151.646 203.564 151.705 203.84 151.823C204.116 151.932 204.368 152.114 204.595 152.37L203.382 153.761C203.273 153.642 203.14 153.554 202.983 153.494C202.835 153.435 202.662 153.406 202.465 153.406C202.051 153.406 201.711 153.539 201.444 153.805C201.188 154.061 201.06 154.456 201.06 154.988ZM211.264 162.102C210.505 162.102 209.834 161.964 209.252 161.688C208.671 161.422 208.207 161.042 207.862 160.549L209.09 159.322C209.366 159.647 209.671 159.894 210.007 160.061C210.352 160.239 210.766 160.328 211.249 160.328C211.85 160.328 212.324 160.175 212.669 159.869C213.024 159.563 213.201 159.139 213.201 158.597V156.807L213.527 155.24L213.216 153.672V151.794H215.139V158.567C215.139 159.277 214.971 159.894 214.636 160.416C214.311 160.949 213.857 161.363 213.275 161.659C212.694 161.954 212.023 162.102 211.264 162.102ZM211.175 158.745C210.534 158.745 209.957 158.592 209.445 158.286C208.932 157.971 208.528 157.542 208.232 157C207.946 156.457 207.803 155.851 207.803 155.181C207.803 154.51 207.946 153.909 208.232 153.376C208.528 152.844 208.932 152.425 209.445 152.119C209.957 151.803 210.534 151.646 211.175 151.646C211.707 151.646 212.176 151.749 212.58 151.956C212.994 152.163 213.32 152.449 213.556 152.814C213.793 153.169 213.921 153.588 213.941 154.071V156.319C213.921 156.793 213.788 157.217 213.541 157.591C213.305 157.956 212.979 158.242 212.565 158.449C212.161 158.646 211.698 158.745 211.175 158.745ZM211.56 156.985C211.915 156.985 212.22 156.911 212.477 156.763C212.743 156.605 212.95 156.393 213.098 156.127C213.246 155.851 213.32 155.54 213.32 155.195C213.32 154.84 213.246 154.53 213.098 154.264C212.95 153.997 212.743 153.79 212.477 153.642C212.22 153.485 211.915 153.406 211.56 153.406C211.205 153.406 210.894 153.485 210.628 153.642C210.362 153.79 210.155 154.002 210.007 154.278C209.859 154.545 209.785 154.85 209.785 155.195C209.785 155.531 209.859 155.836 210.007 156.112C210.155 156.379 210.362 156.591 210.628 156.748C210.894 156.906 211.205 156.985 211.56 156.985ZM220.184 159.085C219.434 159.085 218.769 158.927 218.187 158.612C217.605 158.286 217.142 157.843 216.797 157.281C216.462 156.719 216.294 156.078 216.294 155.358C216.294 154.648 216.457 154.017 216.782 153.465C217.117 152.903 217.571 152.459 218.143 152.134C218.715 151.798 219.351 151.631 220.051 151.631C220.741 151.631 221.347 151.789 221.87 152.104C222.402 152.41 222.817 152.834 223.112 153.376C223.418 153.909 223.571 154.515 223.571 155.195C223.571 155.323 223.561 155.457 223.541 155.595C223.531 155.723 223.507 155.871 223.467 156.038L217.462 156.053V154.604L222.565 154.589L221.781 155.195C221.762 154.771 221.683 154.416 221.545 154.13C221.416 153.844 221.224 153.628 220.968 153.48C220.721 153.322 220.416 153.243 220.051 153.243C219.666 153.243 219.331 153.332 219.045 153.509C218.759 153.677 218.537 153.918 218.379 154.234C218.232 154.54 218.158 154.904 218.158 155.328C218.158 155.762 218.236 156.142 218.394 156.467C218.562 156.783 218.799 157.029 219.104 157.207C219.41 157.374 219.765 157.458 220.169 157.458C220.534 157.458 220.864 157.399 221.16 157.281C221.456 157.153 221.712 156.965 221.929 156.719L223.068 157.858C222.723 158.262 222.299 158.567 221.796 158.775C221.303 158.982 220.766 159.085 220.184 159.085ZM224.695 158.937V151.794H226.633V158.937H224.695ZM229.354 158.937V154.722C229.354 154.308 229.221 153.987 228.955 153.761C228.698 153.524 228.378 153.406 227.993 153.406C227.737 153.406 227.505 153.46 227.298 153.568C227.091 153.667 226.929 153.815 226.81 154.012C226.692 154.209 226.633 154.446 226.633 154.722L225.878 154.352C225.878 153.8 225.997 153.322 226.233 152.918C226.48 152.513 226.81 152.203 227.224 151.986C227.638 151.759 228.107 151.646 228.629 151.646C229.122 151.646 229.571 151.759 229.975 151.986C230.38 152.203 230.7 152.513 230.937 152.918C231.173 153.312 231.292 153.79 231.292 154.352V158.937H229.354ZM234.013 158.937V154.722C234.013 154.308 233.88 153.987 233.614 153.761C233.357 153.524 233.037 153.406 232.652 153.406C232.406 153.406 232.174 153.46 231.957 153.568C231.75 153.667 231.587 153.815 231.469 154.012C231.351 154.209 231.292 154.446 231.292 154.722L230.182 154.456C230.222 153.884 230.375 153.391 230.641 152.977C230.907 152.553 231.257 152.227 231.691 152.001C232.125 151.764 232.608 151.646 233.14 151.646C233.673 151.646 234.151 151.759 234.575 151.986C234.999 152.203 235.334 152.518 235.581 152.932C235.827 153.346 235.951 153.84 235.951 154.411V158.937H234.013ZM240.262 158.937V151.794H242.214V158.937H240.262ZM241.238 150.64C240.923 150.64 240.661 150.536 240.454 150.329C240.247 150.112 240.144 149.846 240.144 149.531C240.144 149.225 240.247 148.964 240.454 148.747C240.661 148.53 240.923 148.421 241.238 148.421C241.564 148.421 241.825 148.53 242.022 148.747C242.229 148.964 242.333 149.225 242.333 149.531C242.333 149.846 242.229 150.112 242.022 150.329C241.825 150.536 241.564 150.64 241.238 150.64ZM248.664 158.937V154.84C248.664 154.416 248.531 154.071 248.264 153.805C247.998 153.539 247.653 153.406 247.229 153.406C246.953 153.406 246.706 153.465 246.489 153.583C246.273 153.701 246.1 153.869 245.972 154.086C245.853 154.303 245.794 154.554 245.794 154.84L245.04 154.456C245.04 153.894 245.158 153.406 245.395 152.992C245.641 152.568 245.977 152.237 246.401 152.001C246.835 151.764 247.323 151.646 247.865 151.646C248.388 151.646 248.856 151.779 249.27 152.045C249.684 152.301 250.01 152.641 250.246 153.065C250.483 153.48 250.601 153.928 250.601 154.411V158.937H248.664ZM243.857 158.937V151.794H245.794V158.937H243.857ZM255.953 158.937V148.821H257.89V158.937H255.953ZM254.282 153.494V151.794H259.562V153.494H254.282ZM265.384 158.937V154.84C265.384 154.416 265.251 154.071 264.985 153.805C264.719 153.539 264.374 153.406 263.95 153.406C263.674 153.406 263.427 153.465 263.21 153.583C262.993 153.701 262.821 153.869 262.692 154.086C262.574 154.303 262.515 154.554 262.515 154.84L261.761 154.456C261.761 153.894 261.879 153.406 262.116 152.992C262.352 152.568 262.678 152.237 263.092 152.001C263.516 151.764 263.999 151.646 264.541 151.646C265.084 151.646 265.562 151.764 265.976 152.001C266.4 152.237 266.73 152.563 266.967 152.977C267.203 153.391 267.322 153.869 267.322 154.411V158.937H265.384ZM260.577 158.937V148.244H262.515V158.937H260.577ZM272.225 159.085C271.476 159.085 270.81 158.927 270.228 158.612C269.647 158.286 269.183 157.843 268.838 157.281C268.503 156.719 268.335 156.078 268.335 155.358C268.335 154.648 268.498 154.017 268.823 153.465C269.159 152.903 269.612 152.459 270.184 152.134C270.756 151.798 271.392 151.631 272.092 151.631C272.782 151.631 273.389 151.789 273.911 152.104C274.444 152.41 274.858 152.834 275.154 153.376C275.459 153.909 275.612 154.515 275.612 155.195C275.612 155.323 275.602 155.457 275.583 155.595C275.573 155.723 275.548 155.871 275.509 156.038L269.504 156.053V154.604L274.606 154.589L273.823 155.195C273.803 154.771 273.724 154.416 273.586 154.13C273.458 153.844 273.265 153.628 273.009 153.48C272.763 153.322 272.457 153.243 272.092 153.243C271.707 153.243 271.372 153.332 271.086 153.509C270.8 153.677 270.578 153.918 270.421 154.234C270.273 154.54 270.199 154.904 270.199 155.328C270.199 155.762 270.278 156.142 270.436 156.467C270.603 156.783 270.84 157.029 271.145 157.207C271.451 157.374 271.806 157.458 272.21 157.458C272.575 157.458 272.906 157.399 273.201 157.281C273.497 157.153 273.753 156.965 273.97 156.719L275.109 157.858C274.764 158.262 274.34 158.567 273.837 158.775C273.344 158.982 272.807 159.085 272.225 159.085ZM282.923 159.085C282.194 159.085 281.538 158.922 280.956 158.597C280.375 158.272 279.916 157.828 279.581 157.266C279.246 156.704 279.078 156.073 279.078 155.373C279.078 154.663 279.246 154.027 279.581 153.465C279.916 152.903 280.375 152.459 280.956 152.134C281.548 151.798 282.204 151.631 282.923 151.631C283.485 151.631 284.003 151.734 284.476 151.941C284.95 152.148 285.359 152.444 285.704 152.829L284.462 154.086C284.274 153.879 284.048 153.721 283.781 153.613C283.525 153.504 283.239 153.45 282.923 153.45C282.568 153.45 282.248 153.534 281.962 153.701C281.686 153.859 281.464 154.081 281.296 154.367C281.139 154.643 281.06 154.973 281.06 155.358C281.06 155.733 281.139 156.068 281.296 156.364C281.464 156.65 281.686 156.876 281.962 157.044C282.248 157.202 282.568 157.281 282.923 157.281C283.249 157.281 283.54 157.227 283.796 157.118C284.062 157 284.289 156.832 284.476 156.615L285.734 157.872C285.369 158.267 284.95 158.567 284.476 158.775C284.003 158.982 283.485 159.085 282.923 159.085ZM286.757 158.937V151.794H288.709V158.937H286.757ZM287.733 150.64C287.418 150.64 287.156 150.536 286.949 150.329C286.742 150.112 286.639 149.846 286.639 149.531C286.639 149.225 286.742 148.964 286.949 148.747C287.156 148.53 287.418 148.421 287.733 148.421C288.058 148.421 288.32 148.53 288.517 148.747C288.724 148.964 288.828 149.225 288.828 149.531C288.828 149.846 288.724 150.112 288.517 150.329C288.32 150.536 288.058 150.64 287.733 150.64ZM291.402 158.937V148.821H293.339V158.937H291.402ZM289.73 153.494V151.794H295.011V153.494H289.73ZM298.274 158.996L295.287 151.794H297.387L299.369 157.296H298.659L300.715 151.794H302.83L299.65 158.996H298.274ZM296.293 161.925L298.467 157.325L299.65 158.996L298.348 161.925H296.293Z" fill="url(#paint2_linear_368_20520)"/>
<g filter="url(#filter0_ii_368_20520)">
<path d="M279.338 0C315.135 0 333.033 0.000203966 345.58 9.11621C349.633 12.0603 353.197 15.6236 356.141 19.6758C365.257 32.223 365.257 50.1221 365.257 85.9189V508.595C365.257 544.391 365.257 562.29 356.141 574.837C353.197 578.889 349.633 582.453 345.58 585.397C333.033 594.513 315.135 594.514 279.338 594.514H165.662C129.866 594.514 111.966 594.514 99.4192 585.397C95.367 582.453 91.8037 578.889 88.8596 574.837C79.7436 562.29 79.7434 544.391 79.7434 508.595V85.9189C79.7434 50.1222 79.7435 32.223 88.8596 19.6758C91.8037 15.6237 95.3671 12.0602 99.4192 9.11621C111.966 0.00010888 129.866 0 165.662 0H279.338ZM157.057 10.7568C129.327 10.7568 115.462 10.7568 105.742 17.8184C102.603 20.099 99.8424 22.86 97.5618 25.999C90.5002 35.7187 90.5002 49.5838 90.5002 77.3135V517.2C90.5002 544.93 90.5 558.795 97.5618 568.515C99.8424 571.654 102.603 574.415 105.742 576.695C115.462 583.757 129.327 583.757 157.057 583.757H287.944C315.673 583.757 329.538 583.757 339.258 576.695C342.397 574.415 345.158 571.654 347.439 568.515C354.5 558.795 354.5 544.93 354.5 517.2V77.3135C354.5 49.584 354.5 35.7187 347.439 25.999C345.158 22.86 342.397 20.099 339.258 17.8184C329.538 10.7566 315.673 10.7568 287.944 10.7568H157.057Z" fill="white"/>
</g>
<g filter="url(#filter1_i_368_20520)">
<rect x="282.565" width="4.03373" height="3.36145" fill="white"/>
</g>
<path d="M282.028 3.36133C315.303 3.36133 331.941 3.36185 343.605 11.8359C347.371 14.5726 350.684 17.8847 353.421 21.6514C361.895 33.315 361.895 49.9536 361.895 83.2295V511.284C361.895 544.56 361.895 561.198 353.421 572.861C350.684 576.628 347.372 579.941 343.605 582.678C331.941 591.152 315.303 591.151 282.028 591.151H162.973C129.697 591.151 113.058 591.152 101.395 582.678C97.6281 579.941 94.3161 576.628 91.5793 572.861C83.1053 561.198 83.1047 544.56 83.1047 511.284V83.2295C83.1047 49.9536 83.1052 33.315 91.5793 21.6514C94.316 17.8849 97.6283 14.5725 101.395 11.8359C113.058 3.36181 129.697 3.36133 162.973 3.36133H282.028ZM157.057 10.7568C129.327 10.7568 115.461 10.7566 105.741 17.8184C102.603 20.0989 99.8423 22.8592 97.5618 25.998C90.5 35.7177 90.5002 49.5835 90.5002 77.3135V517.2C90.5002 544.93 90.5 558.795 97.5618 568.515C99.8423 571.654 102.603 574.414 105.741 576.694C115.461 583.756 129.327 583.757 157.057 583.757H287.944C315.673 583.757 329.538 583.756 339.258 576.694C342.397 574.414 345.157 571.654 347.438 568.515C354.499 558.795 354.5 544.93 354.5 517.2V77.3135C354.5 49.5835 354.5 35.7177 347.438 25.998C345.157 22.8592 342.397 20.0989 339.258 17.8184C329.538 10.7566 315.673 10.7568 287.944 10.7568H157.057Z" fill="black"/>
<g filter="url(#filter2_i_368_20520)">
<path d="M77.7266 219.502C77.7266 218.945 78.1781 218.494 78.735 218.494H79.7434V263.537H78.735C78.1781 263.537 77.7266 263.086 77.7266 262.529V219.502Z" fill="white"/>
</g>
<g filter="url(#filter3_i_368_20520)">
<path d="M77.7266 161.685C77.7266 161.128 78.1781 160.677 78.735 160.677H79.7434V205.72H78.735C78.1781 205.72 77.7266 205.269 77.7266 204.712V161.685Z" fill="white"/>
</g>
<g filter="url(#filter4_i_368_20520)">
<path d="M77.7266 115.97C77.7266 115.413 78.1781 114.961 78.735 114.961H79.7434V138.492H78.735C78.1781 138.492 77.7266 138.04 77.7266 137.483V115.97Z" fill="white"/>
</g>
<path d="M112.592 35.2878V33.742H108.652V32.5645C109.695 30.7508 110.839 28.8981 111.933 27.2351H113.97V32.5533H115.053V33.742H113.97V35.2878H112.592ZM109.991 32.5868H112.614V28.3847H112.53C111.704 29.6459 110.772 31.1359 109.991 32.5031V32.5868Z" fill="black"/>
<path d="M117.285 30.0728C116.777 30.0728 116.397 29.6821 116.397 29.191C116.397 28.6944 116.777 28.3093 117.285 28.3093C117.798 28.3093 118.172 28.6944 118.172 29.191C118.172 29.6821 117.798 30.0728 117.285 30.0728ZM117.285 34.2135C116.777 34.2135 116.397 33.8285 116.397 33.3318C116.397 32.8351 116.777 32.4501 117.285 32.4501C117.798 32.4501 118.172 32.8351 118.172 33.3318C118.172 33.8285 117.798 34.2135 117.285 34.2135Z" fill="black"/>
<path d="M121.615 35.2878V28.6526H121.52L119.517 30.07V28.7139L121.62 27.2351H123.055V35.2878H121.615Z" fill="black"/>
<path d="M127.39 27.0342C129.109 27.0342 130.605 28.2563 130.605 31.1582V31.1693C130.605 33.8815 129.383 35.4887 127.357 35.4887C125.878 35.4887 124.773 34.6125 124.516 33.3792L124.505 33.3179H125.923L125.939 33.3737C126.151 33.9373 126.648 34.3056 127.357 34.3056C128.635 34.3056 129.176 33.0556 129.237 31.5153C129.237 31.454 129.243 31.3926 129.243 31.3312H129.131C128.836 31.9674 128.133 32.531 127.028 32.531C125.482 32.531 124.399 31.4037 124.399 29.8747V29.8635C124.399 28.2284 125.644 27.0342 127.39 27.0342ZM127.385 31.4261C128.294 31.4261 128.992 30.7676 128.992 29.8579V29.8468C128.992 28.926 128.294 28.2061 127.401 28.2061C126.514 28.2061 125.805 28.9148 125.805 29.8133V29.8244C125.805 30.7564 126.47 31.4261 127.385 31.4261Z" fill="black"/>
<path opacity="0.35" d="M321.288 27.2461H332.717C334.006 27.2461 335.051 28.2918 335.051 29.5811V32.9424C335.051 34.2316 334.006 35.2763 332.717 35.2764H321.288C319.999 35.2764 318.953 34.2316 318.953 32.9424V29.5811C318.953 28.2917 319.999 27.2461 321.288 27.2461Z" stroke="black" stroke-width="0.709323"/>
<path opacity="0.4" d="M336.078 30.2529V33.0902C336.649 32.8499 337.02 32.2909 337.02 31.6716C337.02 31.0522 336.649 30.4932 336.078 30.2529Z" fill="black"/>
<path d="M319.943 29.5807C319.943 28.8381 320.545 28.2361 321.288 28.2361H332.717C333.459 28.2361 334.061 28.8381 334.061 29.5807V32.9421C334.061 33.6847 333.459 34.2867 332.717 34.2867H321.288C320.545 34.2867 319.943 33.6847 319.943 32.9421V29.5807Z" fill="black"/>
<path fill-rule="evenodd" clip-rule="evenodd" d="M307.248 32.9998C308.202 32.1757 309.6 32.1757 310.554 32.9998C310.602 33.0441 310.631 33.1066 310.632 33.1726C310.634 33.2385 310.608 33.3022 310.562 33.3484L309.067 34.8885C309.023 34.9336 308.963 34.9588 308.901 34.9588C308.839 34.9587 308.779 34.9337 308.735 34.8885L307.241 33.3484C307.195 33.3022 307.169 33.2386 307.17 33.1726C307.172 33.1066 307.2 33.0441 307.248 32.9998ZM305.227 31.1014C307.284 29.1486 310.468 29.1486 312.525 31.1014C312.571 31.1471 312.597 31.2095 312.598 31.2752C312.599 31.3411 312.573 31.4052 312.528 31.4519L311.665 32.3426C311.576 32.4334 311.432 32.4356 311.34 32.3474C310.665 31.7232 309.786 31.3767 308.875 31.3767C307.964 31.3772 307.086 31.7237 306.412 32.3474C306.32 32.4358 306.176 32.4335 306.087 32.3426L305.223 31.4519C305.178 31.4053 305.152 31.3411 305.153 31.2752C305.154 31.2094 305.181 31.1471 305.227 31.1014ZM303.208 29.2058C306.363 26.1202 311.339 26.1202 314.494 29.2058C314.539 29.2517 314.565 29.3144 314.565 29.3797C314.565 29.4447 314.54 29.5072 314.496 29.5535L313.63 30.4451C313.541 30.5364 313.397 30.5377 313.306 30.448C312.104 29.2818 310.509 28.6307 308.851 28.6306C307.193 28.6306 305.598 29.2817 304.396 30.448C304.306 30.5381 304.161 30.5365 304.072 30.4451L303.206 29.5535C303.161 29.5072 303.136 29.4447 303.136 29.3797C303.137 29.3143 303.163 29.2517 303.208 29.2058Z" fill="black"/>
<path d="M293.052 28.9085C293.052 28.5372 293.353 28.2362 293.724 28.2362H294.397C294.768 28.2362 295.069 28.5372 295.069 28.9085V34.2868C295.069 34.6581 294.768 34.9591 294.397 34.9591H293.724C293.353 34.9591 293.052 34.6581 293.052 34.2868V28.9085Z" fill="black"/>
<path d="M296.413 27.5639C296.413 27.1926 296.714 26.8916 297.086 26.8916H297.758C298.129 26.8916 298.43 27.1926 298.43 27.5639V34.2868C298.43 34.6581 298.129 34.9591 297.758 34.9591H297.086C296.714 34.9591 296.413 34.6581 296.413 34.2868V27.5639Z" fill="black"/>
<path d="M289.691 31.2615C289.691 30.8902 289.992 30.5892 290.363 30.5892H291.035C291.406 30.5892 291.707 30.8902 291.707 31.2615V34.2868C291.707 34.6581 291.406 34.9591 291.035 34.9591H290.363C289.992 34.9591 289.691 34.6581 289.691 34.2868V31.2615Z" fill="black"/>
<path d="M286.329 32.9422C286.329 32.5709 286.63 32.2699 287.001 32.2699H287.674C288.045 32.2699 288.346 32.5709 288.346 32.9422V34.2868C288.346 34.6581 288.045 34.9591 287.674 34.9591H287.001C286.63 34.9591 286.329 34.6581 286.329 34.2868V32.9422Z" fill="black"/>
<rect x="180.146" y="17.4795" width="84.0361" height="25.547" rx="12.7735" fill="#030303"/>
<circle cx="247.792" cy="30.67" r="6.46757" fill="#0E0B0F"/>
<circle cx="247.792" cy="30.67" r="3.59309" fill="#161424"/>
<circle cx="247.792" cy="30.67" r="2.15586" fill="#0F0F2A"/>
<circle cx="247.792" cy="29.9513" r="0.718618" fill="#393752"/>
<g filter="url(#filter5_f_368_20520)">
<path d="M192.214 152.837L93.8509 251.784C91.454 254.195 87.5578 254.195 85.161 251.784L-13.2024 152.837C-15.5992 150.426 -15.5992 146.507 -13.2024 144.096L34.2023 96.4097C35.3594 95.2458 36.9179 94.5925 38.5473 94.5925H140.453C142.082 94.5925 143.641 95.2458 144.798 96.3978L192.202 144.084C194.599 146.495 194.599 150.414 192.202 152.825L192.214 152.837Z" fill="url(#paint3_linear_368_20520)"/>
</g>
<path fill-rule="evenodd" clip-rule="evenodd" d="M128 160.733C128 161.971 128.001 163.208 127.993 164.446C127.987 165.489 127.975 166.531 127.946 167.574C127.885 169.845 127.751 172.136 127.347 174.382C126.938 176.661 126.269 178.782 125.216 180.852C124.18 182.887 122.826 184.749 121.212 186.363C119.597 187.978 117.735 189.331 115.7 190.367C113.63 191.421 111.509 192.089 109.231 192.499C106.984 192.903 104.693 193.036 102.422 193.098C101.38 193.126 100.337 193.138 99.2945 193.144C98.0566 193.152 96.819 193.152 95.5811 193.152H71.4189C70.181 193.152 68.9434 193.152 67.7055 193.144C66.6628 193.138 65.6204 193.126 64.578 193.098C62.3067 193.036 60.0156 192.903 57.7694 192.499C55.4907 192.089 53.37 191.421 51.2997 190.367C49.2649 189.331 47.4028 187.978 45.7883 186.363C44.1737 184.749 42.8203 182.887 41.7845 180.852C40.7307 178.782 40.0622 176.661 39.6526 174.382C39.2488 172.136 39.1152 169.845 39.0536 167.574C39.0253 166.531 39.0133 165.489 39.0073 164.446C38.9995 163.208 39 161.971 39 160.733V136.571C39 135.333 38.9995 134.095 39.0073 132.857C39.0133 131.814 39.0253 130.772 39.0536 129.73C39.1152 127.458 39.2488 125.167 39.6526 122.921C40.0622 120.642 40.7307 118.522 41.7845 116.451C42.8203 114.417 44.1737 112.554 45.7883 110.94C47.4028 109.325 49.2649 107.972 51.2997 106.936C53.37 105.882 55.4907 105.214 57.7694 104.804C60.0156 104.4 62.3067 104.267 64.578 104.205C65.6204 104.177 66.6628 104.165 67.7055 104.159C68.9434 104.151 70.181 104.152 71.4189 104.152H95.5811C96.819 104.152 98.0566 104.151 99.2945 104.159C100.337 104.165 101.38 104.177 102.422 104.205C104.693 104.267 106.984 104.4 109.231 104.804C111.509 105.214 113.63 105.882 115.7 106.936C117.735 107.972 119.597 109.325 121.212 110.94C122.826 112.554 124.18 114.417 125.216 116.451C126.269 118.522 126.938 120.642 127.347 122.921C127.751 125.167 127.885 127.458 127.946 129.73C127.975 130.772 127.987 131.814 127.993 132.857C128.001 134.095 128 135.333 128 136.571V160.733Z" fill="url(#paint4_linear_368_20520)"/>
<path d="M110.295 145.941L85.1138 171.116C84.5002 171.729 83.5028 171.729 82.8892 171.116L57.708 145.941C57.0944 145.327 57.0944 144.33 57.708 143.716L69.8437 131.584C70.1399 131.288 70.5389 131.121 70.956 131.121H97.044C97.4611 131.121 97.8601 131.288 98.1563 131.581L110.292 143.713C110.906 144.327 110.906 145.324 110.292 145.938L110.295 145.941Z" fill="white"/>
<defs>
<filter id="filter0_ii_368_20520" x="79.7434" y="0" width="285.514" height="595.858" filterUnits="userSpaceOnUse" color-interpolation-filters="sRGB">
<feFlood flood-opacity="0" result="BackgroundImageFix"/>
<feBlend mode="normal" in="SourceGraphic" in2="BackgroundImageFix" result="shape"/>
<feColorMatrix in="SourceAlpha" type="matrix" values="0 0 0 0 0 0 0 0 0 0 0 0 0 0 0 0 0 0 127 0" result="hardAlpha"/>
<feOffset/>
<feGaussianBlur stdDeviation="2.68916"/>
<feComposite in2="hardAlpha" operator="arithmetic" k2="-1" k3="1"/>
<feColorMatrix type="matrix" values="0 0 0 0 0 0 0 0 0 0 0 0 0 0 0 0 0 0 0.6 0"/>
<feBlend mode="normal" in2="shape" result="effect1_innerShadow_368_20520"/>
<feColorMatrix in="SourceAlpha" type="matrix" values="0 0 0 0 0 0 0 0 0 0 0 0 0 0 0 0 0 0 127 0" result="hardAlpha"/>
<feOffset dy="1.34458"/>
<feGaussianBlur stdDeviation="1.34458"/>
<feComposite in2="hardAlpha" operator="arithmetic" k2="-1" k3="1"/>
<feColorMatrix type="matrix" values="0 0 0 0 1 0 0 0 0 1 0 0 0 0 1 0 0 0 0.25 0"/>
<feBlend mode="normal" in2="effect1_innerShadow_368_20520" result="effect2_innerShadow_368_20520"/>
</filter>
<filter id="filter1_i_368_20520" x="282.565" y="0" width="4.03369" height="3.36133" filterUnits="userSpaceOnUse" color-interpolation-filters="sRGB">
<feFlood flood-opacity="0" result="BackgroundImageFix"/>
<feBlend mode="normal" in="SourceGraphic" in2="BackgroundImageFix" result="shape"/>
<feColorMatrix in="SourceAlpha" type="matrix" values="0 0 0 0 0 0 0 0 0 0 0 0 0 0 0 0 0 0 127 0" result="hardAlpha"/>
<feMorphology radius="2.01687" operator="erode" in="SourceAlpha" result="effect1_innerShadow_368_20520"/>
<feOffset/>
<feGaussianBlur stdDeviation="0.672289"/>
<feComposite in2="hardAlpha" operator="arithmetic" k2="-1" k3="1"/>
<feColorMatrix type="matrix" values="0 0 0 0 0 0 0 0 0 0 0 0 0 0 0 0 0 0 0.1 0"/>
<feBlend mode="normal" in2="shape" result="effect1_innerShadow_368_20520"/>
</filter>
<filter id="filter2_i_368_20520" x="77.7266" y="217.149" width="2.01685" height="46.388" filterUnits="userSpaceOnUse" color-interpolation-filters="sRGB">
<feFlood flood-opacity="0" result="BackgroundImageFix"/>
<feBlend mode="normal" in="SourceGraphic" in2="BackgroundImageFix" result="shape"/>
<feColorMatrix in="SourceAlpha" type="matrix" values="0 0 0 0 0 0 0 0 0 0 0 0 0 0 0 0 0 0 127 0" result="hardAlpha"/>
<feOffset dy="-1.34458"/>
<feGaussianBlur stdDeviation="1.00843"/>
<feComposite in2="hardAlpha" operator="arithmetic" k2="-1" k3="1"/>
<feColorMatrix type="matrix" values="0 0 0 0 0 0 0 0 0 0 0 0 0 0 0 0 0 0 0.25 0"/>
<feBlend mode="normal" in2="shape" result="effect1_innerShadow_368_20520"/>
</filter>
<filter id="filter3_i_368_20520" x="77.7266" y="159.332" width="2.01685" height="46.388" filterUnits="userSpaceOnUse" color-interpolation-filters="sRGB">
<feFlood flood-opacity="0" result="BackgroundImageFix"/>
<feBlend mode="normal" in="SourceGraphic" in2="BackgroundImageFix" result="shape"/>
<feColorMatrix in="SourceAlpha" type="matrix" values="0 0 0 0 0 0 0 0 0 0 0 0 0 0 0 0 0 0 127 0" result="hardAlpha"/>
<feOffset dy="-1.34458"/>
<feGaussianBlur stdDeviation="1.00843"/>
<feComposite in2="hardAlpha" operator="arithmetic" k2="-1" k3="1"/>
<feColorMatrix type="matrix" values="0 0 0 0 0 0 0 0 0 0 0 0 0 0 0 0 0 0 0.25 0"/>
<feBlend mode="normal" in2="shape" result="effect1_innerShadow_368_20520"/>
</filter>
<filter id="filter4_i_368_20520" x="77.7266" y="113.617" width="2.01685" height="24.8746" filterUnits="userSpaceOnUse" color-interpolation-filters="sRGB">
<feFlood flood-opacity="0" result="BackgroundImageFix"/>
<feBlend mode="normal" in="SourceGraphic" in2="BackgroundImageFix" result="shape"/>
<feColorMatrix in="SourceAlpha" type="matrix" values="0 0 0 0 0 0 0 0 0 0 0 0 0 0 0 0 0 0 127 0" result="hardAlpha"/>
<feOffset dy="-1.34458"/>
<feGaussianBlur stdDeviation="1.00843"/>
<feComposite in2="hardAlpha" operator="arithmetic" k2="-1" k3="1"/>
<feColorMatrix type="matrix" values="0 0 0 0 0 0 0 0 0 0 0 0 0 0 0 0 0 0 0.25 0"/>
<feBlend mode="normal" in2="shape" result="effect1_innerShadow_368_20520"/>
</filter>
<filter id="filter5_f_368_20520" x="-75" y="34.5925" width="329" height="279" filterUnits="userSpaceOnUse" color-interpolation-filters="sRGB">
<feFlood flood-opacity="0" result="BackgroundImageFix"/>
<feBlend mode="normal" in="SourceGraphic" in2="BackgroundImageFix" result="shape"/>
<feGaussianBlur stdDeviation="30" result="effect1_foregroundBlur_368_20520"/>
</filter>
<linearGradient id="paint0_linear_368_20520" x1="224.352" y1="9.87402" x2="224.352" y2="582.654" gradientUnits="userSpaceOnUse">
<stop stop-color="#FFE02E"/>
<stop offset="0.4" stop-color="#FA8AE5"/>
<stop offset="0.56" stop-color="#BDA9EC"/>
<stop offset="0.77" stop-color="#70D2F6"/>
<stop offset="0.92" stop-color="#40EBFC"/>
<stop offset="1" stop-color="#0FF2F2"/>
</linearGradient>
<linearGradient id="paint1_linear_368_20520" x1="180.395" y1="92.2" x2="180.395" y2="111.429" gradientUnits="userSpaceOnUse">
<stop stop-color="#FFE02E"/>
<stop offset="0.4" stop-color="#FA8AE5"/>
<stop offset="0.56" stop-color="#BDA9EC"/>
<stop offset="0.77" stop-color="#70D2F6"/>
<stop offset="0.92" stop-color="#40EBFC"/>
<stop offset="1" stop-color="#0FF2F2"/>
</linearGradient>
<linearGradient id="paint2_linear_368_20520" x1="90.8948" y1="153.437" x2="355.104" y2="153.437" gradientUnits="userSpaceOnUse">
<stop stop-color="#FFE02E"/>
<stop offset="0.4" stop-color="#FA8AE5"/>
<stop offset="0.56" stop-color="#BDA9EC"/>
<stop offset="0.77" stop-color="#70D2F6"/>
<stop offset="0.92" stop-color="#40EBFC"/>
<stop offset="1" stop-color="#0FF2F2"/>
</linearGradient>
<linearGradient id="paint3_linear_368_20520" x1="89.5059" y1="94.5925" x2="89.5059" y2="253.59" gradientUnits="userSpaceOnUse">
<stop stop-color="#FFE02E"/>
<stop offset="0.4" stop-color="#FA8AE5"/>
<stop offset="0.56" stop-color="#BDA9EC"/>
<stop offset="0.77" stop-color="#70D2F6"/>
<stop offset="0.92" stop-color="#40EBFC"/>
<stop offset="1" stop-color="#0FF2F2"/>
</linearGradient>
<linearGradient id="paint4_linear_368_20520" x1="83.5025" y1="104.152" x2="83.5025" y2="193.15" gradientUnits="userSpaceOnUse">
<stop stop-color="#FFE02E"/>
<stop offset="0.4" stop-color="#FA8AE5"/>
<stop offset="0.56" stop-color="#BDA9EC"/>
<stop offset="0.77" stop-color="#70D2F6"/>
<stop offset="0.92" stop-color="#40EBFC"/>
<stop offset="1" stop-color="#0FF2F2"/>
</linearGradient>
</defs>
</svg>
