<svg width="202" height="68" viewBox="0 0 202 68" fill="none" xmlns="http://www.w3.org/2000/svg">
<g clip-path="url(#clip0_17_1844)">
<mask id="mask0_17_1844" style="mask-type:luminance" maskUnits="userSpaceOnUse" x="0" y="0" width="202" height="68">
<path d="M201.6 0H0V67.2H201.6V0Z" fill="white"/>
</mask>
<g mask="url(#mask0_17_1844)">
<path d="M185.027 0H16.0182C15.4022 0 14.7935 3.25963e-10 14.1791 0.0035784C13.6648 0.0069384 13.1546 0.0166992 12.6353 0.0249144C11.5072 0.0381894 10.3817 0.137434 9.26873 0.321787C8.15728 0.510153 7.08065 0.865277 6.07524 1.37515C5.07108 1.88933 4.15353 2.55745 3.35591 3.3553C2.5541 4.15089 1.88574 5.07048 1.37651 6.07873C0.865872 7.08495 0.511797 8.16323 0.326508 9.27631C0.139458 10.388 0.0388053 11.5125 0.025452 12.6397C0.0098616 13.1548 0.0082152 13.6715 0 14.1867V53.0187C0.0082152 53.5404 0.0098616 54.0456 0.025452 54.5674C0.0388094 55.6945 0.139463 56.819 0.326508 57.9306C0.511284 59.0443 0.865382 60.1233 1.37651 61.1299C1.88551 62.1348 2.55398 63.0507 3.35591 63.8419C4.15051 64.6433 5.06864 65.3119 6.07524 65.8222C7.08064 66.3333 8.15716 66.6906 9.26873 66.8818C10.3819 67.0648 11.5073 67.164 12.6353 67.1789C13.1546 67.1904 13.6648 67.1968 14.1791 67.1968C14.7935 67.2002 15.4022 67.2002 16.0182 67.2002H185.027C185.63 67.2002 186.243 67.2002 186.848 67.1968C187.359 67.1968 187.884 67.1904 188.397 67.1789C189.522 67.1647 190.645 67.0655 191.757 66.8818C192.871 66.6892 193.952 66.332 194.963 65.8222C195.968 65.3116 196.885 64.6431 197.679 63.8419C198.479 63.0476 199.149 62.1325 199.664 61.1299C200.172 60.1225 200.522 59.0438 200.704 57.9306C200.892 56.8189 200.995 55.6947 201.016 54.5674C201.023 54.0456 201.023 53.5404 201.023 53.0187C201.036 52.4083 201.036 51.8013 201.036 51.1811V16.0209C201.036 15.4056 201.036 14.7954 201.023 14.1867C201.023 13.6715 201.023 13.1548 201.016 12.6396C200.995 11.5123 200.892 10.3881 200.704 9.27623C200.522 8.16381 200.171 7.08563 199.664 6.07866C198.626 4.05775 196.983 2.41273 194.963 1.375C193.952 0.866372 192.871 0.511342 191.757 0.321636C190.645 0.136471 189.522 0.0371914 188.397 0.0246792C187.884 0.0164808 187.359 0.006636 186.848 0.00336C186.243 0 185.63 0 185.027 0Z" fill="url(#paint0_linear_17_1844)"/>
<path d="M14.1873 65.7302C13.6755 65.7302 13.176 65.7236 12.6681 65.7121C11.6161 65.6984 10.5665 65.6068 9.52797 65.4381C8.55959 65.2714 7.62151 64.9611 6.74465 64.5176C5.87582 64.0779 5.08338 63.5012 4.39769 62.8098C3.70207 62.1264 3.12293 61.3339 2.68323 60.4636C2.23868 59.5877 1.93103 58.6487 1.77099 57.6795C1.59815 56.6381 1.50464 55.5851 1.49127 54.5295C1.48062 54.1753 1.46667 52.9955 1.46667 52.9955V14.1866C1.46667 14.1866 1.48153 13.025 1.49136 12.6838C1.50417 11.6299 1.59713 10.5785 1.76944 9.53867C1.92978 8.56683 2.23767 7.62519 2.68245 6.74634C3.12054 5.87663 3.69645 5.08353 4.38789 4.39779C5.07853 3.70553 5.87351 3.1259 6.74382 2.68004C7.61867 2.23801 8.55499 1.92996 9.52139 1.76622C10.5633 1.59581 11.6166 1.50368 12.6723 1.4906L14.1882 1.47009H186.84L188.373 1.49143C189.42 1.50386 190.463 1.59517 191.495 1.76458C192.472 1.93037 193.417 2.24057 194.303 2.68497C196.046 3.5835 197.464 5.00508 198.36 6.75044C198.797 7.62322 199.101 8.55719 199.259 9.52064C199.433 10.569 199.531 11.6286 199.55 12.6911C199.556 13.1669 199.556 13.678 199.556 14.1866C199.569 14.8166 199.569 15.4163 199.569 16.0208V51.1809C199.569 51.7913 199.569 52.3869 199.556 52.9872C199.556 53.5336 199.556 54.0341 199.549 54.5492C199.529 55.5928 199.434 56.6335 199.262 57.6631C199.105 58.6393 198.8 59.5856 198.355 60.4687C197.912 61.3295 197.336 62.1152 196.648 62.7966C195.962 63.4918 195.168 64.0719 194.298 64.5144C193.416 64.9613 192.471 65.2726 191.495 65.4381C190.457 65.6077 189.407 65.6994 188.355 65.7121C187.863 65.7236 187.348 65.7302 186.848 65.7302L185.027 65.7334L14.1873 65.7302Z" fill="#090316"/>
<path d="M41.6116 34.1051C41.6483 31.255 43.1425 28.6224 45.5707 27.1296C44.0319 24.932 41.5469 23.5886 38.8655 23.5047C36.0444 23.2086 33.3093 25.1929 31.8718 25.1929C30.4064 25.1929 28.193 23.5341 25.8095 23.5831C22.6735 23.6845 19.8208 25.4243 18.295 28.166C15.0459 33.7914 17.4695 42.0587 20.5818 46.6059C22.139 48.8324 23.9589 51.3195 26.3403 51.2313C28.6706 51.1347 29.5408 49.7454 32.3537 49.7454C35.1404 49.7454 35.9569 51.2313 38.3866 51.1753C40.887 51.1347 42.4624 48.9388 43.965 46.6911C45.0839 45.1046 45.9448 43.3511 46.516 41.4957C43.5461 40.2396 41.6151 37.3296 41.6116 34.1051Z" fill="white"/>
<path d="M37.0226 20.5143C38.3859 18.8776 39.0576 16.7739 38.8949 14.6501C36.812 14.8688 34.888 15.8644 33.5062 17.4382C32.1417 18.9911 31.4506 21.0227 31.5848 23.0854C33.6956 23.1071 35.6998 22.1595 37.0226 20.5143Z" fill="white"/>
<path d="M71.0678 45.5947H63.1158L61.206 51.2335H57.8378L65.3699 30.3712H68.8694L76.4015 51.2335H72.9758L71.0678 45.5947ZM63.9392 42.9926H70.2426L67.1353 33.8413H67.0484L63.9392 42.9926Z" fill="white"/>
<path d="M92.668 43.6292C92.668 48.3559 90.1383 51.3928 86.3206 51.3928C84.3472 51.496 82.4884 50.4624 81.5348 48.7315H81.4626V56.2654H78.3405V36.0233H81.3626V38.5533H81.42C82.4159 36.8334 84.2767 35.8002 86.2631 35.8641C90.1234 35.8643 92.668 38.9157 92.668 43.6292ZM89.459 43.6292C89.459 40.5498 87.8676 38.5253 85.4396 38.5253C83.054 38.5253 81.4496 40.5925 81.4496 43.6292C81.4496 46.694 83.054 48.7464 85.4396 48.7464C87.8676 48.7464 89.459 46.7367 89.459 43.6292Z" fill="white"/>
<path d="M109.409 43.6292C109.409 48.3559 106.879 51.3927 103.062 51.3927C101.088 51.496 99.2296 50.4624 98.276 48.7315H98.2038V56.2654H95.0817V36.0233H98.1037V38.5531H98.1611C99.1571 36.8332 101.018 35.8002 103.004 35.8641C106.865 35.8641 109.409 38.9157 109.409 43.6292ZM106.2 43.6292C106.2 40.5498 104.609 38.5253 102.181 38.5253C99.7953 38.5253 98.1908 40.5925 98.1908 43.6292C98.1908 46.694 99.7953 48.7464 102.181 48.7464C104.609 48.7464 106.2 46.7367 106.2 43.6292Z" fill="white"/>
<path d="M120.473 45.4208C120.705 47.4897 122.715 48.848 125.461 48.848C128.092 48.848 129.986 47.4896 129.986 45.6242C129.986 44.0048 128.844 43.0353 126.14 42.3709L123.436 41.7195C119.606 40.7942 117.827 39.0026 117.827 36.0954C117.827 32.4958 120.964 30.0234 125.418 30.0234C129.827 30.0234 132.849 32.4958 132.95 36.0954H129.799C129.61 34.0134 127.889 32.7568 125.374 32.7568C122.859 32.7568 121.138 34.0283 121.138 35.8788C121.138 37.3538 122.237 38.2217 124.926 38.886L127.224 39.4505C131.505 40.4627 133.283 42.1822 133.283 45.2336C133.283 49.1367 130.174 51.5812 125.229 51.5812C120.603 51.5812 117.479 49.1941 117.277 45.4206L120.473 45.4208Z" fill="white"/>
<path d="M140.022 32.4237V36.0232H142.915V38.4956H140.022V46.8809C140.022 48.1835 140.601 48.7905 141.872 48.7905C142.216 48.7845 142.559 48.7604 142.899 48.7183V51.176C142.328 51.2828 141.747 51.3311 141.165 51.3203C138.086 51.3203 136.885 50.1637 136.885 47.2139V38.4956H134.673V36.0232H136.885V32.4237H140.022Z" fill="white"/>
<path d="M144.589 43.6291C144.589 38.8434 147.407 35.8362 151.803 35.8362C156.213 35.8362 159.018 38.8434 159.018 43.6291C159.018 48.4279 156.227 51.4221 151.803 51.4221C147.379 51.4221 144.589 48.4279 144.589 43.6291ZM155.837 43.6291C155.837 40.3463 154.333 38.4087 151.803 38.4087C149.274 38.4087 147.77 40.361 147.77 43.6291C147.77 46.9252 149.274 48.8479 151.803 48.8479C154.333 48.8479 155.837 46.9252 155.837 43.6291Z" fill="white"/>
<path d="M161.592 36.0234H164.57V38.6123H164.643C165.059 36.9456 166.585 35.7987 168.301 35.8642C168.661 35.863 169.019 35.902 169.371 35.9807V38.901C168.917 38.7622 168.442 38.6984 167.968 38.7123C167.051 38.6752 166.162 39.0408 165.536 39.7137C164.912 40.3865 164.611 41.299 164.714 42.2117V51.2336H161.592V36.0234Z" fill="white"/>
<path d="M183.765 46.766C183.345 49.5272 180.657 51.4221 177.216 51.4221C172.792 51.4221 170.045 48.4575 170.045 43.7014C170.045 38.9305 172.806 35.8362 177.085 35.8362C181.293 35.8362 183.94 38.7269 183.94 43.3388V44.4084H173.197V44.5971C173.096 45.7294 173.488 46.8504 174.271 47.6747C175.053 48.4989 176.152 48.9472 177.289 48.9053C178.804 49.0473 180.232 48.1773 180.802 46.766H183.765ZM173.212 42.2265H180.816C180.873 41.2088 180.502 40.2138 179.794 39.4811C179.085 38.7483 178.104 38.3441 177.085 38.366C176.058 38.3598 175.071 38.7643 174.345 39.4892C173.617 40.214 173.209 41.1994 173.212 42.2265Z" fill="white"/>
<path d="M63.5481 14.668C64.8734 14.5729 66.1717 15.0772 67.0854 16.0421C67.9991 17.007 68.432 18.3307 68.2648 19.6489C68.2648 22.8514 66.534 24.6923 63.5481 24.6923H59.9272V14.668H63.5481ZM61.4842 23.2746H63.3742C64.3214 23.3313 65.2437 22.9581 65.8849 22.2587C66.5263 21.5594 66.8183 20.6082 66.68 19.6694C66.8082 18.7346 66.512 17.7913 65.8723 17.0976C65.2325 16.4039 64.3164 16.0323 63.3742 16.0847H61.4842V23.2746Z" fill="white"/>
<path d="M70.0238 20.9064C69.894 19.5504 70.5441 18.2382 71.7017 17.52C72.859 16.8018 74.3236 16.8018 75.481 17.52C76.6383 18.2382 77.2885 19.5504 77.1589 20.9064C77.291 22.2637 76.6414 23.5786 75.4829 24.2984C74.3246 25.0181 72.8581 25.0181 71.6996 24.2984C70.5412 23.5786 69.8916 22.2637 70.0238 20.9064ZM75.6232 20.9064C75.6232 19.2666 74.8865 18.3076 73.5938 18.3076C72.296 18.3076 71.566 19.2666 71.566 20.9064C71.566 22.5594 72.2961 23.5109 73.5938 23.5109C74.8865 23.5109 75.6232 22.5527 75.6232 20.9064Z" fill="white"/>
<path d="M86.6432 24.6922H85.0943L83.5308 19.1206H83.4128L81.8558 24.6922H80.3219L78.2366 17.1273H79.7508L81.106 22.8998H81.2176L82.7729 17.1273H84.2052L85.7605 22.8998H85.8786L87.2272 17.1273H88.7202L86.6432 24.6922Z" fill="white"/>
<path d="M90.474 17.1273H91.9111V18.329H92.0227C92.4106 17.4442 93.3173 16.903 94.2802 16.9812C95.0258 16.9252 95.7565 17.2113 96.2658 17.7585C96.7753 18.3059 97.0081 19.0552 96.8986 19.795V24.6922H95.4056V20.1697C95.4056 18.9541 94.8774 18.3495 93.7732 18.3495C93.2676 18.3259 92.7767 18.5245 92.4295 18.8929C92.0823 19.2614 91.9133 19.7632 91.967 20.2666V24.6922H90.474V17.1273Z" fill="white"/>
<path d="M99.2776 14.1742H100.771V24.6923H99.2776V14.1742Z" fill="white"/>
<path d="M102.846 20.9063C102.716 19.5503 103.367 18.238 104.524 17.5198C105.682 16.8015 107.146 16.8015 108.304 17.5198C109.461 18.238 110.112 19.5503 109.982 20.9063C110.114 22.2639 109.464 23.5786 108.306 24.2984C107.147 25.0181 105.681 25.0181 104.522 24.2984C103.364 23.5786 102.714 22.2639 102.846 20.9063ZM108.446 20.9063C108.446 19.2666 107.709 18.3076 106.416 18.3076C105.118 18.3076 104.388 19.2666 104.388 20.9064C104.388 22.5593 105.118 23.5109 106.416 23.5109C107.709 23.5109 108.446 22.5527 108.446 20.9063Z" fill="white"/>
<path d="M111.554 22.5529C111.554 21.1911 112.568 20.4061 114.367 20.2946L116.416 20.1764V19.5234C116.416 18.7245 115.888 18.2734 114.868 18.2734C114.034 18.2734 113.457 18.5793 113.291 19.1142H111.846C111.998 17.8147 113.221 16.9813 114.937 16.9813C116.833 16.9813 117.903 17.9255 117.903 19.5234V24.6922H116.466V23.6292H116.348C115.859 24.4055 114.991 24.8593 114.075 24.817C113.433 24.8838 112.793 24.6757 112.312 24.2444C111.832 23.813 111.556 23.1986 111.554 22.5529ZM116.416 21.9065V21.274L114.569 21.3922C113.527 21.4619 113.055 21.8162 113.055 22.4832C113.055 23.164 113.645 23.5602 114.458 23.5602C114.938 23.6089 115.418 23.4604 115.788 23.1486C116.157 22.8368 116.384 22.3887 116.416 21.9065Z" fill="white"/>
<path d="M119.865 20.9065C119.865 18.5162 121.094 17.0018 123.005 17.0018C123.97 16.9574 124.874 17.4746 125.325 18.329H125.436V14.1742H126.929V24.6923H125.499V23.4971H125.38C124.896 24.3445 123.981 24.8528 123.005 24.8169C121.08 24.817 119.865 23.3026 119.865 20.9065ZM121.407 20.9065C121.407 22.5111 122.163 23.4765 123.428 23.4765C124.686 23.4765 125.464 22.4971 125.464 20.9131C125.464 19.3364 124.678 18.343 123.428 18.343C122.171 18.343 121.407 19.3151 121.407 20.9065Z" fill="white"/>
<path d="M133.107 20.9064C132.977 19.5504 133.627 18.2382 134.784 17.52C135.942 16.8018 137.406 16.8018 138.564 17.52C139.721 18.2382 140.371 19.5504 140.242 20.9064C140.374 22.2637 139.724 23.5786 138.566 24.2984C137.407 25.0181 135.941 25.0181 134.782 24.2984C133.624 23.5786 132.974 22.2637 133.107 20.9064ZM138.706 20.9064C138.706 19.2666 137.969 18.3076 136.677 18.3076C135.379 18.3076 134.649 19.2666 134.649 20.9064C134.649 22.5594 135.379 23.5109 136.677 23.5109C137.969 23.5109 138.706 22.5527 138.706 20.9064Z" fill="white"/>
<path d="M142.246 17.1273H143.682V18.329H143.794C144.182 17.4442 145.088 16.903 146.051 16.9812C146.797 16.9252 147.528 17.2113 148.037 17.7585C148.546 18.3059 148.779 19.0552 148.67 19.795V24.6922H147.176V20.1697C147.176 18.9541 146.649 18.3495 145.544 18.3495C145.039 18.3259 144.547 18.5245 144.2 18.8929C143.853 19.2614 143.685 19.7632 143.738 20.2666V24.6922H142.246V17.1273Z" fill="white"/>
<path d="M157.105 15.2438V17.1616H158.745V18.4193H157.105V22.3092C157.105 23.1016 157.433 23.4486 158.175 23.4486C158.365 23.4479 158.556 23.4364 158.745 23.4142V24.6577C158.477 24.7057 158.206 24.7312 157.933 24.734C156.272 24.734 155.611 24.1499 155.611 22.6914V18.4191H154.41V17.1616H155.611V15.2438H157.105Z" fill="white"/>
<path d="M160.784 14.1742H162.264V18.343H162.382C162.789 17.4505 163.71 16.9085 164.689 16.9879C165.43 16.9475 166.151 17.2399 166.655 17.7852C167.159 18.3307 167.392 19.0722 167.294 19.8081V24.6923H165.799V20.1764C165.799 18.9681 165.236 18.3561 164.182 18.3561C163.663 18.3136 163.15 18.5023 162.784 18.8722C162.417 19.2419 162.231 19.7549 162.277 20.274V24.6923H160.784V14.1742Z" fill="white"/>
<path d="M176 22.6497C175.581 24.0767 174.199 24.9986 172.721 24.8383C171.713 24.8649 170.743 24.4468 170.071 23.6949C169.397 22.9429 169.089 21.9331 169.226 20.9335C169.092 19.9311 169.4 18.9199 170.069 18.1615C170.738 17.4033 171.703 16.9726 172.714 16.9813C174.819 16.9813 176.089 18.4194 176.089 20.7949V21.3159H170.747V21.3996C170.701 21.9608 170.892 22.5161 171.276 22.9287C171.66 23.3414 172.199 23.573 172.761 23.5668C173.492 23.6544 174.203 23.2921 174.562 22.6497H176ZM170.747 20.2117H174.569C174.607 19.6983 174.426 19.1926 174.072 18.8195C173.716 18.4463 173.221 18.2402 172.707 18.252C172.185 18.2454 171.682 18.4498 171.314 18.8188C170.944 19.1877 170.741 19.69 170.747 20.2117Z" fill="white"/>
</g>
</g>
<defs>
<linearGradient id="paint0_linear_17_1844" x1="100.524" y1="0" x2="100.524" y2="67.1989" gradientUnits="userSpaceOnUse">
<stop stop-color="#FFE02E"/>
<stop offset="0.4" stop-color="#FA8AE5"/>
<stop offset="0.56" stop-color="#BDA9EC"/>
<stop offset="0.77" stop-color="#70D2F6"/>
<stop offset="0.92" stop-color="#40EBFC"/>
<stop offset="1" stop-color="#0FF2F2"/>
</linearGradient>
<clipPath id="clip0_17_1844">
<rect width="201.6" height="67.2" fill="white"/>
</clipPath>
</defs>
</svg>
