<svg width="226" height="68" viewBox="0 0 226 68" fill="none" xmlns="http://www.w3.org/2000/svg">
<g clip-path="url(#clip0_17_1845)">
<mask id="mask0_17_1845" style="mask-type:luminance" maskUnits="userSpaceOnUse" x="0" y="0" width="226" height="68">
<path d="M225.4 0H0V67.2H225.4V0Z" fill="white"/>
</mask>
<g mask="url(#mask0_17_1845)">
<path d="M216.118 66.785H8.71121C4.14825 66.785 0.414917 63.0516 0.414917 58.4888V8.71097C0.414917 4.148 4.14825 0.414673 8.71121 0.414673H216.118C220.682 0.414673 224.414 4.148 224.414 8.71097V58.4888C224.414 63.0516 220.682 66.785 216.118 66.785Z" fill="#090316"/>
<path d="M216.118 0.414673H8.71121C4.14825 0.414673 0.414917 4.148 0.414917 8.71097V58.4888C0.414917 63.0516 4.14825 66.785 8.71121 66.785H216.118C220.682 66.785 224.414 63.0516 224.414 58.4888V8.71097C224.414 4.148 220.682 0.414673 216.118 0.414673ZM216.118 1.74207C219.961 1.74207 223.087 4.86879 223.087 8.71097V58.4888C223.087 62.3316 219.961 65.4582 216.118 65.4582H8.71121C4.86903 65.4582 1.74232 62.3316 1.74232 58.4888V8.71097C1.74232 4.86879 4.86903 1.74207 8.71121 1.74207H216.118Z" fill="url(#paint0_linear_17_1845)"/>
<path d="M79.0944 17.4111C79.0944 18.8013 78.6827 19.9083 77.8582 20.7342C76.9217 21.7161 75.7012 22.2074 74.2007 22.2074C72.7637 22.2074 71.5421 21.7097 70.5373 20.7127C69.5309 19.7165 69.0287 18.4813 69.0287 17.0074C69.0287 15.5327 69.5309 14.2981 70.5373 13.3012C71.5421 12.305 72.7637 11.8065 74.2007 11.8065C74.9137 11.8065 75.5964 11.9459 76.2444 12.224C76.8925 12.5028 77.4123 12.8728 77.8012 13.3362L76.9262 14.2118C76.2671 13.4243 75.3596 13.0309 74.2007 13.0309C73.1527 13.0309 72.2466 13.3991 71.4818 14.136C70.7169 14.8736 70.3346 15.8302 70.3346 17.0074C70.3346 18.1843 70.7169 19.141 71.4818 19.8786C72.2466 20.6156 73.1527 20.9838 74.2007 20.9838C75.3124 20.9838 76.2392 20.6135 76.9812 19.8722C77.463 19.3892 77.7416 18.7179 77.8161 17.8556H74.2007V16.6599H79.025C79.0716 16.9199 79.0944 17.1693 79.0944 17.4111Z" fill="white"/>
<path d="M79.094 17.411H78.9281C78.9269 18.7694 78.5301 19.8246 77.7407 20.6167L77.7389 20.6181L77.7382 20.6194C76.8314 21.5675 75.6659 22.0394 74.2005 22.0414C72.8019 22.0394 71.6312 21.5624 70.6537 20.5953C69.6785 19.6264 69.196 18.4435 69.1942 17.0073C69.196 15.5703 69.6785 14.388 70.6537 13.4197C71.6312 12.452 72.8019 11.9743 74.2005 11.9724C74.8919 11.9724 75.5505 12.1073 76.1785 12.3762C76.8073 12.6472 77.3039 13.0023 77.6739 13.4431L77.801 13.3361L77.6837 13.2188L76.8087 14.095L76.9259 14.2117L77.0537 14.1055C76.3639 13.279 75.3958 12.8624 74.2005 12.8649C73.1137 12.8635 72.1576 13.2518 71.3667 14.0167C70.5683 14.7842 70.1671 15.7944 70.1685 17.0073C70.1671 18.2199 70.5683 19.2303 71.3667 19.9977C72.1576 20.7626 73.1137 21.1508 74.2005 21.1496C75.3489 21.1515 76.3278 20.7619 77.0984 19.9894C77.613 19.4734 77.9047 18.7585 77.9812 17.8698L77.9966 17.6896H74.3664V16.8257H79.0247V16.6598L78.8612 16.6889C78.9067 16.9405 78.9281 17.1796 78.9281 17.411H79.094H79.2599C79.2599 17.1589 79.2366 16.8997 79.188 16.6301L79.1635 16.4939H74.0345V17.8555V18.0216H77.8159V17.8555L77.6505 17.8414C77.5773 18.6762 77.3116 19.3049 76.8637 19.7548C76.1507 20.4651 75.2758 20.8157 74.2005 20.8176C73.1912 20.8164 72.3351 20.4689 71.5969 19.7592C70.8658 19.0521 70.5021 18.1492 70.5003 17.0073C70.5021 15.8651 70.8658 14.9623 71.5969 14.2551C72.3351 13.5455 73.1912 13.198 74.2005 13.1967C75.3224 13.1994 76.1696 13.5701 76.799 14.3187L76.9156 14.4574L77.9183 13.4534L78.0258 13.3459L77.928 13.2297C77.5203 12.7437 76.9773 12.358 76.3095 12.0716C75.6407 11.7844 74.9348 11.6405 74.2005 11.6405C72.7253 11.6392 71.4524 12.1577 70.4198 13.1838C69.3835 14.2078 68.8612 15.4951 68.8624 17.0073C68.8612 18.5186 69.3834 19.8066 70.4205 20.8314C71.4524 21.8567 72.7253 22.3746 74.2005 22.3733C75.7366 22.3746 77.0108 21.8644 77.978 20.8487L77.858 20.7341L77.9753 20.8514C78.8348 19.9925 79.2612 18.8324 79.2599 17.411H79.094Z" fill="white"/>
<path d="M86.7426 13.2526H82.2089V16.4092H86.2974V17.6055H82.2089V20.762H86.7426V21.9851H80.9307V12.0295H86.7426V13.2526Z" fill="white"/>
<path d="M86.7422 13.2525V13.0866H82.0426V16.5749H86.1311V17.439L82.0426 17.4394V20.9278H86.5763V21.8191H81.0963V12.1954H86.5763V13.2525H86.7422H86.9081V12.0294V11.8635H80.7645V22.1509H86.9081V20.7619V20.596H82.3744V17.7712H86.4631V16.409V16.2431H82.3744V13.4184H86.9081V13.2525H86.7422Z" fill="white"/>
<path d="M92.1369 21.9851H90.8568V13.2526H88.0762V12.0295H94.9176V13.2526H92.1369V21.9851Z" fill="white"/>
<path d="M92.1368 21.985V21.8191H91.0225V13.0866H88.242V12.1954H94.7514V13.0866H91.9709V21.985H92.1368H92.3027V13.4184H95.0832V12.0294V11.8635H87.9102V13.2525V13.4184H90.6907V22.1509H92.1368H92.3027V21.985H92.1368Z" fill="white"/>
<path d="M99.8676 21.9851V12.0295H101.146V21.9851H99.8676Z" fill="white"/>
<path d="M99.8675 21.985H100.033V12.1954H100.98V21.8191H99.8675V21.985V22.1509H101.146H101.312V11.8635H99.8675H99.7014V22.1509H99.8675V21.985Z" fill="white"/>
<path d="M106.821 21.9851H105.541V13.2526H102.76V12.0295H109.602V13.2526H106.821V21.9851Z" fill="white"/>
<path d="M106.821 21.985V21.8191H105.707V13.0866H102.926V12.1954H109.436V13.0866H106.655V21.985H106.821H106.987V13.4184H109.767V12.0294V11.8635H102.594V13.2525V13.4184H105.375V22.1509H106.821H106.987V21.985H106.821Z" fill="white"/>
<path d="M116.197 19.865C116.933 20.6111 117.835 20.9838 118.901 20.9838C119.968 20.9838 120.87 20.6111 121.605 19.865C122.343 19.119 122.712 18.1654 122.712 17.0074C122.712 15.8491 122.343 14.8956 121.605 14.1495C120.87 13.4036 119.968 13.0309 118.901 13.0309C117.835 13.0309 116.933 13.4036 116.197 14.1495C115.461 14.8956 115.091 15.8491 115.091 17.0074C115.091 18.1654 115.461 19.119 116.197 19.865ZM122.552 20.6985C121.573 21.7051 120.356 22.2074 118.901 22.2074C117.446 22.2074 116.229 21.7051 115.252 20.6985C114.273 19.6931 113.786 18.4625 113.786 17.0074C113.786 15.5521 114.273 14.3213 115.252 13.3161C116.229 12.3094 117.446 11.8065 118.901 11.8065C120.348 11.8065 121.562 12.3121 122.545 13.3226C123.527 14.3331 124.019 15.5613 124.019 17.0074C124.019 18.4625 123.528 19.6931 122.552 20.6985Z" fill="white"/>
<path d="M116.197 19.8649L116.079 19.9816C116.843 20.7574 117.797 21.1515 118.902 21.1496C120.006 21.1515 120.961 20.7574 121.724 19.9816C122.493 19.2051 122.88 18.2003 122.879 17.0073C122.88 15.814 122.493 14.8094 121.724 14.0328C120.961 13.257 120.006 12.8629 118.902 12.8649C117.797 12.8629 116.843 13.257 116.079 14.0328C115.312 14.8094 114.924 15.814 114.926 17.0073C114.924 18.2003 115.312 19.2051 116.079 19.9816L116.197 19.8649L116.315 19.7483C115.611 19.0319 115.259 18.131 115.258 17.0073C115.259 15.8833 115.611 14.9824 116.315 14.2661C117.025 13.55 117.874 13.1987 118.902 13.1967C119.929 13.1987 120.779 13.55 121.488 14.2661C122.193 14.9824 122.545 15.8833 122.546 17.0073C122.545 18.131 122.193 19.0319 121.488 19.7483C120.779 20.4644 119.929 20.8157 118.902 20.8176C117.874 20.8157 117.025 20.4644 116.315 19.7483L116.197 19.8649ZM122.552 20.6984L122.434 20.5831C121.482 21.558 120.319 22.0394 118.902 22.0414C117.484 22.0394 116.321 21.558 115.371 20.5831C114.422 19.605 113.953 18.4253 113.952 17.0073C113.953 15.5891 114.422 14.4094 115.371 13.4313C116.321 12.4565 117.484 11.9744 118.902 11.9724C120.309 11.9744 121.47 12.4585 122.427 13.4385C123.38 14.421 123.851 15.5989 123.853 17.0073C123.851 18.4253 123.381 19.605 122.434 20.5831L122.552 20.6984L122.671 20.8137C123.677 19.7807 124.186 18.4992 124.185 17.0073C124.186 15.5237 123.675 14.2449 122.665 13.2072C121.654 12.1655 120.387 11.6387 118.902 11.6405C117.408 11.6387 116.138 12.163 115.133 13.2007C114.126 14.2344 113.619 15.5151 113.62 17.0073C113.619 18.4992 114.126 19.7807 115.133 20.8144C116.138 21.8521 117.408 22.3746 118.902 22.3733C120.394 22.3746 121.665 21.8514 122.671 20.8137L122.552 20.6984Z" fill="white"/>
<path d="M125.814 21.9851V12.0295H127.371L132.209 19.7743H132.264L132.209 17.8556V12.0295H133.489V21.9851H132.154L127.092 13.865H127.037L127.092 15.7843V21.9851H125.814Z" fill="white"/>
<path d="M125.814 21.985H125.98V12.1954H127.279L132.117 19.9401H132.264H132.435L132.375 17.8531V12.1954H133.323V21.8191H132.246L127.184 13.699H127.037H126.866L126.926 15.7869V21.8191H125.814V21.985V22.1509H127.092H127.258V15.7816L127.203 13.8604L127.037 13.8649V14.0309H127.092V13.8649L126.951 13.9532L132.062 22.1509H133.489H133.655V11.8635H132.209H132.043V17.8576L132.098 19.7787L132.264 19.7742V19.6083H132.209V19.7742L132.35 19.6862L127.463 11.8635H125.814H125.648V22.1509H125.814V21.985Z" fill="white"/>
<path d="M177.849 50.1925H180.946V29.4498H177.849V50.1925ZM205.737 36.9218L202.188 45.9148H202.082L198.398 36.9218H195.062L200.586 49.4911L197.436 56.4827H200.668L209.18 36.9218H205.737ZM188.178 47.8366C187.163 47.8366 185.749 47.3296 185.749 46.075C185.749 44.4739 187.512 43.8602 189.031 43.8602C190.393 43.8602 191.033 44.1536 191.86 44.5543C191.619 46.4755 189.966 47.8366 188.178 47.8366ZM188.552 36.468C186.311 36.468 183.988 37.4557 183.028 39.6439L185.776 40.7911C186.362 39.6439 187.457 39.27 188.605 39.27C190.205 39.27 191.834 40.2312 191.86 41.9391V42.1523C191.299 41.832 190.1 41.3518 188.632 41.3518C185.669 41.3518 182.652 42.9793 182.652 46.0216C182.652 48.7971 185.083 50.5852 187.803 50.5852C189.886 50.5852 191.033 49.6513 191.754 48.5573H191.86V50.1582H194.849V42.2054C194.849 38.5232 192.101 36.468 188.552 36.468ZM169.417 39.4468H165.014V32.3368H169.417C171.732 32.3368 173.046 34.2532 173.046 35.8916C173.046 37.4991 171.732 39.4468 169.417 39.4468ZM169.337 29.4498H161.918V50.1925H165.014V42.3337H169.337C172.768 42.3337 176.142 39.8493 176.142 35.8916C176.142 31.9343 172.768 29.4498 169.337 29.4498ZM128.883 47.8404C126.744 47.8404 124.953 46.0495 124.953 43.5898C124.953 41.1043 126.744 39.2862 128.883 39.2862C130.995 39.2862 132.652 41.1043 132.652 43.5898C132.652 46.0495 130.995 47.8404 128.883 47.8404ZM132.438 38.0832H132.331C131.636 37.2548 130.299 36.5062 128.615 36.5062C125.087 36.5062 121.853 39.607 121.853 43.5898C121.853 47.5462 125.087 50.6203 128.615 50.6203C130.299 50.6203 131.636 49.8716 132.331 49.0168H132.438V50.0323C132.438 52.7327 130.995 54.1761 128.669 54.1761C126.771 54.1761 125.595 52.8123 125.113 51.6631L122.414 52.7857C123.189 54.657 125.248 56.956 128.669 56.956C132.305 56.956 135.379 54.817 135.379 49.6046V36.9341H132.438V38.0832ZM137.517 50.1925H140.617V29.4491H137.517V50.1925ZM145.188 43.3494C145.109 40.6225 147.301 39.2329 148.877 39.2329C150.108 39.2329 151.15 39.8473 151.497 40.7303L145.188 43.3494ZM154.812 40.9972C154.225 39.4196 152.433 36.5062 148.771 36.5062C145.135 36.5062 142.115 39.3666 142.115 43.5632C142.115 47.5196 145.109 50.6203 149.118 50.6203C152.354 50.6203 154.225 48.6421 155 47.4929L152.594 45.8888C151.792 47.0652 150.696 47.8404 149.118 47.8404C147.542 47.8404 146.419 47.1184 145.697 45.702L155.133 41.7989L154.812 40.9972ZM79.6343 38.6716V41.6654H86.7981C86.5843 43.3494 86.0229 44.5789 85.1673 45.4345C84.1252 46.4773 82.4945 47.6264 79.6343 47.6264C75.2234 47.6264 71.7754 44.0713 71.7754 39.6607C71.7754 35.25 75.2234 31.6944 79.6343 31.6944C82.0134 31.6944 83.7505 32.6302 85.0338 33.8332L87.1455 31.7216C85.3547 30.0104 82.9754 28.7007 79.6343 28.7007C73.5927 28.7007 68.5139 33.6193 68.5139 39.6607C68.5139 45.702 73.5927 50.6203 79.6343 50.6203C82.8957 50.6203 85.3547 49.5516 87.2791 47.5462C89.2573 45.568 89.8723 42.788 89.8723 40.5429C89.8723 39.8473 89.8191 39.2064 89.7116 38.6716H79.6343ZM98.017 47.8404C95.878 47.8404 94.0334 46.0761 94.0334 43.5632C94.0334 41.0238 95.878 39.2862 98.017 39.2862C100.155 39.2862 102 41.0238 102 43.5632C102 46.0761 100.155 47.8404 98.017 47.8404ZM98.017 36.5062C94.1138 36.5062 90.9327 39.4734 90.9327 43.5632C90.9327 47.6264 94.1138 50.6203 98.017 50.6203C101.919 50.6203 105.101 47.6264 105.101 43.5632C105.101 39.4734 101.919 36.5062 98.017 36.5062ZM113.47 47.8404C111.332 47.8404 109.487 46.0761 109.487 43.5632C109.487 41.0238 111.332 39.2862 113.47 39.2862C115.608 39.2862 117.453 41.0238 117.453 43.5632C117.453 46.0761 115.608 47.8404 113.47 47.8404ZM113.47 36.5062C109.567 36.5062 106.386 39.4734 106.386 43.5632C106.386 47.6264 109.567 50.6203 113.47 50.6203C117.373 50.6203 120.554 47.6264 120.554 43.5632C120.554 39.4734 117.373 36.5062 113.47 36.5062Z" fill="white"/>
<mask id="mask1_17_1845" style="mask-type:alpha" maskUnits="userSpaceOnUse" x="16" y="13" width="23" height="42">
<path d="M17.8532 54.1571L17.7298 54.0391C17.247 53.5283 16.9619 52.735 16.9619 51.7077V51.9495V15.2534V15.4964C16.9619 14.3841 17.2943 13.5461 17.8512 13.0437L38.4091 33.6011L17.8532 54.1571Z" fill="white"/>
</mask>
<g mask="url(#mask1_17_1845)">
<path d="M17.8532 54.1571L17.7298 54.0391C17.247 53.5283 16.9619 52.735 16.9619 51.7077V51.9495V15.2534V15.4964C16.9619 14.3841 17.2943 13.5461 17.8512 13.0437L38.4091 33.6011L17.8532 54.1571Z" fill="url(#paint1_linear_17_1845)"/>
</g>
<mask id="mask2_17_1845" style="mask-type:alpha" maskUnits="userSpaceOnUse" x="38" y="26" width="18" height="15">
<path d="M45.2626 40.4558L38.4091 33.6011L45.2619 26.7476L53.5355 31.4479C54.5861 32.0449 55.176 32.8143 55.2746 33.6004C55.2746 33.6011 55.2746 33.6025 55.2746 33.6036C55.176 34.3879 54.5861 35.1581 53.5355 35.7549L45.2626 40.4558Z" fill="white"/>
</mask>
<g mask="url(#mask2_17_1845)">
<path d="M45.2626 40.4558L38.4091 33.6011L45.2619 26.7476L53.5355 31.4479C54.5861 32.0449 55.176 32.8143 55.2746 33.6004C55.2746 33.6011 55.2746 33.6025 55.2746 33.6036C55.176 34.3879 54.5861 35.1581 53.5355 35.7549L45.2626 40.4558Z" fill="url(#paint2_linear_17_1845)"/>
</g>
<mask id="mask3_17_1845" style="mask-type:alpha" maskUnits="userSpaceOnUse" x="17" y="33" width="29" height="22">
<path d="M19.3191 54.697C18.7448 54.6977 18.2438 54.5104 17.853 54.1577L38.4089 33.6011L45.2625 40.4559L21.178 54.1403C20.5116 54.5181 19.8804 54.697 19.3191 54.697ZM17.849 54.396C17.8121 54.3625 17.776 54.3271 17.7406 54.2903L17.849 54.396Z" fill="white"/>
</mask>
<g mask="url(#mask3_17_1845)">
<path d="M19.3191 54.697C18.7448 54.6977 18.2438 54.5104 17.853 54.1577L38.4089 33.6011L45.2625 40.4559L21.178 54.1403C20.5116 54.5181 19.8804 54.697 19.3191 54.697ZM17.849 54.396C17.8121 54.3625 17.776 54.3271 17.7406 54.2903L17.849 54.396Z" fill="url(#paint3_linear_17_1845)"/>
</g>
<mask id="mask4_17_1845" style="mask-type:alpha" maskUnits="userSpaceOnUse" x="17" y="12" width="29" height="22">
<path d="M38.4092 33.6013L17.8513 13.0438C18.2421 12.6919 18.7424 12.5052 19.3161 12.5052C19.8788 12.5052 20.5106 12.6848 21.1783 13.0632L45.2621 26.7476L38.4092 33.6013ZM21.1783 12.821C20.5106 12.4423 19.8788 12.2628 19.3161 12.2628C19.3135 12.2628 19.3117 12.2628 19.309 12.2628C19.3122 12.2628 19.3147 12.2628 19.3188 12.2628C19.8801 12.2628 20.5112 12.4423 21.1783 12.821Z" fill="white"/>
</mask>
<g mask="url(#mask4_17_1845)">
<path d="M38.4092 33.6013L17.8513 13.0438C18.2421 12.6919 18.7424 12.5052 19.3161 12.5052C19.8788 12.5052 20.5106 12.6848 21.1783 13.0632L45.2621 26.7476L38.4092 33.6013ZM21.1783 12.821C20.5106 12.4423 19.8788 12.2628 19.3161 12.2628C19.3135 12.2628 19.3117 12.2628 19.309 12.2628C19.3122 12.2628 19.3147 12.2628 19.3188 12.2628C19.8801 12.2628 20.5112 12.4423 21.1783 12.821Z" fill="url(#paint4_linear_17_1845)"/>
</g>
<mask id="mask5_17_1845" style="mask-type:alpha" maskUnits="userSpaceOnUse" x="17" y="40" width="29" height="15">
<path d="M19.3204 54.9401C18.7462 54.9401 18.2444 54.7527 17.8537 54.4002C17.8524 54.399 17.8497 54.3977 17.8479 54.3963L17.7408 54.292C17.7375 54.2886 17.7344 54.2849 17.7305 54.2811L17.8537 54.1577C18.2444 54.5104 18.7455 54.6977 19.3197 54.697C19.881 54.697 20.5123 54.5181 21.1787 54.1404L45.2631 40.4559L45.4174 40.6102L45.2612 40.699L21.1787 54.3827C20.5713 54.7268 19.9938 54.9065 19.4721 54.9363C19.4208 54.9388 19.3703 54.9401 19.3204 54.9401Z" fill="white"/>
</mask>
<g mask="url(#mask5_17_1845)">
<path d="M19.3204 54.9401C18.7462 54.9401 18.2444 54.7527 17.8537 54.4002C17.8524 54.399 17.8497 54.3977 17.8479 54.3963L17.7408 54.292C17.7375 54.2886 17.7344 54.2849 17.7305 54.2811L17.8537 54.1577C18.2444 54.5104 18.7455 54.6977 19.3197 54.697C19.881 54.697 20.5123 54.5181 21.1787 54.1404L45.2631 40.4559L45.4174 40.6102L45.2612 40.699L21.1787 54.3827C20.5713 54.7268 19.9938 54.9065 19.4721 54.9363C19.4208 54.9388 19.3703 54.9401 19.3204 54.9401Z" fill="url(#paint5_linear_17_1845)"/>
</g>
<mask id="mask6_17_1845" style="mask-type:alpha" maskUnits="userSpaceOnUse" x="16" y="51" width="2" height="4">
<path d="M17.7298 54.2811C17.247 53.7702 16.9619 52.9775 16.9619 51.9497V51.7079C16.9619 52.7352 17.247 53.5284 17.7298 54.0393L17.8532 54.1573L17.7298 54.2811Z" fill="white"/>
</mask>
<g mask="url(#mask6_17_1845)">
<path d="M17.7298 54.2811C17.247 53.7702 16.9619 52.9775 16.9619 51.9497V51.7079C16.9619 52.7352 17.247 53.5284 17.7298 54.0393L17.8532 54.1573L17.7298 54.2811Z" fill="url(#paint6_linear_17_1845)"/>
</g>
<mask id="mask7_17_1845" style="mask-type:alpha" maskUnits="userSpaceOnUse" x="45" y="33" width="11" height="8">
<path d="M45.4171 40.6102L45.2628 40.4559L53.5357 35.7549C54.5863 35.1581 55.1762 34.3881 55.2748 33.6036C55.2748 33.8916 55.2105 34.1793 55.083 34.4593C54.8255 35.0238 54.3098 35.5573 53.5357 35.9974L45.4171 40.6102Z" fill="white"/>
</mask>
<g mask="url(#mask7_17_1845)">
<path d="M45.4171 40.6102L45.2628 40.4559L53.5357 35.7549C54.5863 35.1581 55.1762 34.3881 55.2748 33.6036C55.2748 33.8916 55.2105 34.1793 55.083 34.4593C54.8255 35.0238 54.3098 35.5573 53.5357 35.9974L45.4171 40.6102Z" fill="url(#paint7_linear_17_1845)"/>
</g>
<path d="M55.2749 33.6013C55.2742 32.7333 54.6942 31.8649 53.5358 31.2063C54.6954 31.8649 55.2761 32.7333 55.2749 33.6013Z" fill="#404040"/>
<mask id="mask8_17_1845" style="mask-type:alpha" maskUnits="userSpaceOnUse" x="45" y="26" width="11" height="8">
<path d="M55.2747 33.6005C55.1762 32.8143 54.5862 32.045 53.5357 31.4479L45.2621 26.7475L45.4164 26.5933L53.5357 31.2061C54.6939 31.8647 55.274 32.7325 55.2747 33.6005Z" fill="white"/>
</mask>
<g mask="url(#mask8_17_1845)">
<path d="M55.2747 33.6005C55.1762 32.8143 54.5862 32.045 53.5357 31.4479L45.2621 26.7475L45.4164 26.5933L53.5357 31.2061C54.6939 31.8647 55.274 32.7325 55.2747 33.6005Z" fill="url(#paint8_linear_17_1845)"/>
</g>
<path d="M16.9695 14.9577C17.0655 13.2531 17.9925 12.2685 19.3036 12.2627C18.735 12.266 18.24 12.4527 17.8523 12.8019L17.8477 12.8059C17.807 12.8428 17.768 12.8818 17.7297 12.9219C17.2941 13.3827 17.0195 14.0729 16.9695 14.9577Z" fill="#404040"/>
<mask id="mask9_17_1845" style="mask-type:alpha" maskUnits="userSpaceOnUse" x="16" y="12" width="2" height="4">
<path d="M16.9619 15.4965V15.2541C16.9619 15.2507 16.9619 15.248 16.9619 15.245V15.243C16.9619 15.1516 16.9644 15.0621 16.9691 14.9753V14.9714L16.9696 14.9675V14.9598V14.9577C17.0195 14.073 17.2943 13.3828 17.7298 12.922L17.8512 13.0438C17.2943 13.5462 16.9619 14.3841 16.9619 15.4965Z" fill="white"/>
</mask>
<g mask="url(#mask9_17_1845)">
<path d="M16.9619 15.4965V15.2541C16.9619 15.2507 16.9619 15.248 16.9619 15.245V15.243C16.9619 15.1516 16.9644 15.0621 16.9691 14.9753V14.9714L16.9696 14.9675V14.9598V14.9577C17.0195 14.073 17.2943 13.3828 17.7298 12.922L17.8512 13.0438C17.2943 13.5462 16.9619 14.3841 16.9619 15.4965Z" fill="url(#paint9_linear_17_1845)"/>
</g>
<mask id="mask10_17_1845" style="mask-type:alpha" maskUnits="userSpaceOnUse" x="17" y="12" width="29" height="15">
<path d="M45.2624 26.7477L21.1787 13.0632C20.511 12.6848 19.8792 12.5052 19.3165 12.5052C18.7429 12.5052 18.2424 12.6919 17.8517 13.0438L17.7305 12.922C17.7687 12.8819 17.8076 12.8429 17.8483 12.8061C17.8497 12.8047 17.8517 12.8034 17.853 12.8021C18.2406 12.4528 18.7358 12.2661 19.3042 12.2628C19.3055 12.2628 19.3074 12.2628 19.3094 12.2628C19.312 12.2628 19.3139 12.2628 19.3165 12.2628C19.8792 12.2628 20.511 12.4423 21.1787 12.821L45.4174 26.5929L45.2624 26.7477Z" fill="white"/>
</mask>
<g mask="url(#mask10_17_1845)">
<path d="M45.2624 26.7477L21.1787 13.0632C20.511 12.6848 19.8792 12.5052 19.3165 12.5052C18.7429 12.5052 18.2424 12.6919 17.8517 13.0438L17.7305 12.922C17.7687 12.8819 17.8076 12.8429 17.8483 12.8061C17.8497 12.8047 17.8517 12.8034 17.853 12.8021C18.2406 12.4528 18.7358 12.2661 19.3042 12.2628C19.3055 12.2628 19.3074 12.2628 19.3094 12.2628C19.312 12.2628 19.3139 12.2628 19.3165 12.2628C19.8792 12.2628 20.511 12.4423 21.1787 12.821L45.4174 26.5929L45.2624 26.7477Z" fill="url(#paint10_linear_17_1845)"/>
</g>
</g>
</g>
<defs>
<linearGradient id="paint0_linear_17_1845" x1="112.421" y1="0.414673" x2="112.421" y2="66.7838" gradientUnits="userSpaceOnUse">
<stop stop-color="#FFE02E"/>
<stop offset="0.4" stop-color="#FA8AE5"/>
<stop offset="0.56" stop-color="#BDA9EC"/>
<stop offset="0.77" stop-color="#70D2F6"/>
<stop offset="0.92" stop-color="#40EBFC"/>
<stop offset="1" stop-color="#0FF2F2"/>
</linearGradient>
<linearGradient id="paint1_linear_17_1845" x1="30.1076" y1="14.8663" x2="12.3955" y2="32.5784" gradientUnits="userSpaceOnUse">
<stop stop-color="#00A0FF"/>
<stop offset="0.00657445" stop-color="#00A1FF"/>
<stop offset="0.2601" stop-color="#00BEFF"/>
<stop offset="0.5122" stop-color="#00D2FF"/>
<stop offset="0.7604" stop-color="#00DFFF"/>
<stop offset="1" stop-color="#00E3FF"/>
</linearGradient>
<linearGradient id="paint2_linear_17_1845" x1="56.5546" y1="33.6021" x2="16.4055" y2="33.6021" gradientUnits="userSpaceOnUse">
<stop stop-color="#FFE000"/>
<stop offset="0.4087" stop-color="#FFBD00"/>
<stop offset="0.7754" stop-color="#FFA500"/>
<stop offset="1" stop-color="#FF9C00"/>
</linearGradient>
<linearGradient id="paint3_linear_17_1845" x1="41.6091" y1="40.1461" x2="11.3782" y2="70.3774" gradientUnits="userSpaceOnUse">
<stop stop-color="#FF3A44"/>
<stop offset="1" stop-color="#C31162"/>
</linearGradient>
<linearGradient id="paint4_linear_17_1845" x1="12.5229" y1="9.61447" x2="26.006" y2="23.0976" gradientUnits="userSpaceOnUse">
<stop stop-color="#32A071"/>
<stop offset="0.0685" stop-color="#2DA771"/>
<stop offset="0.4762" stop-color="#15CF74"/>
<stop offset="0.8009" stop-color="#06E775"/>
<stop offset="1" stop-color="#00F076"/>
</linearGradient>
<linearGradient id="paint5_linear_17_1845" x1="41.6096" y1="44.8823" x2="17.5615" y2="68.9305" gradientUnits="userSpaceOnUse">
<stop stop-color="#CC2E36"/>
<stop offset="1" stop-color="#9C0E4E"/>
</linearGradient>
<linearGradient id="paint6_linear_17_1845" x1="19.708" y1="14.8664" x2="4.11465" y2="30.4598" gradientUnits="userSpaceOnUse">
<stop stop-color="#008DE0"/>
<stop offset="0.00657445" stop-color="#008DE0"/>
<stop offset="0.2601" stop-color="#00A7E0"/>
<stop offset="0.5122" stop-color="#00B8E0"/>
<stop offset="0.7604" stop-color="#00C4E0"/>
<stop offset="1" stop-color="#00C7E0"/>
</linearGradient>
<linearGradient id="paint7_linear_17_1845" x1="56.5548" y1="33.6022" x2="16.4057" y2="33.6022" gradientUnits="userSpaceOnUse">
<stop stop-color="#E0C500"/>
<stop offset="0.4087" stop-color="#E0A600"/>
<stop offset="0.7754" stop-color="#E09100"/>
<stop offset="1" stop-color="#E08900"/>
</linearGradient>
<linearGradient id="paint8_linear_17_1845" x1="56.5548" y1="33.6022" x2="16.4057" y2="33.6022" gradientUnits="userSpaceOnUse">
<stop stop-color="#FFE840"/>
<stop offset="0.4087" stop-color="#FFCE40"/>
<stop offset="0.7754" stop-color="#FFBC40"/>
<stop offset="1" stop-color="#FFB540"/>
</linearGradient>
<linearGradient id="paint9_linear_17_1845" x1="25.5613" y1="14.8945" x2="7.86342" y2="19.6376" gradientUnits="userSpaceOnUse">
<stop stop-color="#40B8FF"/>
<stop offset="0.00657445" stop-color="#40B9FF"/>
<stop offset="0.2601" stop-color="#40CEFF"/>
<stop offset="0.5122" stop-color="#40DDFF"/>
<stop offset="0.7604" stop-color="#40E7FF"/>
<stop offset="1" stop-color="#40EAFF"/>
</linearGradient>
<linearGradient id="paint10_linear_17_1845" x1="12.5233" y1="14.3602" x2="23.262" y2="25.0989" gradientUnits="userSpaceOnUse">
<stop stop-color="#65B895"/>
<stop offset="0.0685" stop-color="#62BD95"/>
<stop offset="0.4762" stop-color="#50DB97"/>
<stop offset="0.8009" stop-color="#44ED98"/>
<stop offset="1" stop-color="#40F498"/>
</linearGradient>
<clipPath id="clip0_17_1845">
<rect width="225.4" height="67.2" fill="white"/>
</clipPath>
</defs>
</svg>
