<svg width="24" height="25" viewBox="0 0 24 25" fill="none" xmlns="http://www.w3.org/2000/svg">
<path d="M22.4904 5.4274C17.8767 5.43836 14.6548 3.99178 12.1781 1.03288V1V1.02192L12.1452 1V1.03288C9.66849 3.98082 6.44657 5.43836 1.83287 5.4274C1.60274 17.3178 5.81096 22.0411 12.1452 23.3342H12.1562H12.1671C18.5014 22.0301 22.7205 17.3068 22.4795 5.41644L22.4904 5.4274Z" stroke="white" stroke-width="2" stroke-linecap="round" stroke-linejoin="round"/>
<path d="M11.9209 12.4375C13.3762 12.4375 14.556 11.2577 14.556 9.80235C14.556 8.34702 13.3762 7.16724 11.9209 7.16724C10.4656 7.16724 9.2858 8.34702 9.2858 9.80235C9.2858 11.2577 10.4656 12.4375 11.9209 12.4375Z" stroke="white" stroke-width="2" stroke-linecap="round" stroke-linejoin="round"/>
<path d="M15.8423 17.3313C13.6401 15.5885 10.1914 15.5885 7.99966 17.3313" stroke="white" stroke-width="2" stroke-linecap="round" stroke-linejoin="round"/>
</svg>
