<svg width="216" height="38" viewBox="0 0 216 38" fill="none" xmlns="http://www.w3.org/2000/svg">
<path d="M0 0H206C210.971 0 215 4.02944 215 9V15C215 19.9706 210.971 24 206 24H9C4.02944 24 0 19.9706 0 15V0Z" fill="#0FF2F2"/>
<path d="M6.984 16.5V8.172H8.112V16.5H6.984ZM12.36 16.5V8.172H13.488V16.5H12.36ZM7.752 12.708V11.676H12.636V12.708H7.752ZM17.3137 16.62C16.7937 16.62 16.3217 16.492 15.8977 16.236C15.4737 15.972 15.1377 15.616 14.8897 15.168C14.6497 14.72 14.5297 14.216 14.5297 13.656C14.5297 13.096 14.6497 12.592 14.8897 12.144C15.1377 11.696 15.4697 11.34 15.8857 11.076C16.3097 10.812 16.7857 10.68 17.3137 10.68C17.7457 10.68 18.1297 10.772 18.4657 10.956C18.8097 11.132 19.0857 11.38 19.2937 11.7C19.5017 12.012 19.6177 12.376 19.6417 12.792V14.508C19.6177 14.916 19.5017 15.28 19.2937 15.6C19.0937 15.92 18.8217 16.172 18.4777 16.356C18.1417 16.532 17.7537 16.62 17.3137 16.62ZM17.4937 15.6C18.0297 15.6 18.4617 15.42 18.7897 15.06C19.1177 14.692 19.2817 14.224 19.2817 13.656C19.2817 13.264 19.2057 12.924 19.0537 12.636C18.9097 12.34 18.7017 12.112 18.4297 11.952C18.1577 11.784 17.8417 11.7 17.4817 11.7C17.1217 11.7 16.8017 11.784 16.5217 11.952C16.2497 12.12 16.0337 12.352 15.8737 12.648C15.7217 12.936 15.6457 13.268 15.6457 13.644C15.6457 14.028 15.7217 14.368 15.8737 14.664C16.0337 14.952 16.2537 15.18 16.5337 15.348C16.8137 15.516 17.1337 15.6 17.4937 15.6ZM19.2097 16.5V14.964L19.4137 13.572L19.2097 12.192V10.8H20.3017V16.5H19.2097ZM25.531 16.5V13.176C25.531 12.744 25.395 12.388 25.123 12.108C24.851 11.828 24.499 11.688 24.067 11.688C23.779 11.688 23.523 11.752 23.299 11.88C23.075 12.008 22.899 12.184 22.771 12.408C22.643 12.632 22.579 12.888 22.579 13.176L22.135 12.924C22.135 12.492 22.231 12.108 22.423 11.772C22.615 11.436 22.883 11.172 23.227 10.98C23.571 10.78 23.959 10.68 24.391 10.68C24.823 10.68 25.203 10.776 25.531 10.968C25.867 11.16 26.131 11.428 26.323 11.772C26.515 12.116 26.611 12.512 26.611 12.96V16.5H25.531ZM21.499 16.5V7.932H22.579V16.5H21.499ZM30.1223 16.62C29.6023 16.62 29.1303 16.492 28.7063 16.236C28.2823 15.972 27.9463 15.616 27.6982 15.168C27.4583 14.72 27.3383 14.216 27.3383 13.656C27.3383 13.096 27.4583 12.592 27.6982 12.144C27.9463 11.696 28.2783 11.34 28.6943 11.076C29.1183 10.812 29.5943 10.68 30.1223 10.68C30.5543 10.68 30.9383 10.772 31.2743 10.956C31.6183 11.132 31.8943 11.38 32.1023 11.7C32.3103 12.012 32.4263 12.376 32.4503 12.792V14.508C32.4263 14.916 32.3103 15.28 32.1023 15.6C31.9023 15.92 31.6303 16.172 31.2863 16.356C30.9503 16.532 30.5623 16.62 30.1223 16.62ZM30.3023 15.6C30.8383 15.6 31.2703 15.42 31.5983 15.06C31.9263 14.692 32.0903 14.224 32.0903 13.656C32.0903 13.264 32.0143 12.924 31.8623 12.636C31.7183 12.34 31.5103 12.112 31.2383 11.952C30.9663 11.784 30.6503 11.7 30.2903 11.7C29.9303 11.7 29.6103 11.784 29.3303 11.952C29.0583 12.12 28.8423 12.352 28.6823 12.648C28.5303 12.936 28.4543 13.268 28.4543 13.644C28.4543 14.028 28.5303 14.368 28.6823 14.664C28.8423 14.952 29.0623 15.18 29.3423 15.348C29.6223 15.516 29.9423 15.6 30.3023 15.6ZM32.0183 16.5V14.964L32.2223 13.572L32.0183 12.192V10.8H33.1103V16.5H32.0183ZM35.6367 17.34H47.6367V5.34H35.6367V17.34ZM52.4908 16.5L49.7668 8.172H50.8948L53.0548 14.964H52.7308L54.8548 8.172H55.6708L57.7948 14.964H57.4828L59.6428 8.172H60.7588L58.0468 16.5H57.2428L55.1068 9.72H55.4188L53.2948 16.5H52.4908ZM63.1223 16.62C62.6023 16.62 62.1303 16.492 61.7063 16.236C61.2823 15.972 60.9463 15.616 60.6982 15.168C60.4583 14.72 60.3383 14.216 60.3383 13.656C60.3383 13.096 60.4583 12.592 60.6982 12.144C60.9463 11.696 61.2783 11.34 61.6943 11.076C62.1183 10.812 62.5943 10.68 63.1223 10.68C63.5543 10.68 63.9383 10.772 64.2743 10.956C64.6183 11.132 64.8943 11.38 65.1023 11.7C65.3103 12.012 65.4263 12.376 65.4503 12.792V14.508C65.4263 14.916 65.3103 15.28 65.1023 15.6C64.9023 15.92 64.6303 16.172 64.2863 16.356C63.9503 16.532 63.5623 16.62 63.1223 16.62ZM63.3023 15.6C63.8383 15.6 64.2703 15.42 64.5983 15.06C64.9263 14.692 65.0903 14.224 65.0903 13.656C65.0903 13.264 65.0143 12.924 64.8623 12.636C64.7183 12.34 64.5103 12.112 64.2383 11.952C63.9663 11.784 63.6503 11.7 63.2903 11.7C62.9303 11.7 62.6103 11.784 62.3303 11.952C62.0583 12.12 61.8423 12.352 61.6823 12.648C61.5303 12.936 61.4543 13.268 61.4543 13.644C61.4543 14.028 61.5303 14.368 61.6823 14.664C61.8423 14.952 62.0623 15.18 62.3423 15.348C62.6223 15.516 62.9423 15.6 63.3023 15.6ZM65.0183 16.5V14.964L65.2223 13.572L65.0183 12.192V10.8H66.1103V16.5H65.0183ZM71.3396 16.5V13.176C71.3396 12.744 71.2036 12.388 70.9316 12.108C70.6596 11.828 70.3076 11.688 69.8756 11.688C69.5876 11.688 69.3316 11.752 69.1076 11.88C68.8836 12.008 68.7076 12.184 68.5796 12.408C68.4516 12.632 68.3876 12.888 68.3876 13.176L67.9436 12.924C67.9436 12.492 68.0396 12.108 68.2316 11.772C68.4236 11.436 68.6916 11.172 69.0356 10.98C69.3796 10.78 69.7676 10.68 70.1996 10.68C70.6316 10.68 71.0116 10.788 71.3396 11.004C71.6756 11.22 71.9396 11.504 72.1316 11.856C72.3236 12.2 72.4196 12.568 72.4196 12.96V16.5H71.3396ZM67.3076 16.5V10.8H68.3876V16.5H67.3076ZM74.3125 16.5V8.412H75.3925V16.5H74.3125ZM72.9085 11.784V10.8H76.7965V11.784H72.9085ZM80.4766 16.5V8.412H81.5566V16.5H80.4766ZM79.0726 11.784V10.8H82.9606V11.784H79.0726ZM86.0718 16.62C85.5118 16.62 85.0078 16.488 84.5598 16.224C84.1118 15.96 83.7558 15.604 83.4918 15.156C83.2278 14.7 83.0958 14.192 83.0958 13.632C83.0958 13.08 83.2278 12.584 83.4918 12.144C83.7558 11.696 84.1118 11.34 84.5598 11.076C85.0078 10.812 85.5118 10.68 86.0718 10.68C86.6238 10.68 87.1238 10.812 87.5718 11.076C88.0278 11.332 88.3878 11.684 88.6518 12.132C88.9158 12.58 89.0478 13.08 89.0478 13.632C89.0478 14.192 88.9158 14.7 88.6518 15.156C88.3878 15.604 88.0278 15.96 87.5718 16.224C87.1238 16.488 86.6238 16.62 86.0718 16.62ZM86.0718 15.576C86.4318 15.576 86.7518 15.492 87.0318 15.324C87.3118 15.156 87.5318 14.928 87.6918 14.64C87.8518 14.344 87.9318 14.008 87.9318 13.632C87.9318 13.264 87.8478 12.936 87.6798 12.648C87.5198 12.36 87.2998 12.136 87.0198 11.976C86.7478 11.808 86.4318 11.724 86.0718 11.724C85.7118 11.724 85.3918 11.808 85.1118 11.976C84.8318 12.136 84.6118 12.36 84.4518 12.648C84.2918 12.936 84.2118 13.264 84.2118 13.632C84.2118 14.008 84.2918 14.344 84.4518 14.64C84.6118 14.928 84.8318 15.156 85.1118 15.324C85.3918 15.492 85.7118 15.576 86.0718 15.576ZM94.3748 19.008C93.7908 19.008 93.2708 18.9 92.8148 18.684C92.3668 18.468 92.0068 18.164 91.7348 17.772L92.4308 17.064C92.6628 17.36 92.9388 17.584 93.2588 17.736C93.5788 17.896 93.9588 17.976 94.3988 17.976C94.9828 17.976 95.4428 17.82 95.7788 17.508C96.1228 17.204 96.2948 16.792 96.2948 16.272V14.856L96.4868 13.572L96.2948 12.3V10.8H97.3748V16.272C97.3748 16.816 97.2468 17.292 96.9908 17.7C96.7428 18.108 96.3908 18.428 95.9348 18.66C95.4868 18.892 94.9668 19.008 94.3748 19.008ZM94.3748 16.404C93.8548 16.404 93.3868 16.28 92.9708 16.032C92.5628 15.784 92.2388 15.444 91.9988 15.012C91.7588 14.572 91.6388 14.08 91.6388 13.536C91.6388 12.992 91.7588 12.508 91.9988 12.084C92.2388 11.652 92.5628 11.312 92.9708 11.064C93.3868 10.808 93.8548 10.68 94.3748 10.68C94.8228 10.68 95.2188 10.768 95.5628 10.944C95.9068 11.12 96.1788 11.368 96.3788 11.688C96.5868 12 96.6988 12.368 96.7148 12.792V14.304C96.6908 14.72 96.5748 15.088 96.3668 15.408C96.1668 15.72 95.8948 15.964 95.5508 16.14C95.2068 16.316 94.8148 16.404 94.3748 16.404ZM94.5908 15.384C94.9428 15.384 95.2508 15.308 95.5148 15.156C95.7868 15.004 95.9948 14.792 96.1388 14.52C96.2828 14.24 96.3548 13.916 96.3548 13.548C96.3548 13.18 96.2788 12.86 96.1268 12.588C95.9828 12.308 95.7788 12.092 95.5148 11.94C95.2508 11.78 94.9388 11.7 94.5788 11.7C94.2188 11.7 93.9028 11.78 93.6308 11.94C93.3588 12.092 93.1428 12.308 92.9827 12.588C92.8308 12.86 92.7548 13.176 92.7548 13.536C92.7548 13.896 92.8308 14.216 92.9827 14.496C93.1428 14.776 93.3588 14.996 93.6308 15.156C93.9108 15.308 94.2308 15.384 94.5908 15.384ZM98.585 16.5V10.8H99.665V16.5H98.585ZM99.665 13.248L99.257 13.068C99.257 12.34 99.425 11.76 99.761 11.328C100.097 10.896 100.581 10.68 101.213 10.68C101.501 10.68 101.761 10.732 101.993 10.836C102.225 10.932 102.441 11.096 102.641 11.328L101.933 12.06C101.813 11.932 101.681 11.84 101.537 11.784C101.393 11.728 101.225 11.7 101.033 11.7C100.633 11.7 100.305 11.828 100.049 12.084C99.793 12.34 99.665 12.728 99.665 13.248ZM105.263 16.62C104.743 16.62 104.271 16.492 103.847 16.236C103.423 15.972 103.087 15.616 102.839 15.168C102.599 14.72 102.479 14.216 102.479 13.656C102.479 13.096 102.599 12.592 102.839 12.144C103.087 11.696 103.419 11.34 103.835 11.076C104.259 10.812 104.735 10.68 105.263 10.68C105.695 10.68 106.079 10.772 106.415 10.956C106.759 11.132 107.035 11.38 107.243 11.7C107.451 12.012 107.567 12.376 107.591 12.792V14.508C107.567 14.916 107.451 15.28 107.243 15.6C107.043 15.92 106.771 16.172 106.427 16.356C106.091 16.532 105.703 16.62 105.263 16.62ZM105.443 15.6C105.979 15.6 106.411 15.42 106.739 15.06C107.067 14.692 107.231 14.224 107.231 13.656C107.231 13.264 107.155 12.924 107.003 12.636C106.859 12.34 106.651 12.112 106.379 11.952C106.107 11.784 105.791 11.7 105.431 11.7C105.071 11.7 104.751 11.784 104.471 11.952C104.199 12.12 103.983 12.352 103.823 12.648C103.671 12.936 103.595 13.268 103.595 13.644C103.595 14.028 103.671 14.368 103.823 14.664C103.983 14.952 104.203 15.18 104.483 15.348C104.763 15.516 105.083 15.6 105.443 15.6ZM107.159 16.5V14.964L107.363 13.572L107.159 12.192V10.8H108.251V16.5H107.159ZM112.448 16.62C112.016 16.62 111.624 16.532 111.272 16.356C110.928 16.172 110.652 15.92 110.444 15.6C110.236 15.28 110.12 14.916 110.096 14.508V12.792C110.12 12.376 110.236 12.012 110.444 11.7C110.66 11.38 110.94 11.132 111.284 10.956C111.636 10.772 112.024 10.68 112.448 10.68C112.968 10.68 113.436 10.812 113.852 11.076C114.276 11.34 114.608 11.696 114.848 12.144C115.088 12.592 115.208 13.096 115.208 13.656C115.208 14.216 115.088 14.72 114.848 15.168C114.608 15.616 114.276 15.972 113.852 16.236C113.436 16.492 112.968 16.62 112.448 16.62ZM109.448 16.5V7.932H110.528V12.192L110.324 13.572L110.528 14.964V16.5H109.448ZM112.268 15.6C112.628 15.6 112.944 15.516 113.216 15.348C113.488 15.18 113.704 14.952 113.864 14.664C114.024 14.368 114.104 14.028 114.104 13.644C114.104 13.268 114.024 12.932 113.864 12.636C113.704 12.34 113.488 12.112 113.216 11.952C112.944 11.784 112.632 11.7 112.28 11.7C111.92 11.7 111.604 11.784 111.332 11.952C111.06 12.112 110.848 12.34 110.696 12.636C110.544 12.932 110.468 13.272 110.468 13.656C110.468 14.032 110.54 14.368 110.684 14.664C110.836 14.952 111.048 15.18 111.32 15.348C111.6 15.516 111.916 15.6 112.268 15.6ZM120.603 16.62C120.083 16.62 119.611 16.492 119.187 16.236C118.763 15.972 118.427 15.616 118.179 15.168C117.939 14.72 117.819 14.216 117.819 13.656C117.819 13.096 117.939 12.592 118.179 12.144C118.427 11.696 118.759 11.34 119.175 11.076C119.599 10.812 120.075 10.68 120.603 10.68C121.035 10.68 121.419 10.772 121.755 10.956C122.099 11.132 122.375 11.38 122.583 11.7C122.791 12.012 122.907 12.376 122.931 12.792V14.508C122.907 14.916 122.791 15.28 122.583 15.6C122.383 15.92 122.111 16.172 121.767 16.356C121.431 16.532 121.043 16.62 120.603 16.62ZM120.783 15.6C121.319 15.6 121.751 15.42 122.079 15.06C122.407 14.692 122.571 14.224 122.571 13.656C122.571 13.264 122.495 12.924 122.343 12.636C122.199 12.34 121.991 12.112 121.719 11.952C121.447 11.784 121.131 11.7 120.771 11.7C120.411 11.7 120.091 11.784 119.811 11.952C119.539 12.12 119.323 12.352 119.163 12.648C119.011 12.936 118.935 13.268 118.935 13.644C118.935 14.028 119.011 14.368 119.163 14.664C119.323 14.952 119.543 15.18 119.823 15.348C120.103 15.516 120.423 15.6 120.783 15.6ZM122.499 16.5V14.964L122.703 13.572L122.499 12.192V10.8H123.591V16.5H122.499ZM129.321 16.62C128.793 16.62 128.321 16.492 127.905 16.236C127.489 15.972 127.157 15.616 126.909 15.168C126.669 14.72 126.549 14.216 126.549 13.656C126.549 13.096 126.669 12.592 126.909 12.144C127.157 11.696 127.489 11.34 127.905 11.076C128.321 10.812 128.793 10.68 129.321 10.68C129.745 10.68 130.129 10.772 130.473 10.956C130.817 11.132 131.093 11.38 131.301 11.7C131.517 12.012 131.637 12.376 131.661 12.792V14.508C131.637 14.916 131.521 15.28 131.313 15.6C131.105 15.92 130.829 16.172 130.485 16.356C130.141 16.532 129.753 16.62 129.321 16.62ZM129.501 15.6C129.861 15.6 130.173 15.516 130.437 15.348C130.709 15.18 130.921 14.952 131.073 14.664C131.225 14.368 131.301 14.032 131.301 13.656C131.301 13.264 131.221 12.924 131.061 12.636C130.909 12.348 130.697 12.12 130.425 11.952C130.161 11.784 129.849 11.7 129.489 11.7C129.129 11.7 128.813 11.784 128.541 11.952C128.269 12.12 128.053 12.352 127.893 12.648C127.741 12.936 127.665 13.268 127.665 13.644C127.665 14.028 127.741 14.368 127.893 14.664C128.053 14.952 128.269 15.18 128.541 15.348C128.821 15.516 129.141 15.6 129.501 15.6ZM132.321 16.5H131.229V14.964L131.433 13.572L131.229 12.192V7.932H132.321V16.5ZM133.519 16.5V10.8H134.599V16.5H133.519ZM134.599 13.248L134.191 13.068C134.191 12.34 134.359 11.76 134.695 11.328C135.031 10.896 135.515 10.68 136.147 10.68C136.435 10.68 136.695 10.732 136.927 10.836C137.159 10.932 137.375 11.096 137.575 11.328L136.867 12.06C136.747 11.932 136.615 11.84 136.471 11.784C136.327 11.728 136.159 11.7 135.967 11.7C135.567 11.7 135.239 11.828 134.983 12.084C134.727 12.34 134.599 12.728 134.599 13.248ZM137.972 16.5V10.8H139.052V16.5H137.972ZM138.512 9.66C138.312 9.66 138.148 9.596 138.02 9.468C137.892 9.332 137.828 9.164 137.828 8.964C137.828 8.772 137.892 8.612 138.02 8.484C138.148 8.348 138.312 8.28 138.512 8.28C138.712 8.28 138.876 8.348 139.004 8.484C139.132 8.612 139.196 8.772 139.196 8.964C139.196 9.164 139.132 9.332 139.004 9.468C138.876 9.596 138.712 9.66 138.512 9.66ZM144.301 16.5V13.176C144.301 12.744 144.165 12.388 143.893 12.108C143.621 11.828 143.269 11.688 142.837 11.688C142.549 11.688 142.293 11.752 142.069 11.88C141.845 12.008 141.669 12.184 141.541 12.408C141.413 12.632 141.349 12.888 141.349 13.176L140.905 12.924C140.905 12.492 141.001 12.108 141.193 11.772C141.385 11.436 141.653 11.172 141.997 10.98C142.341 10.78 142.729 10.68 143.161 10.68C143.593 10.68 143.973 10.788 144.301 11.004C144.637 11.22 144.901 11.504 145.093 11.856C145.285 12.2 145.381 12.568 145.381 12.96V16.5H144.301ZM140.269 16.5V10.8H141.349V16.5H140.269ZM150.116 16.5L147.452 13.584L150.092 10.8H151.4L148.46 13.872L148.508 13.248L151.508 16.5H150.116ZM146.468 16.5V7.932H147.548V16.5H146.468ZM156.002 16.62C155.682 16.62 155.378 16.58 155.09 16.5C154.81 16.412 154.55 16.292 154.31 16.14C154.07 15.98 153.862 15.792 153.686 15.576L154.382 14.88C154.59 15.136 154.83 15.328 155.102 15.456C155.374 15.576 155.678 15.636 156.014 15.636C156.35 15.636 156.61 15.58 156.794 15.468C156.978 15.348 157.07 15.184 157.07 14.976C157.07 14.768 156.994 14.608 156.842 14.496C156.698 14.376 156.51 14.28 156.278 14.208C156.046 14.128 155.798 14.052 155.534 13.98C155.278 13.9 155.034 13.8 154.802 13.68C154.57 13.56 154.378 13.396 154.226 13.188C154.082 12.98 154.01 12.704 154.01 12.36C154.01 12.016 154.094 11.72 154.262 11.472C154.43 11.216 154.662 11.02 154.958 10.884C155.262 10.748 155.626 10.68 156.05 10.68C156.498 10.68 156.894 10.76 157.238 10.92C157.59 11.072 157.878 11.304 158.102 11.616L157.406 12.312C157.246 12.104 157.046 11.944 156.806 11.832C156.574 11.72 156.31 11.664 156.014 11.664C155.702 11.664 155.462 11.72 155.294 11.832C155.134 11.936 155.054 12.084 155.054 12.276C155.054 12.468 155.126 12.616 155.27 12.72C155.414 12.824 155.602 12.912 155.834 12.984C156.074 13.056 156.322 13.132 156.578 13.212C156.834 13.284 157.078 13.384 157.31 13.512C157.542 13.64 157.73 13.812 157.874 14.028C158.026 14.244 158.102 14.528 158.102 14.88C158.102 15.416 157.91 15.84 157.526 16.152C157.15 16.464 156.642 16.62 156.002 16.62ZM161.541 16.62C160.981 16.62 160.477 16.488 160.029 16.224C159.581 15.96 159.225 15.604 158.961 15.156C158.697 14.7 158.565 14.192 158.565 13.632C158.565 13.08 158.697 12.584 158.961 12.144C159.225 11.696 159.581 11.34 160.029 11.076C160.477 10.812 160.981 10.68 161.541 10.68C162.093 10.68 162.593 10.812 163.041 11.076C163.497 11.332 163.857 11.684 164.121 12.132C164.385 12.58 164.517 13.08 164.517 13.632C164.517 14.192 164.385 14.7 164.121 15.156C163.857 15.604 163.497 15.96 163.041 16.224C162.593 16.488 162.093 16.62 161.541 16.62ZM161.541 15.576C161.901 15.576 162.221 15.492 162.501 15.324C162.781 15.156 163.001 14.928 163.161 14.64C163.321 14.344 163.401 14.008 163.401 13.632C163.401 13.264 163.317 12.936 163.149 12.648C162.989 12.36 162.769 12.136 162.489 11.976C162.217 11.808 161.901 11.724 161.541 11.724C161.181 11.724 160.861 11.808 160.581 11.976C160.301 12.136 160.081 12.36 159.921 12.648C159.761 12.936 159.681 13.264 159.681 13.632C159.681 14.008 159.761 14.344 159.921 14.64C160.081 14.928 160.301 15.156 160.581 15.324C160.861 15.492 161.181 15.576 161.541 15.576ZM165.358 16.5V10.8H166.438V16.5H165.358ZM169.21 16.5V13.056C169.21 12.632 169.078 12.3 168.814 12.06C168.558 11.812 168.234 11.688 167.842 11.688C167.578 11.688 167.342 11.744 167.134 11.856C166.926 11.968 166.758 12.124 166.63 12.324C166.502 12.524 166.438 12.764 166.438 13.044L165.994 12.828C165.994 12.396 166.086 12.02 166.27 11.7C166.462 11.38 166.722 11.132 167.05 10.956C167.378 10.772 167.746 10.68 168.154 10.68C168.554 10.68 168.914 10.768 169.234 10.944C169.562 11.12 169.818 11.368 170.002 11.688C170.194 12.008 170.29 12.388 170.29 12.828V16.5H169.21ZM173.062 16.5V13.056C173.062 12.632 172.93 12.3 172.666 12.06C172.41 11.812 172.09 11.688 171.706 11.688C171.442 11.688 171.202 11.744 170.986 11.856C170.778 11.968 170.61 12.124 170.482 12.324C170.354 12.524 170.29 12.764 170.29 13.044L169.678 12.828C169.702 12.388 169.818 12.012 170.026 11.7C170.242 11.38 170.518 11.132 170.854 10.956C171.19 10.772 171.558 10.68 171.958 10.68C172.374 10.68 172.746 10.768 173.074 10.944C173.402 11.12 173.662 11.368 173.854 11.688C174.054 12.008 174.154 12.392 174.154 12.84V16.5H173.062ZM177.889 16.62C177.321 16.62 176.809 16.492 176.353 16.236C175.897 15.972 175.537 15.616 175.273 15.168C175.009 14.72 174.877 14.212 174.877 13.644C174.877 13.084 175.005 12.58 175.261 12.132C175.525 11.684 175.877 11.332 176.317 11.076C176.765 10.812 177.265 10.68 177.817 10.68C178.345 10.68 178.809 10.8 179.209 11.04C179.617 11.28 179.933 11.612 180.157 12.036C180.389 12.46 180.505 12.94 180.505 13.476C180.505 13.556 180.501 13.644 180.493 13.74C180.485 13.828 180.469 13.932 180.445 14.052H175.633V13.152H179.869L179.473 13.5C179.473 13.116 179.405 12.792 179.269 12.528C179.133 12.256 178.941 12.048 178.693 11.904C178.445 11.752 178.145 11.676 177.793 11.676C177.425 11.676 177.101 11.756 176.821 11.916C176.541 12.076 176.325 12.3 176.173 12.588C176.021 12.876 175.945 13.216 175.945 13.608C175.945 14.008 176.025 14.36 176.185 14.664C176.345 14.96 176.573 15.192 176.869 15.36C177.165 15.52 177.505 15.6 177.889 15.6C178.209 15.6 178.501 15.544 178.765 15.432C179.037 15.32 179.269 15.152 179.461 14.928L180.157 15.636C179.885 15.956 179.549 16.2 179.149 16.368C178.757 16.536 178.337 16.62 177.889 16.62ZM182.008 16.5V8.412H183.088V16.5H182.008ZM180.604 11.784V10.8H184.492V11.784H180.604ZM185.187 16.5V10.8H186.267V16.5H185.187ZM185.727 9.66C185.527 9.66 185.363 9.596 185.235 9.468C185.107 9.332 185.043 9.164 185.043 8.964C185.043 8.772 185.107 8.612 185.235 8.484C185.363 8.348 185.527 8.28 185.727 8.28C185.927 8.28 186.091 8.348 186.219 8.484C186.347 8.612 186.411 8.772 186.411 8.964C186.411 9.164 186.347 9.332 186.219 9.468C186.091 9.596 185.927 9.66 185.727 9.66ZM187.483 16.5V10.8H188.563V16.5H187.483ZM191.335 16.5V13.056C191.335 12.632 191.203 12.3 190.939 12.06C190.683 11.812 190.359 11.688 189.967 11.688C189.703 11.688 189.467 11.744 189.259 11.856C189.051 11.968 188.883 12.124 188.755 12.324C188.627 12.524 188.563 12.764 188.563 13.044L188.119 12.828C188.119 12.396 188.211 12.02 188.395 11.7C188.587 11.38 188.847 11.132 189.175 10.956C189.503 10.772 189.871 10.68 190.279 10.68C190.679 10.68 191.039 10.768 191.359 10.944C191.687 11.12 191.943 11.368 192.127 11.688C192.319 12.008 192.415 12.388 192.415 12.828V16.5H191.335ZM195.187 16.5V13.056C195.187 12.632 195.055 12.3 194.791 12.06C194.535 11.812 194.215 11.688 193.831 11.688C193.567 11.688 193.327 11.744 193.111 11.856C192.903 11.968 192.735 12.124 192.607 12.324C192.479 12.524 192.415 12.764 192.415 13.044L191.803 12.828C191.827 12.388 191.943 12.012 192.151 11.7C192.367 11.38 192.643 11.132 192.979 10.956C193.315 10.772 193.683 10.68 194.083 10.68C194.499 10.68 194.871 10.768 195.199 10.944C195.527 11.12 195.787 11.368 195.979 11.688C196.179 12.008 196.279 12.392 196.279 12.84V16.5H195.187ZM200.014 16.62C199.446 16.62 198.934 16.492 198.478 16.236C198.022 15.972 197.662 15.616 197.398 15.168C197.134 14.72 197.002 14.212 197.002 13.644C197.002 13.084 197.13 12.58 197.386 12.132C197.65 11.684 198.002 11.332 198.442 11.076C198.89 10.812 199.39 10.68 199.942 10.68C200.47 10.68 200.934 10.8 201.334 11.04C201.742 11.28 202.058 11.612 202.282 12.036C202.514 12.46 202.63 12.94 202.63 13.476C202.63 13.556 202.626 13.644 202.618 13.74C202.61 13.828 202.594 13.932 202.57 14.052H197.758V13.152H201.994L201.598 13.5C201.598 13.116 201.53 12.792 201.394 12.528C201.258 12.256 201.066 12.048 200.818 11.904C200.57 11.752 200.27 11.676 199.918 11.676C199.55 11.676 199.226 11.756 198.946 11.916C198.666 12.076 198.45 12.3 198.298 12.588C198.146 12.876 198.07 13.216 198.07 13.608C198.07 14.008 198.15 14.36 198.31 14.664C198.47 14.96 198.698 15.192 198.994 15.36C199.29 15.52 199.63 15.6 200.014 15.6C200.334 15.6 200.626 15.544 200.89 15.432C201.162 15.32 201.394 15.152 201.586 14.928L202.282 15.636C202.01 15.956 201.674 16.2 201.274 16.368C200.882 16.536 200.462 16.62 200.014 16.62ZM205.269 13.86L205.257 11.58L205.581 11.568C205.861 11.568 206.105 11.508 206.313 11.388C206.529 11.268 206.697 11.104 206.817 10.896C206.937 10.688 206.997 10.456 206.997 10.2C206.997 9.936 206.937 9.704 206.817 9.504C206.705 9.304 206.541 9.148 206.325 9.036C206.117 8.924 205.869 8.868 205.581 8.868C205.197 8.868 204.865 8.964 204.585 9.156C204.305 9.348 204.081 9.62 203.913 9.972L203.121 9.312C203.353 8.84 203.685 8.472 204.117 8.208C204.557 7.944 205.061 7.812 205.629 7.812C206.117 7.812 206.549 7.912 206.925 8.112C207.301 8.304 207.593 8.576 207.801 8.928C208.009 9.272 208.113 9.672 208.113 10.128C208.113 10.544 208.017 10.924 207.825 11.268C207.641 11.604 207.377 11.884 207.033 12.108C206.697 12.324 206.297 12.464 205.833 12.528L206.301 12.048L206.205 13.86H205.269ZM205.725 16.62C205.501 16.62 205.313 16.544 205.161 16.392C205.017 16.24 204.945 16.052 204.945 15.828C204.945 15.604 205.017 15.42 205.161 15.276C205.313 15.124 205.501 15.048 205.725 15.048C205.949 15.048 206.133 15.124 206.277 15.276C206.429 15.42 206.505 15.604 206.505 15.828C206.505 16.052 206.429 16.24 206.277 16.392C206.133 16.544 205.949 16.62 205.725 16.62Z" fill="black"/>
<path d="M2.06384 35.25V29.004H2.90084V35.25H2.06384ZM0.785836 29.76V29.004H2.81084V29.76H0.785836ZM6.22195 35.34C5.75395 35.34 5.32495 35.208 4.93495 34.944C4.55095 34.68 4.24495 34.308 4.01695 33.828C3.78895 33.342 3.67495 32.772 3.67495 32.118C3.67495 31.464 3.78595 30.897 4.00795 30.417C4.23595 29.937 4.54195 29.568 4.92595 29.31C5.30995 29.046 5.73295 28.914 6.19495 28.914C6.66895 28.914 7.09795 29.046 7.48195 29.31C7.86595 29.568 8.16895 29.937 8.39095 30.417C8.61895 30.897 8.73295 31.467 8.73295 32.127C8.73295 32.781 8.61895 33.351 8.39095 33.837C8.16895 34.317 7.86595 34.689 7.48195 34.953C7.10395 35.211 6.68395 35.34 6.22195 35.34ZM6.20395 34.539C6.53395 34.539 6.82195 34.449 7.06795 34.269C7.31995 34.083 7.51795 33.81 7.66195 33.45C7.80595 33.09 7.87795 32.646 7.87795 32.118C7.87795 31.59 7.80595 31.149 7.66195 30.795C7.51795 30.435 7.31995 30.165 7.06795 29.985C6.81595 29.799 6.52495 29.706 6.19495 29.706C5.87095 29.706 5.58295 29.799 5.33095 29.985C5.07895 30.165 4.88095 30.435 4.73695 30.795C4.59895 31.149 4.52995 31.59 4.52995 32.118C4.52995 32.646 4.59895 33.09 4.73695 33.45C4.88095 33.81 5.07895 34.083 5.33095 34.269C5.58295 34.449 5.87395 34.539 6.20395 34.539ZM9.9982 35.34C9.8302 35.34 9.6892 35.283 9.5752 35.169C9.4672 35.049 9.4132 34.911 9.4132 34.755C9.4132 34.581 9.4672 34.44 9.5752 34.332C9.6892 34.218 9.8302 34.161 9.9982 34.161C10.1662 34.161 10.3042 34.218 10.4122 34.332C10.5262 34.44 10.5832 34.581 10.5832 34.755C10.5832 34.911 10.5262 35.049 10.4122 35.169C10.3042 35.283 10.1662 35.34 9.9982 35.34ZM9.9982 32.532C9.8302 32.532 9.6892 32.475 9.5752 32.361C9.4672 32.247 9.4132 32.109 9.4132 31.947C9.4132 31.773 9.4672 31.632 9.5752 31.524C9.6892 31.41 9.8302 31.353 9.9982 31.353C10.1662 31.353 10.3042 31.41 10.4122 31.524C10.5262 31.632 10.5832 31.773 10.5832 31.947C10.5832 32.109 10.5262 32.247 10.4122 32.361C10.3042 32.475 10.1662 32.532 9.9982 32.532ZM13.8216 35.34C13.3536 35.34 12.9246 35.208 12.5346 34.944C12.1506 34.68 11.8446 34.308 11.6166 33.828C11.3886 33.342 11.2746 32.772 11.2746 32.118C11.2746 31.464 11.3856 30.897 11.6076 30.417C11.8356 29.937 12.1416 29.568 12.5256 29.31C12.9096 29.046 13.3326 28.914 13.7946 28.914C14.2686 28.914 14.6976 29.046 15.0816 29.31C15.4656 29.568 15.7686 29.937 15.9906 30.417C16.2186 30.897 16.3326 31.467 16.3326 32.127C16.3326 32.781 16.2186 33.351 15.9906 33.837C15.7686 34.317 15.4656 34.689 15.0816 34.953C14.7036 35.211 14.2836 35.34 13.8216 35.34ZM13.8036 34.539C14.1336 34.539 14.4216 34.449 14.6676 34.269C14.9196 34.083 15.1176 33.81 15.2616 33.45C15.4056 33.09 15.4776 32.646 15.4776 32.118C15.4776 31.59 15.4056 31.149 15.2616 30.795C15.1176 30.435 14.9196 30.165 14.6676 29.985C14.4156 29.799 14.1246 29.706 13.7946 29.706C13.4706 29.706 13.1826 29.799 12.9306 29.985C12.6786 30.165 12.4806 30.435 12.3366 30.795C12.1986 31.149 12.1296 31.59 12.1296 32.118C12.1296 32.646 12.1986 33.09 12.3366 33.45C12.4806 33.81 12.6786 34.083 12.9306 34.269C13.1826 34.449 13.4736 34.539 13.8036 34.539ZM16.6798 33.099L18.9568 29.004H19.9108L17.5888 33.099H16.6798ZM16.6798 33.621V33.099L17.0398 32.865H21.4678V33.621H16.6798ZM19.7308 35.25V31.119H20.5678V35.25H19.7308ZM22.9079 35.25L25.4639 29.004H26.0759L28.6229 35.25H27.7049L25.6079 29.967H25.9229L23.8079 35.25H22.9079ZM24.1229 33.837V33.099H27.4079V33.837H24.1229ZM29.1882 35.25V29.004H29.7822L32.4282 33.351H32.0232L34.6692 29.004H35.2632V35.25H34.4172V30.489L34.6152 30.543L32.5272 33.972H31.9332L29.8452 30.543L30.0342 30.489V35.25H29.1882Z" fill="white" fill-opacity="0.5"/>
</svg>
