<svg width="10" height="10" viewBox="0 0 10 10" fill="none" xmlns="http://www.w3.org/2000/svg">
<g clip-path="url(#clip0_776_593)">
<path d="M4.60419 0.45166C4.79615 0.355867 5.0245 0.413481 5.15009 0.575684L5.19696 0.651855L6.22137 2.72998L6.31415 2.91846L6.52313 2.94873L8.80536 3.28076L8.83368 3.28467H8.83661C8.90337 3.2984 8.96633 3.32495 9.01825 3.36279L9.07098 3.40869L9.07587 3.41357C9.14694 3.48482 9.18772 3.57982 9.19598 3.68994V3.7251C9.19383 3.84361 9.1479 3.95324 9.06219 4.04053L7.40302 5.65869L7.25262 5.80518L7.28778 6.01221L7.67743 8.29834V8.30127C7.69474 8.39867 7.68006 8.49361 7.63544 8.57861L7.63446 8.58154C7.52256 8.79864 7.25281 8.88412 7.0368 8.771L4.98407 7.69287L4.79755 7.59521L4.612 7.69287L2.55927 8.771L2.55731 8.77197C2.49331 8.80611 2.42268 8.8227 2.35223 8.82275C2.32429 8.82275 2.29885 8.82033 2.27997 8.81689H2.27509C2.03705 8.77639 1.87373 8.5468 1.91473 8.30322L2.30731 6.01709L2.34344 5.81006L2.19305 5.6626L0.532898 4.04443L0.531921 4.04346C0.46706 3.98047 0.419241 3.88981 0.403015 3.7915C0.370708 3.55145 0.540374 3.32524 0.780945 3.28857L0.779968 3.2876L3.07391 2.95264L3.28192 2.92236L3.37469 2.73389L4.39911 0.656738C4.44759 0.564736 4.52053 0.493488 4.60419 0.45166Z" fill="white" stroke="white" stroke-width="0.8"/>
</g>
<defs>
<clipPath id="clip0_776_593">
<rect width="9.6" height="9.21485" fill="white"/>
</clipPath>
</defs>
</svg>
